SplineFontDB: 3.0
FontName: BenchTwelve-Black
FullName: BenchTwelve Black
FamilyName: BenchTwelve
Weight: Black
Copyright: vernon adams (c) 2012
Version: 1
ItalicAngle: 0
UnderlinePosition: 0
UnderlineWidth: 0
Ascent: 1638
Descent: 410
sfntRevision: 0x00010000
LayerCount: 2
Layer: 0 1 "Back"  1
Layer: 1 1 "Fore"  0
XUID: [1021 332 1330122705 11694528]
FSType: 0
OS2Version: 4
OS2_WeightWidthSlopeOnly: 1
OS2_UseTypoMetrics: 1
CreationTime: 1342436392
ModificationTime: 1348275288
PfmFamily: 17
TTFWeight: 900
TTFWidth: 6
LineGap: 0
VLineGap: 0
Panose: 2 0 10 3 0 0 0 0 0 0
OS2TypoAscent: 2020
OS2TypoAOffset: 0
OS2TypoDescent: -720
OS2TypoDOffset: 0
OS2TypoLinegap: 0
OS2WinAscent: 2020
OS2WinAOffset: 0
OS2WinDescent: 720
OS2WinDOffset: 0
HheadAscent: 2020
HheadAOffset: 0
HheadDescent: -720
HheadDOffset: 0
OS2SubXSize: 1331
OS2SubYSize: 1433
OS2SubXOff: 0
OS2SubYOff: 286
OS2SupXSize: 1331
OS2SupYSize: 1433
OS2SupXOff: 0
OS2SupYOff: 983
OS2StrikeYSize: 102
OS2StrikeYPos: 530
OS2Vendor: 'newt'
OS2CodePages: 00000093.00000000
OS2UnicodeRanges: a00000ef.4000004a.00000000.00000000
Lookup: 4 0 1 "'liga' Standard Ligatures lookup 0"  {"'liga' Standard Ligatures lookup 0 subtable"  } ['liga' ('DFLT' <'dflt' > 'grek' <'dflt' > 'latn' <'dflt' > ) ]
Lookup: 258 0 0 "'kern' Horizontal Kerning in Latin lookup 0"  {"'kern' Horizontal Kerning in Latin lookup 0 per glyph data 0"  "'kern' Horizontal Kerning in Latin lookup 0 kerning class 1"  } ['kern' ('DFLT' <'dflt' > 'latn' <'dflt' > ) ]
MarkAttachClasses: 1
DEI: 91125
KernClass2: 33 27 "'kern' Horizontal Kerning in Latin lookup 0 kerning class 1" 
 89 A Agrave Aacute Acircumflex Atilde Adieresis Aring Amacron Abreve Aogonek uni0200 uni0202
 1 B
 1 C
 111 D O Q Eth Ograve Oacute Ocircumflex Otilde Odieresis Oslash Dcaron Omacron Obreve Ohungarumlaut uni020C uni020E
 1 F
 1 G
 1 J
 1 K
 1 L
 1 P
 44 R Racute Rcommaaccent Rcaron uni0210 uni0212
 16 T Tcaron uni021A

StartChar: .notdef
Encoding: 65536 -1 0
Width: 748
Flags: W
LayerCount: 2
Fore
SplineSet
68 0 m 1,0,-1
 68 1365 l 1,1,-1
 612 1365 l 1,2,-1
 612 0 l 1,3,-1
 68 0 l 1,0,-1
136 68 m 1,4,-1
 544 68 l 1,5,-1
 544 1297 l 1,6,-1
 136 1297 l 1,7,-1
 136 68 l 1,4,-1
EndSplineSet
EndChar

StartChar: exclam
Encoding: 33 33 4
Width: 853
GlyphClass: 2
Flags: W
LayerCount: 2
Fore
SplineSet
357 515 m 2,0,1
 297 515 297 515 284 591 c 1,2,-1
 155 1446 l 1,3,4
 155 1478 155 1478 177 1499.5 c 128,-1,5
 199 1521 199 1521 231 1521 c 2,6,-1
 629 1521 l 2,7,8
 661 1521 661 1521 683 1497.5 c 128,-1,9
 705 1474 705 1474 704 1442 c 1,10,-1
 576 591 l 2,11,12
 571 557 571 557 553 536 c 128,-1,13
 535 515 535 515 504 515 c 2,14,-1
 357 515 l 2,0,1
225 0 m 2,15,16
 193 0 193 0 171 22 c 128,-1,17
 149 44 149 44 149 76 c 2,18,-1
 149 287 l 2,19,20
 149 319 149 319 171 341 c 128,-1,21
 193 363 193 363 225 363 c 2,22,-1
 626 363 l 2,23,24
 658 363 658 363 680 341 c 128,-1,25
 702 319 702 319 702 287 c 2,26,-1
 702 76 l 2,27,28
 702 44 702 44 680 22 c 128,-1,29
 658 0 658 0 626 0 c 2,30,-1
 225 0 l 2,15,16
EndSplineSet
EndChar

StartChar: quotedbl
Encoding: 34 34 5
Width: 1323
GlyphClass: 2
Flags: W
LayerCount: 2
Fore
SplineSet
923 689 m 2,0,1
 892 689 892 689 874 709.5 c 128,-1,2
 856 730 856 730 850 764 c 2,3,-1
 721 1443 l 1,4,5
 720 1475 720 1475 742 1498 c 128,-1,6
 764 1521 764 1521 796 1521 c 2,7,-1
 1127 1521 l 2,8,9
 1159 1521 1159 1521 1181 1498 c 128,-1,10
 1203 1475 1203 1475 1202 1443 c 1,11,-1
 1074 764 l 1,12,13
 1062 689 1062 689 1002 689 c 2,14,-1
 923 689 l 2,0,1
317 689 m 2,15,16
 286 689 286 689 268 709.5 c 128,-1,17
 250 730 250 730 244 764 c 2,18,-1
 115 1443 l 1,19,20
 114 1475 114 1475 136.5 1498 c 128,-1,21
 159 1521 159 1521 191 1521 c 2,22,-1
 521 1521 l 2,23,24
 553 1521 553 1521 575 1498 c 128,-1,25
 597 1475 597 1475 596 1443 c 1,26,-1
 468 764 l 1,27,28
 463 730 463 730 445 709.5 c 128,-1,29
 427 689 427 689 396 689 c 2,30,-1
 317 689 l 2,15,16
EndSplineSet
EndChar

StartChar: numbersign
Encoding: 35 35 6
Width: 1824
GlyphClass: 2
Flags: W
LayerCount: 2
Fore
SplineSet
692 580 m 1,0,-1
 1066 580 l 1,1,-1
 1116 793 l 1,2,-1
 742 793 l 1,3,-1
 692 580 l 1,0,-1
260 -205 m 2,4,5
 247 -205 247 -205 239 -194 c 128,-1,6
 231 -183 231 -183 236 -170 c 1,7,-1
 362 369 l 1,8,-1
 205 369 l 2,9,10
 171 369 171 369 154.5 382 c 128,-1,11
 138 395 138 395 138 426 c 2,12,-1
 138 523 l 2,13,14
 138 554 138 554 154.5 567 c 128,-1,15
 171 580 171 580 205 580 c 2,16,-1
 411 580 l 1,17,-1
 461 793 l 1,18,-1
 280 793 l 2,19,20
 246 793 246 793 229.5 806 c 128,-1,21
 213 819 213 819 213 850 c 2,22,-1
 213 949 l 2,23,24
 213 980 213 980 229.5 993 c 128,-1,25
 246 1006 246 1006 280 1006 c 2,26,-1
 511 1006 l 1,27,-1
 653 1612 l 1,28,29
 666 1647 666 1647 703 1647 c 2,30,-1
 910 1647 l 2,31,32
 923 1647 923 1647 931 1636 c 128,-1,33
 939 1625 939 1625 934 1612 c 1,34,-1
 792 1006 l 1,35,-1
 1166 1006 l 1,36,-1
 1308 1612 l 1,37,38
 1321 1647 1321 1647 1358 1647 c 2,39,-1
 1565 1647 l 2,40,41
 1578 1647 1578 1647 1586 1636 c 128,-1,42
 1594 1625 1594 1625 1589 1612 c 1,43,-1
 1447 1006 l 1,44,-1
 1617 1006 l 2,45,46
 1651 1006 1651 1006 1667.5 993 c 128,-1,47
 1684 980 1684 980 1684 949 c 2,48,-1
 1684 850 l 2,49,50
 1684 819 1684 819 1667.5 806 c 128,-1,51
 1651 793 1651 793 1617 793 c 2,52,-1
 1397 793 l 1,53,-1
 1347 580 l 1,54,-1
 1542 580 l 2,55,56
 1576 580 1576 580 1592.5 567 c 128,-1,57
 1609 554 1609 554 1609 523 c 2,58,-1
 1609 426 l 2,59,60
 1609 395 1609 395 1592.5 382 c 128,-1,61
 1576 369 1576 369 1542 369 c 2,62,-1
 1298 369 l 1,63,-1
 1172 -170 l 1,64,65
 1159 -205 1159 -205 1122 -205 c 2,66,-1
 915 -205 l 2,67,68
 902 -205 902 -205 894 -194 c 128,-1,69
 886 -183 886 -183 891 -170 c 1,70,-1
 1017 369 l 1,71,-1
 643 369 l 1,72,-1
 517 -170 l 1,73,74
 504 -205 504 -205 467 -205 c 2,75,-1
 260 -205 l 2,4,5
EndSplineSet
EndChar

StartChar: dollar
Encoding: 36 36 7
Width: 2529
GlyphClass: 2
Flags: W
LayerCount: 2
Fore
SplineSet
1164 931 m 1,0,1
 1164 1124 l 1,2,3
 1018 1124 1018 1124 938 1105 c 128,-1,4
 858 1086 858 1086 858 1035 c 0,5,6
 858 987 858 987 920.5 965.5 c 128,-1,7
 983 944 983 944 1164 931 c 1,0,1
1296 315 m 1,8,-1
 1313 315 l 1,9,10
 1433 316 1433 316 1494.5 338 c 128,-1,11
 1556 360 1556 360 1556 410 c 0,12,13
 1556 466 1556 466 1496.5 490 c 128,-1,14
 1437 514 1437 514 1296 516 c 1,15,-1
 1296 315 l 1,8,-1
1198 -197 m 2,16,17
 1184 -197 1184 -197 1174 -174 c 128,-1,18
 1164 -151 1164 -151 1164 -117 c 2,19,-1
 1164 -41 l 1,20,21
 892 -40 892 -40 655 -7.5 c 128,-1,22
 418 25 418 25 197 105 c 0,23,24
 183 110 183 110 173 120 c 128,-1,25
 163 130 163 130 157.5 143.5 c 128,-1,26
 152 157 152 157 152 171 c 0,27,28
 152 177 152 177 153.5 183.5 c 128,-1,29
 155 190 155 190 157 196 c 0,30,31
 157 197 157 197 250 397 c 0,32,33
 257 412 257 412 269 423 c 128,-1,34
 281 434 281 434 296 440 c 128,-1,35
 311 446 311 446 327 446 c 0,36,37
 338 446 338 446 350 443 c 0,38,39
 548 386 548 386 740 354.5 c 128,-1,40
 932 323 932 323 1164 317 c 1,41,-1
 1164 523 l 1,42,43
 1031 530 1031 530 942 536.5 c 128,-1,44
 853 543 853 543 737 558 c 128,-1,45
 621 573 621 573 545 593.5 c 128,-1,46
 469 614 469 614 387.5 648.5 c 128,-1,47
 306 683 306 683 259 728.5 c 128,-1,48
 212 774 212 774 181.5 840 c 128,-1,49
 151 906 151 906 151 989 c 0,50,51
 151 1081 151 1081 180.5 1154 c 128,-1,52
 210 1227 210 1227 259 1277 c 128,-1,53
 308 1327 308 1327 385.5 1364 c 128,-1,54
 463 1401 463 1401 543.5 1422 c 128,-1,55
 624 1443 624 1443 734 1455 c 128,-1,56
 844 1467 844 1467 941 1471 c 128,-1,57
 1038 1475 1038 1475 1164 1475 c 1,58,-1
 1164 1563 l 2,59,60
 1164 1598 1164 1598 1174 1620.5 c 128,-1,61
 1184 1643 1184 1643 1198 1643 c 2,62,-1
 1262 1643 l 2,63,64
 1276 1643 1276 1643 1286 1620.5 c 128,-1,65
 1296 1598 1296 1598 1296 1563 c 2,66,-1
 1296 1472 l 1,67,68
 1776 1457 1776 1457 2101 1331 c 0,69,70
 2114 1326 2114 1326 2124 1315.5 c 128,-1,71
 2134 1305 2134 1305 2139 1292 c 128,-1,72
 2144 1279 2144 1279 2144 1265 c 128,-1,73
 2144 1251 2144 1251 2139 1239 c 2,74,-1
 2096 1151 l 2,75,76
 2052 1063 2052 1063 2052 1062 c 0,77,78
 2040 1040 2040 1040 2019 1026.5 c 128,-1,79
 1998 1013 1998 1013 1973 1013 c 0,80,81
 1970 1013 1970 1013 1967 1013 c 128,-1,82
 1964 1013 1964 1013 1961 1013.5 c 128,-1,83
 1958 1014 1958 1014 1955 1014.5 c 128,-1,84
 1952 1015 1952 1015 1949 1016 c 0,85,86
 1656 1109 1656 1109 1296 1122 c 1,87,-1
 1296 923 l 1,88,89
 1388 919 1388 919 1461.5 914.5 c 128,-1,90
 1535 910 1535 910 1621.5 901 c 128,-1,91
 1708 892 1708 892 1776 880 c 128,-1,92
 1844 868 1844 868 1916 848.5 c 128,-1,93
 1988 829 1988 829 2041.5 804.5 c 128,-1,94
 2095 780 2095 780 2144.5 746 c 128,-1,95
 2194 712 2194 712 2225 670 c 128,-1,96
 2256 628 2256 628 2274.5 574 c 128,-1,97
 2293 520 2293 520 2293 456 c 0,98,99
 2293 284 2293 284 2196 179 c 128,-1,100
 2099 74 2099 74 1881 20.5 c 128,-1,101
 1663 -33 1663 -33 1296 -40 c 1,102,-1
 1296 -117 l 2,103,104
 1296 -151 1296 -151 1286 -174 c 128,-1,105
 1276 -197 1276 -197 1262 -197 c 2,106,-1
 1198 -197 l 2,16,17
EndSplineSet
EndChar

StartChar: percent
Encoding: 37 37 8
Width: 2655
GlyphClass: 2
Flags: W
LayerCount: 2
Fore
SplineSet
2074 -40 m 128,-1,1
 1967 -40 1967 -40 1879.5 0 c 128,-1,2
 1792 40 1792 40 1737.5 107 c 128,-1,3
 1683 174 1683 174 1654 257 c 128,-1,4
 1625 340 1625 340 1625 431 c 0,5,6
 1625 521 1625 521 1653.5 603.5 c 128,-1,7
 1682 686 1682 686 1736 752 c 128,-1,8
 1790 818 1790 818 1877.5 857.5 c 128,-1,9
 1965 897 1965 897 2074 897 c 128,-1,10
 2183 897 2183 897 2270.5 857.5 c 128,-1,11
 2358 818 2358 818 2412 752 c 128,-1,12
 2466 686 2466 686 2494.5 603.5 c 128,-1,13
 2523 521 2523 521 2523 431 c 0,14,15
 2523 340 2523 340 2494 257 c 128,-1,16
 2465 174 2465 174 2410.5 107 c 128,-1,17
 2356 40 2356 40 2268.5 0 c 128,-1,0
 2181 -40 2181 -40 2074 -40 c 128,-1,1
2074 134 m 128,-1,19
 2164 134 2164 134 2210.5 209.5 c 128,-1,20
 2257 285 2257 285 2257 425 c 0,21,22
 2257 567 2257 567 2210 645 c 128,-1,23
 2163 723 2163 723 2074 723 c 0,24,25
 1986 723 1986 723 1938.5 645 c 128,-1,26
 1891 567 1891 567 1891 425 c 0,27,28
 1891 285 1891 285 1937.5 209.5 c 128,-1,18
 1984 134 1984 134 2074 134 c 128,-1,19
578 560 m 128,-1,30
 470 560 470 560 383 600 c 128,-1,31
 296 640 296 640 241.5 706.5 c 128,-1,32
 187 773 187 773 158 856.5 c 128,-1,33
 129 940 129 940 129 1031 c 0,34,35
 129 1121 129 1121 157.5 1203.5 c 128,-1,36
 186 1286 186 1286 240 1352 c 128,-1,37
 294 1418 294 1418 381.5 1457.5 c 128,-1,38
 469 1497 469 1497 578 1497 c 128,-1,39
 687 1497 687 1497 774.5 1457.5 c 128,-1,40
 862 1418 862 1418 915.5 1352 c 128,-1,41
 969 1286 969 1286 997.5 1203.5 c 128,-1,42
 1026 1121 1026 1121 1026 1031 c 0,43,44
 1026 940 1026 940 997 856.5 c 128,-1,45
 968 773 968 773 914 706.5 c 128,-1,46
 860 640 860 640 773 600 c 128,-1,29
 686 560 686 560 578 560 c 128,-1,30
578 734 m 128,-1,48
 668 734 668 734 714.5 809 c 128,-1,49
 761 884 761 884 761 1024 c 0,50,51
 761 1166 761 1166 714 1244.5 c 128,-1,52
 667 1323 667 1323 578 1323 c 128,-1,53
 489 1323 489 1323 442 1244.5 c 128,-1,54
 395 1166 395 1166 395 1024 c 0,55,56
 395 885 395 885 441.5 809.5 c 128,-1,47
 488 734 488 734 578 734 c 128,-1,48
887 -82 m 2,57,58
 865 -82 865 -82 850.5 -67.5 c 128,-1,59
 836 -53 836 -53 836 -33 c 1,60,61
 837 -22 837 -22 841 -12 c 2,62,-1
 1496 1466 l 2,63,64
 1509 1497 1509 1497 1539 1516.5 c 128,-1,65
 1569 1536 1569 1536 1604 1536 c 2,66,-1
 1749 1536 l 2,67,68
 1771 1536 1771 1536 1785.5 1521.5 c 128,-1,69
 1800 1507 1800 1507 1800 1487 c 0,70,71
 1800 1476 1800 1476 1795 1466 c 2,72,-1
 1141 -12 l 2,73,74
 1127 -44 1127 -44 1097 -63 c 128,-1,75
 1067 -82 1067 -82 1033 -82 c 2,76,-1
 887 -82 l 2,57,58
EndSplineSet
EndChar

StartChar: ampersand
Encoding: 38 38 9
Width: 3157
GlyphClass: 2
Flags: W
LayerCount: 2
Fore
SplineSet
1167 269 m 0,0,1
 1571 269 1571 269 1896 360 c 1,2,3
 1885 417 1885 417 1885 475 c 2,4,-1
 1885 577 l 2,5,6
 1885 592 1885 592 1874.5 602 c 128,-1,7
 1864 612 1864 612 1849 612 c 0,8,9
 1768 612 1768 612 1609 612 c 0,10,11
 1506 612 1506 612 1318 612 c 128,-1,12
 1130 612 1130 612 1078 612 c 0,13,14
 1014 612 1014 612 967 603 c 128,-1,15
 920 594 920 594 892 580 c 128,-1,16
 864 566 864 566 848 544.5 c 128,-1,17
 832 523 832 523 826.5 501 c 128,-1,18
 821 479 821 479 821 450 c 0,19,20
 821 444 821 444 821 438 c 0,21,22
 821 400 821 400 837.5 370.5 c 128,-1,23
 854 341 854 341 884 323 c 128,-1,24
 914 305 914 305 946 293.5 c 128,-1,25
 978 282 978 282 1022 277 c 128,-1,26
 1066 272 1066 272 1097 270.5 c 128,-1,27
 1128 269 1128 269 1167 269 c 0,0,1
2601 -41 m 0,28,29
 2254 -41 2254 -41 2064 101 c 1,30,31
 1644 -40 1644 -40 1163 -40 c 0,32,33
 976 -40 976 -40 825 -25.5 c 128,-1,34
 674 -11 674 -11 546 23 c 128,-1,35
 418 57 418 57 332.5 110 c 128,-1,36
 247 163 247 163 199 242 c 128,-1,37
 151 321 151 321 151 424 c 0,38,39
 151 558 151 558 230 638 c 128,-1,40
 309 718 309 718 463 737 c 1,41,42
 310 753 310 753 228.5 828.5 c 128,-1,43
 147 904 147 904 147 1036 c 0,44,45
 147 1157 147 1157 219 1243.5 c 128,-1,46
 291 1330 291 1330 428.5 1380 c 128,-1,47
 566 1430 566 1430 745.5 1452.5 c 128,-1,48
 925 1475 925 1475 1161 1475 c 0,49,50
 1269 1475 1269 1475 1434 1456 c 128,-1,51
 1599 1437 1599 1437 1662 1422 c 1,52,53
 1715 1408 1715 1408 1715 1365 c 0,54,55
 1715 1357 1715 1357 1714 1352 c 2,56,-1
 1692 1167 l 2,57,58
 1686 1123 1686 1123 1648 1123 c 0,59,60
 1638 1123 1638 1123 1625 1126 c 0,61,62
 1623 1126 1623 1126 1596.5 1130 c 128,-1,63
 1570 1134 1570 1134 1540 1137.5 c 128,-1,64
 1510 1141 1510 1141 1463 1146.5 c 128,-1,65
 1416 1152 1416 1152 1370 1156 c 128,-1,66
 1324 1160 1324 1160 1268 1162.5 c 128,-1,67
 1212 1165 1212 1165 1162 1165 c 0,68,69
 1095 1165 1095 1165 1044 1160.5 c 128,-1,70
 993 1156 993 1156 936.5 1142.5 c 128,-1,71
 880 1129 880 1129 849 1099.5 c 128,-1,72
 818 1070 818 1070 817 1025 c 0,73,74
 817 1022 817 1022 817 1019 c 0,75,76
 817 992 817 992 822.5 972 c 128,-1,77
 828 952 828 952 845 933 c 128,-1,78
 862 914 862 914 890.5 902 c 128,-1,79
 919 890 919 890 966.5 883 c 128,-1,80
 1014 876 1014 876 1079 876 c 2,81,-1
 1849 876 l 2,82,83
 1864 876 1864 876 1874.5 886.5 c 128,-1,84
 1885 897 1885 897 1885 912 c 2,85,-1
 1913 1348 l 2,86,87
 1915 1381 1915 1381 1936 1402 c 128,-1,88
 1957 1423 1957 1423 1989 1423 c 2,89,-1
 2383 1423 l 2,90,91
 2415 1423 2415 1423 2437 1401.5 c 128,-1,92
 2459 1380 2459 1380 2459 1348 c 2,93,-1
 2459 912 l 2,94,95
 2459 897 2459 897 2469 886.5 c 128,-1,96
 2479 876 2479 876 2494 876 c 2,97,-1
 2866 876 l 2,98,99
 2898 876 2898 876 2920 854.5 c 128,-1,100
 2942 833 2942 833 2942 801 c 2,101,-1
 2942 688 l 2,102,103
 2942 656 2942 656 2920 634 c 128,-1,104
 2898 612 2898 612 2866 612 c 2,105,-1
 2494 612 l 2,106,107
 2479 612 2479 612 2469 602 c 128,-1,108
 2459 592 2459 592 2459 577 c 2,109,-1
 2459 433 l 2,110,111
 2459 254 2459 254 2707 254 c 0,112,113
 2818 254 2818 254 2945 287 c 0,114,115
 2955 290 2955 290 2964 290 c 0,116,117
 2987 290 2987 290 3002.5 274 c 128,-1,118
 3018 258 3018 258 3019 232 c 2,119,-1
 3020 88 l 2,120,121
 3021 57 3021 57 3001 31.5 c 128,-1,122
 2981 6 2981 6 2950 -2 c 0,123,124
 2782 -41 2782 -41 2601 -41 c 0,28,29
EndSplineSet
EndChar

StartChar: quotesingle
Encoding: 39 39 10
Width: 750
GlyphClass: 2
Flags: W
LayerCount: 2
Fore
SplineSet
334 689 m 2,0,1
 274 689 274 689 261 764 c 1,2,-1
 132 1443 l 1,3,4
 131 1475 131 1475 153 1498 c 128,-1,5
 175 1521 175 1521 207 1521 c 2,6,-1
 538 1521 l 2,7,8
 570 1521 570 1521 592 1498 c 128,-1,9
 614 1475 614 1475 613 1443 c 1,10,-1
 485 764 l 1,11,12
 472 689 472 689 413 689 c 2,13,-1
 334 689 l 2,0,1
EndSplineSet
EndChar

StartChar: parenleft
Encoding: 40 40 11
Width: 1003
GlyphClass: 2
Flags: W
LayerCount: 2
Fore
SplineSet
800 -143 m 0,0,1
 670 -128 670 -128 561 -74.5 c 128,-1,2
 452 -21 452 -21 375 59.5 c 128,-1,3
 298 140 298 140 244 243.5 c 128,-1,4
 190 347 190 347 164.5 461.5 c 128,-1,5
 139 576 139 576 139 698 c 0,6,7
 139 851 139 851 181 992 c 128,-1,8
 223 1133 223 1133 303 1249.5 c 128,-1,9
 383 1366 383 1366 511.5 1444 c 128,-1,10
 640 1522 640 1522 800 1540 c 0,11,12
 803 1540 803 1540 806 1540 c 0,13,14
 834 1540 834 1540 855.5 1518.5 c 128,-1,15
 877 1497 877 1497 877 1470 c 2,16,-1
 877 1384 l 2,17,18
 877 1334 877 1334 861.5 1312.5 c 128,-1,19
 846 1291 846 1291 798 1266 c 0,20,21
 700 1216 700 1216 645 1059.5 c 128,-1,22
 590 903 590 903 590 698 c 0,23,24
 590 491 590 491 643.5 338 c 128,-1,25
 697 185 697 185 798 132 c 1,26,27
 846 108 846 108 861.5 86.5 c 128,-1,28
 877 65 877 65 877 15 c 2,29,-1
 877 -73 l 2,30,31
 877 -100 877 -100 855.5 -121.5 c 128,-1,32
 834 -143 834 -143 806 -143 c 0,33,34
 803 -143 803 -143 800 -143 c 0,0,1
EndSplineSet
EndChar

StartChar: parenright
Encoding: 41 41 12
Width: 1006
GlyphClass: 2
Flags: W
LayerCount: 2
Fore
SplineSet
204 -143 m 0,0,1
 201 -143 201 -143 198 -143 c 0,2,3
 180 -143 180 -143 163.5 -133 c 128,-1,4
 147 -123 147 -123 137 -107 c 128,-1,5
 127 -91 127 -91 127 -73 c 2,6,-1
 127 15 l 2,7,8
 127 65 127 65 142.5 87 c 128,-1,9
 158 109 158 109 206 132 c 0,10,11
 304 181 304 181 359 334.5 c 128,-1,12
 414 488 414 488 414 698 c 128,-1,13
 414 908 414 908 359 1062.5 c 128,-1,14
 304 1217 304 1217 206 1266 c 0,15,16
 158 1290 158 1290 142.5 1312 c 128,-1,17
 127 1334 127 1334 127 1384 c 2,18,-1
 127 1470 l 2,19,20
 127 1483 127 1483 133 1496 c 128,-1,21
 139 1509 139 1509 148.5 1518.5 c 128,-1,22
 158 1528 158 1528 171.5 1534 c 128,-1,23
 185 1540 185 1540 198 1540 c 0,24,25
 201 1540 201 1540 204 1540 c 0,26,27
 335 1526 335 1526 444.5 1472.5 c 128,-1,28
 554 1419 554 1419 630.5 1338.5 c 128,-1,29
 707 1258 707 1258 760.5 1154 c 128,-1,30
 814 1050 814 1050 839.5 935 c 128,-1,31
 865 820 865 820 865 698 c 128,-1,32
 865 576 865 576 839.5 461 c 128,-1,33
 814 346 814 346 760.5 242 c 128,-1,34
 707 138 707 138 630.5 57.5 c 128,-1,35
 554 -23 554 -23 444.5 -76.5 c 128,-1,36
 335 -130 335 -130 204 -143 c 0,0,1
EndSplineSet
EndChar

StartChar: asterisk
Encoding: 42 42 13
Width: 1320
GlyphClass: 2
Flags: W
LayerCount: 2
Fore
SplineSet
402 407 m 0,0,1
 357 407 357 407 323.5 439 c 128,-1,2
 290 471 290 471 290 516 c 0,3,4
 290 533 290 533 300.5 556.5 c 128,-1,5
 311 580 311 580 331 608 c 128,-1,6
 351 636 351 636 371.5 662 c 128,-1,7
 392 688 392 688 422 719.5 c 128,-1,8
 452 751 452 751 472 771.5 c 128,-1,9
 492 792 492 792 520.5 820.5 c 128,-1,10
 549 849 549 849 557 858 c 1,11,-1
 204 936 l 2,12,13
 168 944 168 944 143.5 972.5 c 128,-1,14
 119 1001 119 1001 119 1038 c 0,15,16
 119 1082 119 1082 149.5 1116.5 c 128,-1,17
 180 1151 180 1151 225 1151 c 0,18,19
 243 1151 243 1151 276.5 1138.5 c 128,-1,20
 310 1126 310 1126 359 1101.5 c 128,-1,21
 408 1077 408 1077 442 1059 c 128,-1,22
 476 1041 476 1041 530.5 1010.5 c 128,-1,23
 585 980 585 980 595 975 c 1,24,25
 591 999 591 999 576.5 1088 c 128,-1,26
 562 1177 562 1177 555 1238 c 128,-1,27
 548 1299 548 1299 548 1353 c 0,28,29
 548 1397 548 1397 581.5 1424 c 128,-1,30
 615 1451 615 1451 657 1451 c 0,31,32
 700 1451 700 1451 731.5 1421.5 c 128,-1,33
 763 1392 763 1392 763 1348 c 0,34,35
 763 1294 763 1294 756 1234.5 c 128,-1,36
 749 1175 749 1175 735 1089.5 c 128,-1,37
 721 1004 721 1004 717 975 c 1,38,39
 732 983 732 983 782 1010.5 c 128,-1,40
 832 1038 832 1038 869.5 1058 c 128,-1,41
 907 1078 907 1078 954 1101.5 c 128,-1,42
 1001 1125 1001 1125 1035.5 1138 c 128,-1,43
 1070 1151 1070 1151 1088 1151 c 0,44,45
 1133 1151 1133 1151 1163.5 1116.5 c 128,-1,46
 1194 1082 1194 1082 1194 1038 c 0,47,48
 1194 1001 1194 1001 1169.5 972.5 c 128,-1,49
 1145 944 1145 944 1109 936 c 2,50,-1
 756 858 l 1,51,52
 761 852 761 852 807.5 805.5 c 128,-1,53
 854 759 854 759 881 729 c 128,-1,54
 908 699 908 699 946.5 654.5 c 128,-1,55
 985 610 985 610 1004 575 c 128,-1,56
 1023 540 1023 540 1023 516 c 0,57,58
 1023 472 1023 472 989 439.5 c 128,-1,59
 955 407 955 407 911 407 c 0,60,61
 881 407 881 407 855.5 423 c 128,-1,62
 830 439 830 439 816 466 c 2,63,-1
 657 788 l 1,64,-1
 497 466 l 2,65,66
 483 439 483 439 457.5 423 c 128,-1,67
 432 407 432 407 402 407 c 0,0,1
EndSplineSet
EndChar

StartChar: plus
Encoding: 43 43 14
Width: 1284
GlyphClass: 2
Flags: W
LayerCount: 2
Fore
SplineSet
564 97 m 2,0,1
 532 97 532 97 511 118.5 c 128,-1,2
 490 140 490 140 490 172 c 2,3,-1
 490 444 l 2,4,5
 490 459 490 459 479.5 470 c 128,-1,6
 469 481 469 481 454 481 c 2,7,-1
 202 481 l 2,8,9
 170 481 170 481 149 502 c 128,-1,10
 128 523 128 523 128 555 c 2,11,-1
 128 696 l 2,12,13
 128 728 128 728 149 749 c 128,-1,14
 170 770 170 770 202 770 c 2,15,-1
 454 770 l 2,16,17
 469 770 469 770 479.5 781 c 128,-1,18
 490 792 490 792 490 807 c 2,19,-1
 490 1080 l 2,20,21
 490 1112 490 1112 511 1134 c 128,-1,22
 532 1156 532 1156 564 1156 c 2,23,-1
 722 1156 l 2,24,25
 754 1156 754 1156 775 1134 c 128,-1,26
 796 1112 796 1112 796 1080 c 2,27,-1
 796 807 l 2,28,29
 796 792 796 792 806 781 c 128,-1,30
 816 770 816 770 831 770 c 2,31,-1
 1080 770 l 2,32,33
 1112 770 1112 770 1133 749 c 128,-1,34
 1154 728 1154 728 1154 696 c 2,35,-1
 1154 555 l 2,36,37
 1154 523 1154 523 1133 502 c 128,-1,38
 1112 481 1112 481 1080 481 c 2,39,-1
 831 481 l 2,40,41
 816 481 816 481 806 470 c 128,-1,42
 796 459 796 459 796 444 c 2,43,-1
 796 172 l 2,44,45
 796 140 796 140 775 118.5 c 128,-1,46
 754 97 754 97 722 97 c 2,47,-1
 564 97 l 2,0,1
EndSplineSet
EndChar

StartChar: comma
Encoding: 44 44 15
Width: 648
GlyphClass: 2
Flags: W
LayerCount: 2
Fore
SplineSet
206 -336 m 0,0,1
 198 -337 198 -337 191 -337 c 0,2,3
 166 -337 166 -337 148.5 -325 c 128,-1,4
 131 -313 131 -313 131 -291 c 2,5,-1
 131 -246 l 2,6,7
 131 -227 131 -227 136.5 -215 c 128,-1,8
 142 -203 142 -203 149 -198.5 c 128,-1,9
 156 -194 156 -194 173 -186 c 128,-1,10
 190 -178 190 -178 201 -171 c 0,11,12
 246 -143 246 -143 266 -99 c 128,-1,13
 286 -55 286 -55 286 -27 c 0,14,15
 286 0 286 0 269 0 c 2,16,-1
 191 0 l 2,17,18
 163 0 163 0 147 19 c 128,-1,19
 131 38 131 38 131 67 c 2,20,-1
 131 270 l 2,21,22
 131 345 131 345 191 345 c 2,23,-1
 441 345 l 2,24,25
 473 345 473 345 495.5 322.5 c 128,-1,26
 518 300 518 300 518 268 c 2,27,-1
 518 36 l 2,28,29
 518 -49 518 -49 489 -118.5 c 128,-1,30
 460 -188 460 -188 413 -231.5 c 128,-1,31
 366 -275 366 -275 313.5 -301 c 128,-1,32
 261 -327 261 -327 206 -336 c 0,0,1
EndSplineSet
EndChar

StartChar: hyphen
Encoding: 45 45 16
Width: 1059
GlyphClass: 2
Flags: W
LayerCount: 2
Fore
SplineSet
206 422 m 2,0,1
 174 422 174 422 152.5 443 c 128,-1,2
 131 464 131 464 131 496 c 2,3,-1
 131 674 l 2,4,5
 131 706 131 706 152.5 727 c 128,-1,6
 174 748 174 748 206 748 c 2,7,-1
 853 748 l 2,8,9
 885 748 885 748 906 727 c 128,-1,10
 927 706 927 706 927 674 c 2,11,-1
 927 496 l 2,12,13
 927 464 927 464 906 443 c 128,-1,14
 885 422 885 422 853 422 c 2,15,-1
 206 422 l 2,0,1
EndSplineSet
EndChar

StartChar: period
Encoding: 46 46 17
Width: 625
GlyphClass: 2
Flags: W
LayerCount: 2
Fore
SplineSet
206 0 m 2,0,1
 174 0 174 0 151.5 22.5 c 128,-1,2
 129 45 129 45 129 77 c 2,3,-1
 129 265 l 2,4,5
 129 297 129 297 151.5 319.5 c 128,-1,6
 174 342 174 342 206 342 c 2,7,-1
 419 342 l 2,8,9
 451 342 451 342 473.5 319.5 c 128,-1,10
 496 297 496 297 496 265 c 2,11,-1
 496 77 l 2,12,13
 496 45 496 45 473.5 22.5 c 128,-1,14
 451 0 451 0 419 0 c 2,15,-1
 206 0 l 2,0,1
EndSplineSet
EndChar

StartChar: slash
Encoding: 47 47 18
Width: 1400
GlyphClass: 2
Flags: W
LayerCount: 2
Fore
SplineSet
517 -219 m 0,0,1
 514 -219 514 -219 470.5 -218 c 128,-1,2
 427 -217 427 -217 370.5 -215.5 c 128,-1,3
 314 -214 314 -214 256.5 -212 c 128,-1,4
 199 -210 199 -210 160.5 -207 c 128,-1,5
 122 -204 122 -204 124 -200 c 1,6,-1
 123 -198 l 1,7,8
 124 -169 124 -169 304 335 c 0,9,10
 313 362 313 362 314 364 c 256,11,12
 315 366 315 366 438.5 682.5 c 128,-1,13
 562 999 562 999 684.5 1311 c 128,-1,14
 807 1623 807 1623 809 1623 c 1,15,16
 813 1632 813 1632 844.5 1639.5 c 128,-1,17
 876 1647 876 1647 895 1647 c 0,18,19
 951 1647 951 1647 1118.5 1638.5 c 128,-1,20
 1286 1630 1286 1630 1281 1619 c 1,21,22
 1282 1619 1282 1619 1282 1617 c 0,23,24
 1282 1610 1282 1610 1268.5 1566.5 c 128,-1,25
 1255 1523 1255 1523 1235 1464 c 128,-1,26
 1215 1405 1215 1405 1191 1336.5 c 128,-1,27
 1167 1268 1167 1268 1146.5 1211.5 c 128,-1,28
 1126 1155 1126 1155 1111.5 1114 c 128,-1,29
 1097 1073 1097 1073 1097 1072 c 0,30,31
 1070 998 1070 998 836.5 402 c 128,-1,32
 603 -194 603 -194 594 -194 c 1,33,34
 590 -204 590 -204 562.5 -211.5 c 128,-1,35
 535 -219 535 -219 517 -219 c 0,0,1
EndSplineSet
EndChar

StartChar: zero
Encoding: 48 48 19
Width: 2320
GlyphClass: 2
Flags: W
LayerCount: 2
Fore
SplineSet
1164 -41 m 0,0,1
 1045 -41 1045 -41 942.5 -32.5 c 128,-1,2
 840 -24 840 -24 733.5 -1 c 128,-1,3
 627 22 627 22 541 58.5 c 128,-1,4
 455 95 455 95 378 154.5 c 128,-1,5
 301 214 301 214 249 292 c 128,-1,6
 197 370 197 370 167 479.5 c 128,-1,7
 137 589 137 589 137 723 c 0,8,9
 137 847 137 847 167 950.5 c 128,-1,10
 197 1054 197 1054 249.5 1130.5 c 128,-1,11
 302 1207 302 1207 378 1267 c 128,-1,12
 454 1327 454 1327 541.5 1365.5 c 128,-1,13
 629 1404 629 1404 733.5 1429 c 128,-1,14
 838 1454 838 1454 943 1464.5 c 128,-1,15
 1048 1475 1048 1475 1164 1475 c 128,-1,16
 1280 1475 1280 1475 1384.5 1464.5 c 128,-1,17
 1489 1454 1489 1454 1592.5 1429 c 128,-1,18
 1696 1404 1696 1404 1782.5 1365.5 c 128,-1,19
 1869 1327 1869 1327 1944.5 1267 c 128,-1,20
 2020 1207 2020 1207 2071.5 1130.5 c 128,-1,21
 2123 1054 2123 1054 2152.5 950.5 c 128,-1,22
 2182 847 2182 847 2182 723 c 0,23,24
 2182 589 2182 589 2152.5 479.5 c 128,-1,25
 2123 370 2123 370 2071.5 292 c 128,-1,26
 2020 214 2020 214 1944 154.5 c 128,-1,27
 1868 95 1868 95 1783 58.5 c 128,-1,28
 1698 22 1698 22 1592 -1 c 128,-1,29
 1486 -24 1486 -24 1384 -32.5 c 128,-1,30
 1282 -41 1282 -41 1164 -41 c 0,0,1
1164 323 m 0,31,32
 1280 323 1280 323 1348 358.5 c 128,-1,33
 1416 394 1416 394 1451 482 c 128,-1,34
 1486 570 1486 570 1486 723 c 0,35,36
 1486 942 1486 942 1411.5 1029.5 c 128,-1,37
 1337 1117 1337 1117 1164 1117 c 0,38,39
 989 1117 989 1117 911 1029 c 128,-1,40
 833 941 833 941 833 723 c 0,41,42
 833 571 833 571 870 482.5 c 128,-1,43
 907 394 907 394 977 358.5 c 128,-1,44
 1047 323 1047 323 1164 323 c 0,31,32
EndSplineSet
EndChar

StartChar: one
Encoding: 49 49 20
Width: 1307
GlyphClass: 2
Flags: W
LayerCount: 2
Fore
SplineSet
516 0 m 2,0,1
 484 0 484 0 462.5 22 c 128,-1,2
 441 44 441 44 441 76 c 2,3,-1
 441 991 l 2,4,5
 441 1006 441 1006 430 1017 c 128,-1,6
 419 1028 419 1028 404 1028 c 1,7,-1
 192 1008 l 1,8,9
 160 1008 160 1008 138.5 1029.5 c 128,-1,10
 117 1051 117 1051 117 1083 c 2,11,-1
 117 1283 l 2,12,13
 117 1315 117 1315 138.5 1336.5 c 128,-1,14
 160 1358 160 1358 192 1358 c 1,15,-1
 1071 1438 l 1,16,17
 1103 1438 1103 1438 1125 1416.5 c 128,-1,18
 1147 1395 1147 1395 1147 1363 c 2,19,-1
 1147 76 l 2,20,21
 1147 44 1147 44 1125 22 c 128,-1,22
 1103 0 1103 0 1071 0 c 2,23,-1
 516 0 l 2,0,1
EndSplineSet
EndChar

StartChar: two
Encoding: 50 50 21
Width: 2202
GlyphClass: 2
Flags: W
LayerCount: 2
Fore
SplineSet
238 1 m 2,0,1
 190 1 190 1 163 26 c 128,-1,2
 136 51 136 51 136 93 c 0,3,4
 136 97 136 97 138.5 123 c 128,-1,5
 141 149 141 149 144.5 176.5 c 128,-1,6
 148 204 148 204 148 207 c 0,7,8
 164 349 164 349 219.5 460.5 c 128,-1,9
 275 572 275 572 355 641 c 128,-1,10
 435 710 435 710 535 759.5 c 128,-1,11
 635 809 635 809 741.5 834 c 128,-1,12
 848 859 848 859 953 876 c 128,-1,13
 1058 893 1058 893 1152 904 c 128,-1,14
 1246 915 1246 915 1318 929 c 128,-1,15
 1390 943 1390 943 1432 969 c 128,-1,16
 1474 995 1474 995 1474 1036 c 0,17,18
 1474 1061 1474 1061 1469.5 1076.5 c 128,-1,19
 1465 1092 1465 1092 1446 1110.5 c 128,-1,20
 1427 1129 1427 1129 1392 1140 c 128,-1,21
 1357 1151 1357 1151 1292 1158 c 128,-1,22
 1227 1165 1227 1165 1134 1165 c 0,23,24
 991 1165 991 1165 803.5 1137.5 c 128,-1,25
 616 1110 616 1110 511.5 1086.5 c 128,-1,26
 407 1063 407 1063 378 1054 c 0,27,28
 345 1044 345 1044 329 1044 c 0,29,30
 276 1044 276 1044 269 1074 c 1,31,32
 253 1104 253 1104 236.5 1151.5 c 128,-1,33
 220 1199 220 1199 211.5 1231 c 128,-1,34
 203 1263 203 1263 203 1267 c 0,35,36
 203 1320 203 1320 241 1336 c 0,37,38
 355 1387 355 1387 595.5 1431 c 128,-1,39
 836 1475 836 1475 1025 1476 c 0,40,41
 1128 1476 1128 1476 1212 1473.5 c 128,-1,42
 1296 1471 1296 1471 1384.5 1463.5 c 128,-1,43
 1473 1456 1473 1456 1543 1444 c 128,-1,44
 1613 1432 1613 1432 1682 1412 c 128,-1,45
 1751 1392 1751 1392 1802 1365.5 c 128,-1,46
 1853 1339 1853 1339 1897.5 1301.5 c 128,-1,47
 1942 1264 1942 1264 1970 1217 c 128,-1,48
 1998 1170 1998 1170 2014 1110 c 128,-1,49
 2030 1050 2030 1050 2030 978 c 0,50,51
 2030 883 2030 883 1997 809 c 0,52,53
 1931 661 1931 661 1714 591 c 0,54,55
 1606 557 1606 557 1354 519 c 0,56,57
 1289 509 1289 509 1257 504 c 0,58,59
 999 462 999 462 876 399 c 0,60,61
 866 395 866 395 860.5 391.5 c 128,-1,62
 855 388 855 388 850.5 377.5 c 128,-1,63
 846 367 846 367 846 350 c 0,64,65
 846 306 846 306 902 306 c 2,66,-1
 1929 306 l 2,67,68
 1985 306 1985 306 1985 242 c 2,69,-1
 1985 69 l 2,70,71
 1985 33 1985 33 1972 17 c 128,-1,72
 1959 1 1959 1 1928 1 c 2,73,-1
 238 1 l 2,0,1
EndSplineSet
EndChar

StartChar: three
Encoding: 51 51 22
Width: 2208
GlyphClass: 2
Flags: W
LayerCount: 2
Fore
SplineSet
1042 -40 m 0,0,1
 863 -40 863 -40 582.5 1 c 128,-1,2
 302 42 302 42 200 72 c 1,3,4
 147 86 147 86 147 129 c 0,5,6
 147 137 147 137 148 142 c 2,7,-1
 171 326 l 2,8,9
 177 370 177 370 215 370 c 0,10,11
 225 370 225 370 238 367 c 0,12,13
 239 367 239 367 276.5 359.5 c 128,-1,14
 314 352 314 352 357 344.5 c 128,-1,15
 400 337 400 337 464.5 326 c 128,-1,16
 529 315 529 315 598 305.5 c 128,-1,17
 667 296 667 296 741.5 287.5 c 128,-1,18
 816 279 816 279 894.5 274 c 128,-1,19
 973 269 973 269 1041 269 c 0,20,21
 1084 269 1084 269 1120.5 271.5 c 128,-1,22
 1157 274 1157 274 1199 279.5 c 128,-1,23
 1241 285 1241 285 1274 297.5 c 128,-1,24
 1307 310 1307 310 1334.5 328 c 128,-1,25
 1362 346 1362 346 1377 374 c 128,-1,26
 1392 402 1392 402 1392 438 c 0,27,28
 1392 468 1392 468 1386 490 c 128,-1,29
 1380 512 1380 512 1362.5 533 c 128,-1,30
 1345 554 1345 554 1315.5 567.5 c 128,-1,31
 1286 581 1286 581 1238 589 c 128,-1,32
 1190 597 1190 597 1124 597 c 2,33,-1
 888 597 l 2,34,35
 856 597 856 597 856 640 c 2,36,-1
 856 805 l 2,37,38
 856 848 856 848 888 848 c 2,39,-1
 1124 848 l 2,40,41
 1189 848 1189 848 1237 856 c 128,-1,42
 1285 864 1285 864 1313.5 877.5 c 128,-1,43
 1342 891 1342 891 1359 911.5 c 128,-1,44
 1376 932 1376 932 1382 954 c 128,-1,45
 1388 976 1388 976 1388 1005 c 0,46,47
 1388 1037 1388 1037 1375.5 1063 c 128,-1,48
 1363 1089 1363 1089 1344.5 1105.5 c 128,-1,49
 1326 1122 1326 1122 1295 1133.5 c 128,-1,50
 1264 1145 1264 1145 1237.5 1151 c 128,-1,51
 1211 1157 1211 1157 1171.5 1160.5 c 128,-1,52
 1132 1164 1132 1164 1107 1164.5 c 128,-1,53
 1082 1165 1082 1165 1045 1165 c 0,54,55
 975 1165 975 1165 896 1160 c 128,-1,56
 817 1155 817 1155 742.5 1146.5 c 128,-1,57
 668 1138 668 1138 598.5 1128.5 c 128,-1,58
 529 1119 529 1119 464.5 1108 c 128,-1,59
 400 1097 400 1097 357 1089.5 c 128,-1,60
 314 1082 314 1082 277 1074.5 c 128,-1,61
 240 1067 240 1067 239 1067 c 0,62,63
 226 1064 226 1064 216 1064 c 0,64,65
 177 1064 177 1064 171 1108 c 2,66,-1
 148 1292 l 2,67,68
 147 1297 147 1297 147 1305 c 0,69,70
 147 1348 147 1348 200 1362 c 1,71,72
 300 1392 300 1392 586.5 1433 c 128,-1,73
 873 1474 873 1474 1047 1474 c 0,74,75
 1234 1474 1234 1474 1385 1459.5 c 128,-1,76
 1536 1445 1536 1445 1663.5 1412 c 128,-1,77
 1791 1379 1791 1379 1877 1327.5 c 128,-1,78
 1963 1276 1963 1276 2010.5 1199 c 128,-1,79
 2058 1122 2058 1122 2058 1022 c 0,80,81
 2058 890 2058 890 1977.5 814 c 128,-1,82
 1897 738 1897 738 1746 723 c 1,83,84
 1903 704 1903 704 1982.5 625.5 c 128,-1,85
 2062 547 2062 547 2062 413 c 0,86,87
 2062 288 2062 288 1989 199 c 128,-1,88
 1916 110 1916 110 1777 58.5 c 128,-1,89
 1638 7 1638 7 1458 -16.5 c 128,-1,90
 1278 -40 1278 -40 1042 -40 c 0,0,1
EndSplineSet
EndChar

StartChar: four
Encoding: 52 52 23
Width: 2076
GlyphClass: 2
Flags: W
LayerCount: 2
Fore
SplineSet
1311 -151 m 2,0,1
 1279 -151 1279 -151 1257.5 -129 c 128,-1,2
 1236 -107 1236 -107 1236 -75 c 2,3,-1
 1236 172 l 1,4,-1
 201 172 l 2,5,6
 171 172 171 172 147.5 190.5 c 128,-1,7
 124 209 124 209 124 235 c 0,8,9
 124 239 124 239 126 247 c 2,10,-1
 449 1363 l 1,11,12
 469 1438 469 1438 525 1438 c 2,13,-1
 975 1438 l 2,14,15
 1006 1438 1006 1438 1029 1419 c 128,-1,16
 1052 1400 1052 1400 1052 1373 c 0,17,18
 1052 1366 1052 1366 1051 1363 c 2,19,-1
 874 568 l 2,20,21
 873 567 873 567 873 563 c 0,22,23
 873 550 873 550 884 540.5 c 128,-1,24
 895 531 895 531 909 531 c 2,25,-1
 1236 531 l 1,26,-1
 1236 1363 l 2,27,28
 1236 1395 1236 1395 1257.5 1416.5 c 128,-1,29
 1279 1438 1279 1438 1311 1438 c 2,30,-1
 1629 1438 l 2,31,32
 1661 1438 1661 1438 1683 1416.5 c 128,-1,33
 1705 1395 1705 1395 1705 1363 c 2,34,-1
 1705 531 l 1,35,-1
 1868 531 l 2,36,37
 1900 531 1900 531 1921.5 509.5 c 128,-1,38
 1943 488 1943 488 1943 456 c 2,39,-1
 1943 247 l 2,40,41
 1943 215 1943 215 1921.5 193.5 c 128,-1,42
 1900 172 1900 172 1868 172 c 2,43,-1
 1705 172 l 1,44,-1
 1705 -75 l 2,45,46
 1705 -107 1705 -107 1683 -129 c 128,-1,47
 1661 -151 1661 -151 1629 -151 c 2,48,-1
 1311 -151 l 2,0,1
EndSplineSet
EndChar

StartChar: five
Encoding: 53 53 24
Width: 2238
GlyphClass: 2
Flags: W
LayerCount: 2
Fore
SplineSet
1050 -40 m 1,0,1
 885 -39 885 -39 604 2 c 128,-1,2
 323 43 323 43 224 72 c 1,3,4
 171 86 171 86 171 129 c 0,5,6
 171 131 171 131 177 178 c 128,-1,7
 183 225 183 225 189 274 c 128,-1,8
 195 323 195 323 195 327 c 0,9,10
 201 371 201 371 239 371 c 0,11,12
 249 371 249 371 262 368 c 0,13,14
 264 368 264 368 299.5 360.5 c 128,-1,15
 335 353 335 353 378 345 c 128,-1,16
 421 337 421 337 483 326.5 c 128,-1,17
 545 316 545 316 613.5 306.5 c 128,-1,18
 682 297 682 297 754.5 288.5 c 128,-1,19
 827 280 827 280 905 275 c 128,-1,20
 983 270 983 270 1051 270 c 0,21,22
 1433 270 1433 270 1433 487 c 0,23,24
 1433 699 1433 699 1128 699 c 0,25,26
 1044 699 1044 699 985 683 c 128,-1,27
 926 667 926 667 899.5 648.5 c 128,-1,28
 873 630 873 630 833 614 c 128,-1,29
 793 598 793 598 743 598 c 2,30,-1
 288 598 l 2,31,32
 257 598 257 598 238.5 611 c 128,-1,33
 220 624 220 624 215 639.5 c 128,-1,34
 210 655 210 655 208 680 c 2,35,36
 144 1318 l 1,37,38
 144 1378 144 1378 164.5 1408 c 128,-1,39
 185 1438 185 1438 234 1438 c 2,40,-1
 1893 1438 l 2,41,42
 1920 1438 1920 1438 1933 1421.5 c 128,-1,43
 1946 1405 1946 1405 1946 1380 c 0,44,45
 1946 1371 1946 1371 1940.5 1324 c 128,-1,46
 1935 1277 1935 1277 1928.5 1224.5 c 128,-1,47
 1922 1172 1922 1172 1922 1170 c 0,48,49
 1917 1126 1917 1126 1878 1126 c 2,50,-1
 901 1129 l 2,51,52
 864 1129 864 1129 847.5 1115 c 128,-1,53
 831 1101 831 1101 831 1057 c 2,54,-1
 834 863 l 1,55,56
 1026 934 1026 934 1241 934 c 0,57,58
 1433 934 1433 934 1581.5 910 c 128,-1,59
 1730 886 1730 886 1827.5 844 c 128,-1,60
 1925 802 1925 802 1987.5 739.5 c 128,-1,61
 2050 677 2050 677 2076.5 605.5 c 128,-1,62
 2103 534 2103 534 2103 447 c 0,63,64
 2103 351 2103 351 2068 275.5 c 128,-1,65
 2033 200 2033 200 1964.5 147 c 128,-1,66
 1896 94 1896 94 1805.5 57 c 128,-1,67
 1715 20 1715 20 1593.5 -1 c 128,-1,68
 1472 -22 1472 -22 1342 -31 c 128,-1,69
 1212 -40 1212 -40 1053 -40 c 2,70,-1
 1050 -40 l 1,0,1
EndSplineSet
EndChar

StartChar: six
Encoding: 54 54 25
Width: 2320
GlyphClass: 2
Flags: W
LayerCount: 2
Fore
SplineSet
1195 249 m 0,0,1
 1359 249 1359 249 1437.5 294.5 c 128,-1,2
 1516 340 1516 340 1516 462 c 0,3,4
 1516 580 1516 580 1454 631.5 c 128,-1,5
 1392 683 1392 683 1221 683 c 0,6,7
 1070 683 1070 683 855 641 c 1,8,-1
 855 512 l 2,9,10
 855 433 855 433 878.5 380.5 c 128,-1,11
 902 328 902 328 949 299.5 c 128,-1,12
 996 271 996 271 1054.5 260 c 128,-1,13
 1113 249 1113 249 1195 249 c 0,0,1
1180 -40 m 0,14,15
 946 -40 946 -40 756 4.5 c 128,-1,16
 566 49 566 49 427.5 136 c 128,-1,17
 289 223 289 223 213.5 359 c 128,-1,18
 138 495 138 495 138 670 c 0,19,20
 138 882 138 882 197.5 1031 c 128,-1,21
 257 1180 257 1180 389 1280.5 c 128,-1,22
 521 1381 521 1381 730.5 1428 c 128,-1,23
 940 1475 940 1475 1241 1475 c 0,24,25
 1399 1475 1399 1475 1642.5 1436 c 128,-1,26
 1886 1397 1886 1397 1987 1365 c 1,27,28
 2037 1352 2037 1352 2037 1311 c 0,29,30
 2037 1303 2037 1303 2036 1298 c 2,31,-1
 2009 1108 l 1,32,33
 2002 1066 2002 1066 1966 1066 c 0,34,35
 1956 1066 1956 1066 1944 1069 c 0,36,37
 1587 1162 1587 1162 1295 1162 c 0,38,39
 1249 1162 1249 1162 1213.5 1161 c 128,-1,40
 1178 1160 1178 1160 1140.5 1157.5 c 128,-1,41
 1103 1155 1103 1155 1075 1150 c 128,-1,42
 1047 1145 1047 1145 1018.5 1138 c 128,-1,43
 990 1131 990 1131 969.5 1120.5 c 128,-1,44
 949 1110 949 1110 930 1095.5 c 128,-1,45
 911 1081 911 1081 898 1062.5 c 128,-1,46
 885 1044 885 1044 875.5 1021 c 128,-1,47
 866 998 866 998 862 969.5 c 128,-1,48
 858 941 858 941 858 907 c 2,49,-1
 858 884 l 1,50,51
 871 886 871 886 938 896 c 128,-1,52
 1005 906 1005 906 1027 909 c 128,-1,53
 1049 912 1049 912 1099 918 c 128,-1,54
 1149 924 1149 924 1187 926 c 128,-1,55
 1225 928 1225 928 1265 928 c 0,56,57
 1502 928 1502 928 1681.5 891.5 c 128,-1,58
 1861 855 1861 855 1969.5 789.5 c 128,-1,59
 2078 724 2078 724 2132 637 c 128,-1,60
 2186 550 2186 550 2186 444 c 0,61,62
 2186 362 2186 362 2160.5 295 c 128,-1,63
 2135 228 2135 228 2089 178.5 c 128,-1,64
 2043 129 2043 129 1973.5 91 c 128,-1,65
 1904 53 1904 53 1821.5 28.5 c 128,-1,66
 1739 4 1739 4 1634.5 -11.5 c 128,-1,67
 1530 -27 1530 -27 1420 -33.5 c 128,-1,68
 1310 -40 1310 -40 1180 -40 c 0,14,15
EndSplineSet
EndChar

StartChar: seven
Encoding: 55 55 26
Width: 1523
GlyphClass: 2
Flags: W
LayerCount: 2
Fore
SplineSet
460 0 m 2,0,1
 428 0 428 0 406 22 c 128,-1,2
 384 44 384 44 385 76 c 1,3,-1
 682 1051 l 1,4,5
 683 1066 683 1066 672.5 1076.5 c 128,-1,6
 662 1087 662 1087 647 1087 c 2,7,-1
 182 1087 l 2,8,9
 150 1087 150 1087 128.5 1109 c 128,-1,10
 107 1131 107 1131 107 1163 c 2,11,-1
 107 1363 l 2,12,13
 107 1395 107 1395 128.5 1416.5 c 128,-1,14
 150 1438 150 1438 182 1438 c 2,15,-1
 1337 1438 l 2,16,17
 1369 1438 1369 1438 1391 1416.5 c 128,-1,18
 1413 1395 1413 1395 1413 1363 c 1,19,-1
 1048 76 l 1,20,21
 1046 43 1046 43 1025.5 21.5 c 128,-1,22
 1005 0 1005 0 973 0 c 2,23,-1
 460 0 l 2,0,1
EndSplineSet
EndChar

StartChar: eight
Encoding: 56 56 27
Width: 2266
GlyphClass: 2
Flags: W
LayerCount: 2
Fore
SplineSet
1400 861 m 1,0,1
 1419 892 1419 892 1439 954 c 128,-1,2
 1459 1016 1459 1016 1459 1067 c 0,3,4
 1459 1172 1459 1172 1368.5 1224.5 c 128,-1,5
 1278 1277 1278 1277 1134 1277 c 0,6,7
 810 1277 810 1277 810 1088 c 0,8,9
 810 1012 810 1012 878.5 967.5 c 128,-1,10
 947 923 947 923 1102 899 c 1,11,12
 1203 882 1203 882 1400 861 c 1,0,1
1134 205 m 0,13,14
 1329 205 1329 205 1413.5 255 c 128,-1,15
 1498 305 1498 305 1498 422 c 0,16,17
 1498 452 1498 452 1484 477 c 128,-1,18
 1470 502 1470 502 1450 520 c 128,-1,19
 1430 538 1430 538 1393 554.5 c 128,-1,20
 1356 571 1356 571 1325.5 581 c 128,-1,21
 1295 591 1295 591 1242.5 602 c 128,-1,22
 1190 613 1190 613 1156 618.5 c 128,-1,23
 1122 624 1122 624 1063 633 c 0,24,25
 936 651 936 651 837 671 c 1,26,27
 771 605 771 605 771 474 c 0,28,29
 771 330 771 330 858 267.5 c 128,-1,30
 945 205 945 205 1134 205 c 0,13,14
1134 -41 m 0,31,32
 1025 -41 1025 -41 932 -36.5 c 128,-1,33
 839 -32 839 -32 734.5 -19 c 128,-1,34
 630 -6 630 -6 547 16 c 128,-1,35
 464 38 464 38 385.5 74.5 c 128,-1,36
 307 111 307 111 254.5 160.5 c 128,-1,37
 202 210 202 210 170.5 281 c 128,-1,38
 139 352 139 352 139 440 c 0,39,40
 139 507 139 507 169.5 567.5 c 128,-1,41
 200 628 200 628 251.5 672 c 128,-1,42
 303 716 303 716 362.5 747.5 c 128,-1,43
 422 779 422 779 487 797 c 1,44,45
 205 915 205 915 205 1099 c 0,46,47
 205 1475 205 1475 1134 1475 c 0,48,49
 1227 1475 1227 1475 1313 1470 c 128,-1,50
 1399 1465 1399 1465 1490.5 1452.5 c 128,-1,51
 1582 1440 1582 1440 1659.5 1420.5 c 128,-1,52
 1737 1401 1737 1401 1807.5 1369.5 c 128,-1,53
 1878 1338 1878 1338 1926.5 1297.5 c 128,-1,54
 1975 1257 1975 1257 2004 1200 c 128,-1,55
 2033 1143 2033 1143 2033 1075 c 0,56,57
 2033 985 2033 985 1956.5 904 c 128,-1,58
 1880 823 1880 823 1785 789 c 1,59,60
 1860 763 1860 763 1918 732.5 c 128,-1,61
 1976 702 1976 702 2026 660 c 128,-1,62
 2076 618 2076 618 2103 561.5 c 128,-1,63
 2130 505 2130 505 2130 437 c 0,64,65
 2130 343 2130 343 2089 267 c 128,-1,66
 2048 191 2048 191 1973.5 140 c 128,-1,67
 1899 89 1899 89 1806 52.5 c 128,-1,68
 1713 16 1713 16 1597 -3.5 c 128,-1,69
 1481 -23 1481 -23 1369 -32 c 128,-1,70
 1257 -41 1257 -41 1134 -41 c 0,31,32
EndSplineSet
EndChar

StartChar: nine
Encoding: 57 57 28
Width: 2305
GlyphClass: 2
Flags: W
LayerCount: 2
Fore
SplineSet
1082 752 m 0,0,1
 1233 752 1233 752 1448 794 c 1,2,-1
 1448 924 l 2,3,4
 1448 1002 1448 1002 1424.5 1055 c 128,-1,5
 1401 1108 1401 1108 1354 1136 c 128,-1,6
 1307 1164 1307 1164 1248.5 1175.5 c 128,-1,7
 1190 1187 1190 1187 1108 1187 c 0,8,9
 944 1187 944 1187 865.5 1141.5 c 128,-1,10
 787 1096 787 1096 787 973 c 0,11,12
 787 855 787 855 849.5 803.5 c 128,-1,13
 912 752 912 752 1082 752 c 0,0,1
1062 -40 m 0,14,15
 905 -40 905 -40 662 -1 c 128,-1,16
 419 38 419 38 316 70 c 1,17,18
 267 84 267 84 267 124 c 0,19,20
 267 133 267 133 268 138 c 2,21,-1
 295 328 l 2,22,23
 301 369 301 369 337 369 c 0,24,25
 347 369 347 369 359 366 c 0,26,27
 712 274 712 274 1002 274 c 0,28,29
 1055 274 1055 274 1093.5 275 c 128,-1,30
 1132 276 1132 276 1173.5 279.5 c 128,-1,31
 1215 283 1215 283 1245 288.5 c 128,-1,32
 1275 294 1275 294 1305 303.5 c 128,-1,33
 1335 313 1335 313 1355.5 327 c 128,-1,34
 1376 341 1376 341 1394 360 c 128,-1,35
 1412 379 1412 379 1422.5 403.5 c 128,-1,36
 1433 428 1433 428 1439 459.5 c 128,-1,37
 1445 491 1445 491 1445 529 c 2,38,-1
 1445 552 l 1,39,40
 1437 551 1437 551 1378 541.5 c 128,-1,41
 1319 532 1319 532 1304.5 530 c 128,-1,42
 1290 528 1290 528 1242.5 521.5 c 128,-1,43
 1195 515 1195 515 1170.5 513 c 128,-1,44
 1146 511 1146 511 1108.5 509 c 128,-1,45
 1071 507 1071 507 1038 507 c 0,46,47
 801 507 801 507 624 541.5 c 128,-1,48
 447 576 447 576 340.5 639.5 c 128,-1,49
 234 703 234 703 182.5 788 c 128,-1,50
 131 873 131 873 131 979 c 0,51,52
 131 1093 131 1093 179 1179.5 c 128,-1,53
 227 1266 227 1266 311.5 1321.5 c 128,-1,54
 396 1377 396 1377 523 1412 c 128,-1,55
 650 1447 650 1447 795 1461 c 128,-1,56
 940 1475 940 1475 1123 1475 c 0,57,58
 1437 1475 1437 1475 1668.5 1398 c 128,-1,59
 1900 1321 1900 1321 2033 1159.5 c 128,-1,60
 2166 998 2166 998 2166 765 c 0,61,62
 2166 596 2166 596 2128 467.5 c 128,-1,63
 2090 339 2090 339 2008.5 241.5 c 128,-1,64
 1927 144 1927 144 1796.5 82.5 c 128,-1,65
 1666 21 1666 21 1484.5 -9.5 c 128,-1,66
 1303 -40 1303 -40 1062 -40 c 0,14,15
EndSplineSet
EndChar

StartChar: colon
Encoding: 58 58 29
Width: 670
GlyphClass: 2
Flags: W
LayerCount: 2
Fore
SplineSet
228 671 m 2,0,1
 196 671 196 671 173.5 693.5 c 128,-1,2
 151 716 151 716 151 748 c 2,3,-1
 151 936 l 2,4,5
 151 968 151 968 173.5 990.5 c 128,-1,6
 196 1013 196 1013 228 1013 c 2,7,-1
 441 1013 l 2,8,9
 473 1013 473 1013 495.5 990.5 c 128,-1,10
 518 968 518 968 518 936 c 2,11,-1
 518 748 l 2,12,13
 518 716 518 716 495.5 693.5 c 128,-1,14
 473 671 473 671 441 671 c 2,15,-1
 228 671 l 2,0,1
228 0 m 2,16,17
 196 0 196 0 173.5 22.5 c 128,-1,18
 151 45 151 45 151 77 c 2,19,-1
 151 265 l 2,20,21
 151 297 151 297 173.5 319.5 c 128,-1,22
 196 342 196 342 228 342 c 2,23,-1
 441 342 l 2,24,25
 473 342 473 342 495.5 319.5 c 128,-1,26
 518 297 518 297 518 265 c 2,27,-1
 518 77 l 2,28,29
 518 45 518 45 495.5 22.5 c 128,-1,30
 473 0 473 0 441 0 c 2,31,-1
 228 0 l 2,16,17
EndSplineSet
EndChar

StartChar: semicolon
Encoding: 59 59 30
Width: 688
GlyphClass: 2
Flags: W
LayerCount: 2
Fore
SplineSet
231 671 m 2,0,1
 199 671 199 671 176.5 693.5 c 128,-1,2
 154 716 154 716 154 748 c 2,3,-1
 154 936 l 2,4,5
 154 968 154 968 176.5 990.5 c 128,-1,6
 199 1013 199 1013 231 1013 c 2,7,-1
 444 1013 l 2,8,9
 476 1013 476 1013 498.5 990.5 c 128,-1,10
 521 968 521 968 521 936 c 2,11,-1
 521 748 l 2,12,13
 521 716 521 716 498.5 693.5 c 128,-1,14
 476 671 476 671 444 671 c 2,15,-1
 231 671 l 2,0,1
227 -336 m 0,16,17
 219 -337 219 -337 212 -337 c 0,18,19
 187 -337 187 -337 169.5 -325 c 128,-1,20
 152 -313 152 -313 152 -291 c 2,21,-1
 152 -246 l 2,22,23
 152 -227 152 -227 157.5 -215 c 128,-1,24
 163 -203 163 -203 170 -198.5 c 128,-1,25
 177 -194 177 -194 194 -186 c 128,-1,26
 211 -178 211 -178 222 -171 c 0,27,28
 267 -143 267 -143 286.5 -99.5 c 128,-1,29
 306 -56 306 -56 306 -27 c 0,30,31
 306 0 306 0 289 0 c 2,32,-1
 212 0 l 2,33,34
 184 0 184 0 168 19 c 128,-1,35
 152 38 152 38 152 67 c 2,36,-1
 152 270 l 2,37,38
 152 345 152 345 212 345 c 2,39,-1
 462 345 l 2,40,41
 494 345 494 345 516.5 322.5 c 128,-1,42
 539 300 539 300 539 268 c 2,43,-1
 539 36 l 2,44,45
 539 -49 539 -49 510 -118.5 c 128,-1,46
 481 -188 481 -188 434 -231.5 c 128,-1,47
 387 -275 387 -275 334.5 -301 c 128,-1,48
 282 -327 282 -327 227 -336 c 0,16,17
EndSplineSet
EndChar

StartChar: less
Encoding: 60 60 31
Width: 1289
GlyphClass: 2
Flags: W
LayerCount: 2
Fore
SplineSet
1093 -89 m 0,0,1
 1086 -89 1086 -89 1068 -81 c 1,2,-1
 205 392 l 2,3,4
 174 408 174 408 156 439 c 128,-1,5
 138 470 138 470 138 505 c 2,6,-1
 138 876 l 2,7,8
 138 910 138 910 156.5 939.5 c 128,-1,9
 175 969 175 969 206 986 c 2,10,-1
 1067 1449 l 2,11,12
 1080 1455 1080 1455 1092 1455 c 0,13,14
 1110 1455 1110 1455 1122.5 1442 c 128,-1,15
 1135 1429 1135 1429 1135 1409 c 2,16,-1
 1135 1048 l 2,17,18
 1135 1014 1135 1014 1116.5 986 c 128,-1,19
 1098 958 1098 958 1066 943 c 2,20,-1
 531 685 l 1,21,22
 521 679 521 679 521 669 c 0,23,24
 521 658 521 658 531 654 c 2,25,-1
 1066 400 l 2,26,27
 1098 384 1098 384 1116.5 355 c 128,-1,28
 1135 326 1135 326 1135 292 c 2,29,-1
 1135 -44 l 2,30,31
 1135 -64 1135 -64 1122.5 -76.5 c 128,-1,32
 1110 -89 1110 -89 1093 -89 c 0,0,1
EndSplineSet
EndChar

StartChar: equal
Encoding: 61 61 32
Width: 1148
GlyphClass: 2
Flags: W
LayerCount: 2
Fore
SplineSet
218 621 m 2,0,1
 186 621 186 621 165 642 c 128,-1,2
 144 663 144 663 144 695 c 2,3,-1
 144 788 l 2,4,5
 144 820 144 820 165 841 c 128,-1,6
 186 862 186 862 218 862 c 2,7,-1
 930 862 l 2,8,9
 962 862 962 862 983 841 c 128,-1,10
 1004 820 1004 820 1004 788 c 2,11,-1
 1004 695 l 2,12,13
 1004 663 1004 663 983 642 c 128,-1,14
 962 621 962 621 930 621 c 2,15,-1
 218 621 l 2,0,1
218 228 m 2,16,17
 186 228 186 228 165 249 c 128,-1,18
 144 270 144 270 144 302 c 2,19,-1
 144 394 l 2,20,21
 144 426 144 426 165 447 c 128,-1,22
 186 468 186 468 218 468 c 2,23,-1
 930 468 l 2,24,25
 962 468 962 468 983 447 c 128,-1,26
 1004 426 1004 426 1004 394 c 2,27,-1
 1004 302 l 2,28,29
 1004 270 1004 270 983 249 c 128,-1,30
 962 228 962 228 930 228 c 2,31,-1
 218 228 l 2,16,17
EndSplineSet
EndChar

StartChar: greater
Encoding: 62 62 33
Width: 1290
GlyphClass: 2
Flags: W
LayerCount: 2
Fore
SplineSet
198 -89 m 0,0,1
 180 -89 180 -89 167 -76 c 128,-1,2
 154 -63 154 -63 154 -43 c 2,3,-1
 154 318 l 2,4,5
 154 352 154 352 172.5 380.5 c 128,-1,6
 191 409 191 409 223 423 c 1,7,-1
 758 682 l 1,8,9
 768 688 768 688 768 697 c 0,10,11
 768 709 768 709 758 713 c 2,12,-1
 223 967 l 2,13,14
 192 982 192 982 173 1011 c 128,-1,15
 154 1040 154 1040 154 1074 c 2,16,-1
 154 1410 l 2,17,18
 154 1429 154 1429 166.5 1442 c 128,-1,19
 179 1455 179 1455 196 1455 c 0,20,21
 207 1455 207 1455 221 1447 c 2,22,-1
 1084 974 l 2,23,24
 1115 958 1115 958 1133 927.5 c 128,-1,25
 1151 897 1151 897 1151 862 c 2,26,-1
 1151 491 l 2,27,28
 1151 457 1151 457 1132.5 427 c 128,-1,29
 1114 397 1114 397 1083 380 c 2,30,-1
 222 -82 l 2,31,32
 211 -89 211 -89 198 -89 c 0,0,1
EndSplineSet
EndChar

StartChar: question
Encoding: 63 63 34
Width: 1879
GlyphClass: 2
Flags: W
LayerCount: 2
Fore
SplineSet
627 0 m 2,0,1
 595 0 595 0 574 21 c 128,-1,2
 553 42 553 42 553 74 c 2,3,-1
 553 260 l 2,4,5
 553 292 553 292 574 313 c 128,-1,6
 595 334 595 334 627 334 c 2,7,-1
 846 334 l 2,8,9
 878 334 878 334 899 313 c 128,-1,10
 920 292 920 292 920 260 c 2,11,-1
 920 74 l 2,12,13
 920 42 920 42 899 21 c 128,-1,14
 878 0 878 0 846 0 c 2,15,-1
 627 0 l 2,0,1
689 451 m 0,16,17
 682 446 682 446 671 446 c 0,18,19
 657 446 657 446 642.5 456.5 c 128,-1,20
 628 467 628 467 616 489 c 1,21,22
 585 531 585 531 550 585 c 1,23,24
 539 608 539 608 539 627 c 0,25,26
 539 635 539 635 541.5 642.5 c 128,-1,27
 544 650 544 650 547 655 c 128,-1,28
 550 660 550 660 555.5 665.5 c 128,-1,29
 561 671 561 671 564 673 c 128,-1,30
 567 675 567 675 573 679 c 0,31,32
 662 752 662 752 749.5 784.5 c 128,-1,33
 837 817 837 817 1006 828 c 0,34,35
 1241 844 1241 844 1241 978 c 0,36,37
 1241 994 1241 994 1239 1007.5 c 128,-1,38
 1237 1021 1237 1021 1232.5 1034 c 128,-1,39
 1228 1047 1228 1047 1221 1058 c 128,-1,40
 1214 1069 1214 1069 1203.5 1079 c 128,-1,41
 1193 1089 1193 1089 1179.5 1097.5 c 128,-1,42
 1166 1106 1166 1106 1148.5 1113 c 128,-1,43
 1131 1120 1131 1120 1109.5 1125 c 128,-1,44
 1088 1130 1088 1130 1062.5 1133.5 c 128,-1,45
 1037 1137 1037 1137 1006 1139 c 128,-1,46
 975 1141 975 1141 940 1141 c 0,47,48
 629 1141 629 1141 286 1033 c 0,49,50
 279 1031 279 1031 272 1030 c 128,-1,51
 265 1029 265 1029 259 1029 c 0,52,53
 249 1029 249 1029 240 1031 c 128,-1,54
 231 1033 231 1033 222.5 1037.5 c 128,-1,55
 214 1042 214 1042 207 1048 c 128,-1,56
 200 1054 200 1054 194 1062 c 128,-1,57
 188 1070 188 1070 184 1079 c 2,58,-1
 109 1250 l 2,59,60
 103 1263 103 1263 103 1277 c 0,61,62
 103 1298 103 1298 116 1316 c 128,-1,63
 129 1334 129 1334 150 1342 c 0,64,65
 520 1475 520 1475 811 1475 c 0,66,67
 977 1475 977 1475 1115.5 1459.5 c 128,-1,68
 1254 1444 1254 1444 1372.5 1408.5 c 128,-1,69
 1491 1373 1491 1373 1572.5 1318.5 c 128,-1,70
 1654 1264 1654 1264 1700 1183 c 128,-1,71
 1746 1102 1746 1102 1746 999 c 0,72,73
 1746 846 1746 846 1666 752 c 0,74,75
 1567 636 1567 636 1313 596 c 0,76,77
 1227 583 1227 583 964 564 c 0,78,79
 898 559 898 559 849.5 545 c 128,-1,80
 801 531 801 531 780.5 518 c 128,-1,81
 760 505 760 505 731.5 482.5 c 128,-1,82
 703 460 703 460 689 451 c 0,16,17
EndSplineSet
EndChar

StartChar: at
Encoding: 64 64 35
Width: 2249
GlyphClass: 2
Flags: W
LayerCount: 2
Fore
SplineSet
1122 283 m 0,0,1
 1189 283 1189 283 1247 297 c 128,-1,2
 1305 311 1305 311 1355.5 342 c 128,-1,3
 1406 373 1406 373 1435.5 429.5 c 128,-1,4
 1465 486 1465 486 1465 564 c 0,5,6
 1465 636 1465 636 1435 691.5 c 128,-1,7
 1405 747 1405 747 1354.5 778 c 128,-1,8
 1304 809 1304 809 1245 824.5 c 128,-1,9
 1186 840 1186 840 1121 840 c 0,10,11
 1042 840 1042 840 983 816.5 c 128,-1,12
 924 793 924 793 890.5 752.5 c 128,-1,13
 857 712 857 712 841.5 663.5 c 128,-1,14
 826 615 826 615 826 559 c 0,15,16
 826 441 826 441 901.5 362 c 128,-1,17
 977 283 977 283 1122 283 c 0,0,1
1070 -285 m 0,18,19
 845 -285 845 -285 664.5 -213 c 128,-1,20
 484 -141 484 -141 371 -18.5 c 128,-1,21
 258 104 258 104 198.5 261 c 128,-1,22
 139 418 139 418 139 595 c 0,23,24
 139 780 139 780 210 941 c 128,-1,25
 281 1102 281 1102 409 1220.5 c 128,-1,26
 537 1339 537 1339 727.5 1407 c 128,-1,27
 918 1475 918 1475 1146 1475 c 0,28,29
 1327 1475 1327 1475 1483 1428.5 c 128,-1,30
 1639 1382 1639 1382 1753 1300 c 128,-1,31
 1867 1218 1867 1218 1948 1107.5 c 128,-1,32
 2029 997 2029 997 2069.5 868.5 c 128,-1,33
 2110 740 2110 740 2111 601 c 0,34,35
 2111 499 2111 499 2092.5 416.5 c 128,-1,36
 2074 334 2074 334 2043.5 281 c 128,-1,37
 2013 228 2013 228 1971.5 192.5 c 128,-1,38
 1930 157 1930 157 1886.5 142 c 128,-1,39
 1843 127 1843 127 1796 127 c 0,40,41
 1705 127 1705 127 1634.5 178.5 c 128,-1,42
 1564 230 1564 230 1560 301 c 1,43,44
 1555 339 1555 339 1543 339 c 0,45,46
 1541 339 1541 339 1538.5 337.5 c 128,-1,47
 1536 336 1536 336 1534 333 c 128,-1,48
 1532 330 1532 330 1530 327.5 c 128,-1,49
 1528 325 1528 325 1525.5 321 c 128,-1,50
 1523 317 1523 317 1522 315 c 0,51,52
 1382 101 1382 101 1114 101 c 0,53,54
 1006 101 1006 101 910 132 c 128,-1,55
 814 163 814 163 739.5 220.5 c 128,-1,56
 665 278 665 278 621.5 369.5 c 128,-1,57
 578 461 578 461 578 573 c 0,58,59
 578 715 578 715 646.5 820.5 c 128,-1,60
 715 926 715 926 829.5 978.5 c 128,-1,61
 944 1031 944 1031 1087 1031 c 0,62,63
 1236 1031 1236 1031 1349.5 967 c 128,-1,64
 1463 903 1463 903 1510 810 c 0,65,66
 1516 798 1516 798 1520 798 c 0,67,68
 1523 798 1523 798 1526 811 c 1,69,-1
 1545 936 l 1,70,71
 1554 986 1554 986 1622 986 c 2,72,-1
 1638 986 l 2,73,74
 1666 986 1666 986 1685 968.5 c 128,-1,75
 1704 951 1704 951 1704 925 c 2,76,-1
 1704 403 l 2,77,78
 1704 338 1704 338 1731 307.5 c 128,-1,79
 1758 277 1758 277 1799 277 c 0,80,81
 1823 277 1823 277 1839.5 287 c 128,-1,82
 1856 297 1856 297 1873.5 327.5 c 128,-1,83
 1891 358 1891 358 1900 427 c 128,-1,84
 1909 496 1909 496 1909 601 c 0,85,86
 1909 743 1909 743 1860 866 c 128,-1,87
 1811 989 1811 989 1718 1083 c 128,-1,88
 1625 1177 1625 1177 1479 1231 c 128,-1,89
 1333 1285 1333 1285 1150 1285 c 0,90,91
 965 1285 965 1285 816.5 1230 c 128,-1,92
 668 1175 668 1175 573 1080 c 128,-1,93
 478 985 478 985 428 859.5 c 128,-1,94
 378 734 378 734 378 590 c 0,95,96
 378 483 378 483 403.5 383.5 c 128,-1,97
 429 284 429 284 486 194.5 c 128,-1,98
 543 105 543 105 625 38.5 c 128,-1,99
 707 -28 707 -28 829 -67 c 128,-1,100
 951 -106 951 -106 1098 -106 c 0,101,102
 1263 -106 1263 -106 1404 -59 c 1,103,104
 1417 -56 1417 -56 1429.5 -65 c 128,-1,105
 1442 -74 1442 -74 1446 -90 c 2,106,-1
 1468 -168 l 2,107,108
 1471 -181 1471 -181 1468 -192.5 c 128,-1,109
 1465 -204 1465 -204 1457.5 -212.5 c 128,-1,110
 1450 -221 1450 -221 1442 -224 c 0,111,112
 1274 -285 1274 -285 1070 -285 c 0,18,19
EndSplineSet
EndChar

StartChar: A
Encoding: 65 65 36
Width: 2440
GlyphClass: 2
Flags: W
LayerCount: 2
Fore
SplineSet
956 534 m 2,0,1
 1351 534 l 2,2,3
 1360 534 1360 534 1366.5 540 c 128,-1,4
 1373 546 1373 546 1373 555 c 0,5,6
 1373 560 1373 560 1371 564 c 2,7,-1
 1170 1045 l 2,8,9
 1167 1054 1167 1054 1159 1054 c 0,10,11
 1150 1054 1150 1054 1147 1046 c 2,12,-1
 936 563 l 2,13,14
 934 559 934 559 934 555 c 0,15,16
 934 547 934 547 940.5 540.5 c 128,-1,17
 947 534 947 534 956 534 c 2,0,1
152 0 m 2,18,19
 131 0 131 0 118 13.5 c 128,-1,20
 105 27 105 27 105 46 c 0,21,22
 105 59 105 59 111 69 c 2,23,-1
 751 1369 l 2,24,25
 767 1400 767 1400 796.5 1419 c 128,-1,26
 826 1438 826 1438 860 1438 c 2,27,-1
 1593 1438 l 2,28,29
 1627 1438 1627 1438 1656.5 1419 c 128,-1,30
 1686 1400 1686 1400 1701 1369 c 2,31,-1
 2327 69 l 1,32,33
 2333 53 2333 53 2333 46 c 0,34,35
 2333 27 2333 27 2319 13.5 c 128,-1,36
 2305 0 2305 0 2284 0 c 2,37,-1
 1666 0 l 2,38,39
 1592 0 1592 0 1564 58 c 1,40,-1
 1512 181 l 2,41,42
 1512 182 1512 182 1509 188.5 c 128,-1,43
 1506 195 1506 195 1505 196 c 128,-1,44
 1504 197 1504 197 1501 201 c 128,-1,45
 1498 205 1498 205 1495 206 c 128,-1,46
 1492 207 1492 207 1487 208 c 128,-1,47
 1482 209 1482 209 1475 209 c 2,48,-1
 814 209 l 2,49,50
 805 209 805 209 799 207.5 c 128,-1,51
 793 206 793 206 789 202.5 c 128,-1,52
 785 199 785 199 783.5 196 c 128,-1,53
 782 193 782 193 779 186 c 0,54,55
 777 182 777 182 776 180 c 2,56,-1
 727 59 l 1,57,58
 702 0 702 0 629 0 c 2,59,-1
 152 0 l 2,18,19
EndSplineSet
EndChar

StartChar: B
Encoding: 66 66 37
Width: 2391
GlyphClass: 2
Flags: W
LayerCount: 2
Fore
SplineSet
865 861 m 2,0,1
 1279 861 l 1,2,3
 1410 865 1410 865 1463.5 892 c 128,-1,4
 1517 919 1517 919 1517 997 c 0,5,6
 1517 1022 1517 1022 1511 1042 c 128,-1,7
 1505 1062 1505 1062 1496.5 1076.5 c 128,-1,8
 1488 1091 1488 1091 1471 1102.5 c 128,-1,9
 1454 1114 1454 1114 1440 1121.5 c 128,-1,10
 1426 1129 1426 1129 1399.5 1134 c 128,-1,11
 1373 1139 1373 1139 1355.5 1141.5 c 128,-1,12
 1338 1144 1338 1144 1305.5 1145.5 c 128,-1,13
 1273 1147 1273 1147 1254.5 1147 c 128,-1,14
 1236 1147 1236 1147 1199 1147 c 2,15,-1
 865 1147 l 2,16,17
 850 1147 850 1147 839 1136 c 128,-1,18
 828 1125 828 1125 828 1110 c 2,19,-1
 828 902 l 2,20,21
 828 885 828 885 839 873 c 128,-1,22
 850 861 850 861 865 861 c 2,0,1
865 334 m 2,23,-1
 1210 334 l 2,24,25
 1275 334 1275 334 1320.5 336.5 c 128,-1,26
 1366 339 1366 339 1417 348.5 c 128,-1,27
 1468 358 1468 358 1499 374.5 c 128,-1,28
 1530 391 1530 391 1550.5 422 c 128,-1,29
 1571 453 1571 453 1571 496 c 0,30,31
 1571 536 1571 536 1558.5 563 c 128,-1,32
 1546 590 1546 590 1524 606.5 c 128,-1,33
 1502 623 1502 623 1461 631.5 c 128,-1,34
 1420 640 1420 640 1376 643 c 128,-1,35
 1332 646 1332 646 1262 646 c 2,36,-1
 865 646 l 2,37,38
 850 646 850 646 839 635 c 128,-1,39
 828 624 828 624 828 609 c 2,40,-1
 828 371 l 2,41,42
 828 356 828 356 839 345 c 128,-1,43
 850 334 850 334 865 334 c 2,23,-1
236 0 m 2,44,45
 204 0 204 0 181.5 22.5 c 128,-1,46
 159 45 159 45 159 77 c 2,47,-1
 159 1359 l 2,48,49
 159 1391 159 1391 181.5 1414.5 c 128,-1,50
 204 1438 204 1438 236 1438 c 2,51,-1
 1406 1438 l 2,52,53
 2157 1438 2157 1438 2157 1040 c 0,54,55
 2157 887 2157 887 1988 788 c 0,56,57
 1979 782 1979 782 1979 773 c 0,58,59
 1979 771 1979 771 1979.5 769.5 c 128,-1,60
 1980 768 1980 768 1980.5 766.5 c 128,-1,61
 1981 765 1981 765 1982 763.5 c 128,-1,62
 1983 762 1983 762 1984.5 761 c 128,-1,63
 1986 760 1986 760 1987.5 759 c 128,-1,64
 1989 758 1989 758 1991 757 c 0,65,66
 2255 649 2255 649 2255 424 c 0,67,68
 2255 0 2255 0 1361 0 c 2,69,-1
 236 0 l 2,44,45
EndSplineSet
EndChar

StartChar: C
Encoding: 67 67 38
Width: 2475
GlyphClass: 2
Flags: W
LayerCount: 2
Fore
SplineSet
1320 -41 m 0,0,1
 1189 -41 1189 -41 1071.5 -31.5 c 128,-1,2
 954 -22 954 -22 832.5 2.5 c 128,-1,3
 711 27 711 27 610 64.5 c 128,-1,4
 509 102 509 102 419.5 162 c 128,-1,5
 330 222 330 222 268 299.5 c 128,-1,6
 206 377 206 377 170.5 484 c 128,-1,7
 135 591 135 591 135 719 c 0,8,9
 135 846 135 846 170.5 951.5 c 128,-1,10
 206 1057 206 1057 268 1134 c 128,-1,11
 330 1211 330 1211 419.5 1270.5 c 128,-1,12
 509 1330 509 1330 610 1368 c 128,-1,13
 711 1406 711 1406 832 1430.5 c 128,-1,14
 953 1455 953 1455 1071.5 1465 c 128,-1,15
 1190 1475 1190 1475 1320 1475 c 0,16,17
 1462 1475 1462 1475 1592 1460 c 128,-1,18
 1722 1445 1722 1445 1851 1408 c 128,-1,19
 1980 1371 1980 1371 2076.5 1314 c 128,-1,20
 2173 1257 2173 1257 2238.5 1166 c 128,-1,21
 2304 1075 2304 1075 2318 959 c 1,22,-1
 2318 952 l 1,23,24
 2319 946 2319 946 2319 945 c 0,25,26
 2317 936 2317 936 2306 932 c 1,27,28
 2280 929 2280 929 1844 899 c 0,29,30
 1840 899 1840 899 1836 898.5 c 128,-1,31
 1832 898 1832 898 1828 898 c 0,32,33
 1796 898 1796 898 1773 911.5 c 128,-1,34
 1750 925 1750 925 1730 956 c 0,35,36
 1680 1034 1680 1034 1582 1071 c 128,-1,37
 1484 1108 1484 1108 1320 1108 c 1,38,39
 1214 1106 1214 1106 1133.5 1085.5 c 128,-1,40
 1053 1065 1053 1065 991 1021 c 128,-1,41
 929 977 929 977 896.5 901 c 128,-1,42
 864 825 864 825 864 719 c 0,43,44
 864 631 864 631 886 563.5 c 128,-1,45
 908 496 908 496 946.5 453 c 128,-1,46
 985 410 985 410 1043.5 382 c 128,-1,47
 1102 354 1102 354 1168.5 342.5 c 128,-1,48
 1235 331 1235 331 1320 329 c 1,49,50
 1494 329 1494 329 1593 370 c 128,-1,51
 1692 411 1692 411 1737 494 c 1,52,53
 1753 526 1753 526 1774.5 541 c 128,-1,54
 1796 556 1796 556 1829 556 c 0,55,56
 1830 556 1830 556 1832 555.5 c 128,-1,57
 1834 555 1834 555 1835.5 555 c 128,-1,58
 1837 555 1837 555 1838.5 555 c 128,-1,59
 1840 555 1840 555 1842 555 c 0,60,61
 1843 555 1843 555 1947.5 546 c 128,-1,62
 2052 537 2052 537 2162.5 527.5 c 128,-1,63
 2273 518 2273 518 2284 516 c 1,64,65
 2301 515 2301 515 2313.5 503 c 128,-1,66
 2326 491 2326 491 2329 474 c 1,67,-1
 2332 435 l 1,68,69
 2325 326 2325 326 2258 241 c 128,-1,70
 2191 156 2191 156 2090.5 104 c 128,-1,71
 1990 52 1990 52 1855.5 18.5 c 128,-1,72
 1721 -15 1721 -15 1590.5 -28 c 128,-1,73
 1460 -41 1460 -41 1320 -41 c 0,0,1
EndSplineSet
EndChar

StartChar: D
Encoding: 68 68 39
Width: 2421
GlyphClass: 2
Flags: W
LayerCount: 2
Fore
SplineSet
235 0 m 2,0,1
 203 0 203 0 181 22 c 128,-1,2
 159 44 159 44 159 76 c 2,3,-1
 159 1361 l 2,4,5
 159 1393 159 1393 181 1415.5 c 128,-1,6
 203 1438 203 1438 235 1438 c 2,7,-1
 1321 1438 l 2,8,9
 1481 1438 1481 1438 1618 1416.5 c 128,-1,10
 1755 1395 1755 1395 1879.5 1343 c 128,-1,11
 2004 1291 2004 1291 2091.5 1212 c 128,-1,12
 2179 1133 2179 1133 2230.5 1010 c 128,-1,13
 2282 887 2282 887 2282 731 c 0,14,15
 2282 616 2282 616 2263.5 521.5 c 128,-1,16
 2245 427 2245 427 2215.5 356.5 c 128,-1,17
 2186 286 2186 286 2133.5 230.5 c 128,-1,18
 2081 175 2081 175 2029.5 138 c 128,-1,19
 1978 101 1978 101 1898.5 74.5 c 128,-1,20
 1819 48 1819 48 1751.5 34 c 128,-1,21
 1684 20 1684 20 1584.5 12 c 128,-1,22
 1485 4 1485 4 1408 2 c 128,-1,23
 1331 0 1331 0 1218 0 c 2,24,-1
 235 0 l 2,0,1
864 346 m 0,25,26
 879 346 879 346 902 346 c 128,-1,27
 925 346 925 346 955 346 c 0,28,29
 969 346 969 346 986 346 c 128,-1,30
 1003 346 1003 346 1019 346 c 128,-1,31
 1035 346 1035 346 1051 346 c 128,-1,32
 1067 346 1067 346 1081.5 346 c 128,-1,33
 1096 346 1096 346 1108.5 346 c 128,-1,34
 1121 346 1121 346 1132.5 346 c 128,-1,35
 1144 346 1144 346 1151 346 c 0,36,37
 1218 346 1218 346 1267 349 c 128,-1,38
 1316 352 1316 352 1368 361.5 c 128,-1,39
 1420 371 1420 371 1456 388 c 128,-1,40
 1492 405 1492 405 1525 433.5 c 128,-1,41
 1558 462 1558 462 1578 502 c 128,-1,42
 1598 542 1598 542 1609.5 598.5 c 128,-1,43
 1621 655 1621 655 1621 728 c 0,44,45
 1621 821 1621 821 1596 889 c 128,-1,46
 1571 957 1571 957 1531.5 996.5 c 128,-1,47
 1492 1036 1492 1036 1431.5 1060 c 128,-1,48
 1371 1084 1371 1084 1312 1091.5 c 128,-1,49
 1253 1099 1253 1099 1178 1099 c 2,50,-1
 863 1099 l 2,51,52
 850 1099 850 1099 839 1088.5 c 128,-1,53
 828 1078 828 1078 828 1065 c 2,54,-1
 828 381 l 2,55,56
 828 368 828 368 839.5 357 c 128,-1,57
 851 346 851 346 864 346 c 0,25,26
EndSplineSet
EndChar

StartChar: E
Encoding: 69 69 40
Width: 2208
GlyphClass: 2
Flags: W
LayerCount: 2
Fore
SplineSet
235 0 m 2,0,1
 203 0 203 0 181 22 c 128,-1,2
 159 44 159 44 159 76 c 2,3,-1
 159 1361 l 2,4,5
 159 1393 159 1393 181 1415.5 c 128,-1,6
 203 1438 203 1438 235 1438 c 2,7,-1
 1929 1438 l 2,8,9
 1961 1438 1961 1438 1982.5 1415.5 c 128,-1,10
 2004 1393 2004 1393 2004 1361 c 2,11,-1
 2004 1171 l 2,12,13
 2004 1139 2004 1139 1982.5 1116.5 c 128,-1,14
 1961 1094 1961 1094 1929 1094 c 2,15,-1
 897 1094 l 2,16,17
 865 1094 865 1094 865 1067 c 2,18,-1
 865 890 l 2,19,20
 865 878 865 878 873.5 870.5 c 128,-1,21
 882 863 882 863 895 863 c 2,22,-1
 1841 863 l 2,23,24
 1873 863 1873 863 1894.5 840.5 c 128,-1,25
 1916 818 1916 818 1916 786 c 2,26,-1
 1916 675 l 2,27,28
 1916 643 1916 643 1894.5 620.5 c 128,-1,29
 1873 598 1873 598 1841 598 c 2,30,-1
 896 598 l 2,31,32
 865 598 865 598 865 572 c 2,33,-1
 865 364 l 2,34,35
 865 339 865 339 895 339 c 2,36,-1
 1991 339 l 2,37,38
 2023 339 2023 339 2044.5 316.5 c 128,-1,39
 2066 294 2066 294 2066 262 c 2,40,-1
 2066 77 l 2,41,42
 2066 45 2066 45 2044.5 22.5 c 128,-1,43
 2023 0 2023 0 1991 0 c 2,44,-1
 235 0 l 2,0,1
EndSplineSet
EndChar

StartChar: F
Encoding: 70 70 41
Width: 2095
GlyphClass: 2
Flags: W
LayerCount: 2
Fore
SplineSet
232 0 m 2,0,1
 200 0 200 0 178.5 22 c 128,-1,2
 157 44 157 44 157 76 c 2,3,-1
 157 1361 l 2,4,5
 157 1393 157 1393 178.5 1415.5 c 128,-1,6
 200 1438 200 1438 232 1438 c 2,7,-1
 1947 1438 l 2,8,9
 1979 1438 1979 1438 2001 1415.5 c 128,-1,10
 2023 1393 2023 1393 2023 1361 c 2,11,-1
 2023 1166 l 2,12,13
 2023 1134 2023 1134 2001 1111.5 c 128,-1,14
 1979 1089 1979 1089 1947 1089 c 2,15,-1
 897 1089 l 2,16,17
 882 1089 882 1089 872 1078.5 c 128,-1,18
 862 1068 862 1068 862 1053 c 2,19,-1
 862 842 l 2,20,21
 862 829 862 829 872 819 c 128,-1,22
 882 809 882 809 895 809 c 2,23,-1
 1637 809 l 2,24,25
 1669 809 1669 809 1691 786.5 c 128,-1,26
 1713 764 1713 764 1713 732 c 2,27,-1
 1713 601 l 2,28,29
 1713 569 1713 569 1691 546.5 c 128,-1,30
 1669 524 1669 524 1637 524 c 2,31,-1
 896 524 l 2,32,33
 883 524 883 524 872.5 513.5 c 128,-1,34
 862 503 862 503 862 490 c 2,35,-1
 862 76 l 2,36,37
 862 44 862 44 840.5 22 c 128,-1,38
 819 0 819 0 787 0 c 2,39,-1
 232 0 l 2,0,1
EndSplineSet
EndChar

StartChar: G
Encoding: 71 71 42
Width: 2485
GlyphClass: 2
Flags: W
LayerCount: 2
Fore
SplineSet
1235 -41 m 0,0,1
 1061 -41 1061 -41 906 -17 c 128,-1,2
 751 7 751 7 607.5 63.5 c 128,-1,3
 464 120 464 120 361 205.5 c 128,-1,4
 258 291 258 291 196.5 422.5 c 128,-1,5
 135 554 135 554 135 719 c 0,6,7
 135 846 135 846 170.5 951.5 c 128,-1,8
 206 1057 206 1057 268 1134 c 128,-1,9
 330 1211 330 1211 419.5 1270.5 c 128,-1,10
 509 1330 509 1330 610 1368 c 128,-1,11
 711 1406 711 1406 832 1430.5 c 128,-1,12
 953 1455 953 1455 1071.5 1465 c 128,-1,13
 1190 1475 1190 1475 1320 1475 c 0,14,15
 1460 1475 1460 1475 1588 1461.5 c 128,-1,16
 1716 1448 1716 1448 1845 1413 c 128,-1,17
 1974 1378 1974 1378 2071.5 1324.5 c 128,-1,18
 2169 1271 2169 1271 2237 1185 c 128,-1,19
 2305 1099 2305 1099 2321 989 c 0,20,21
 2323 971 2323 971 2323 963 c 0,22,23
 2323 952 2323 952 2309 950 c 0,24,25
 2119 936 2119 936 2000 927.5 c 128,-1,26
 1881 919 1881 919 1860 917 c 128,-1,27
 1839 915 1839 915 1837 915 c 0,28,29
 1800 915 1800 915 1776 929.5 c 128,-1,30
 1752 944 1752 944 1728 976 c 0,31,32
 1619 1123 1619 1123 1320 1123 c 1,33,34
 864 1115 864 1115 864 719 c 0,35,36
 864 511 864 511 981 414.5 c 128,-1,37
 1098 318 1098 318 1306 318 c 0,38,39
 1405 318 1405 318 1485 336 c 128,-1,40
 1565 354 1565 354 1611 380 c 128,-1,41
 1657 406 1657 406 1688 436.5 c 128,-1,42
 1719 467 1719 467 1730 490 c 128,-1,43
 1741 513 1741 513 1741 527 c 0,44,45
 1741 538 1741 538 1734 547 c 128,-1,46
 1727 556 1727 556 1717 556 c 2,47,-1
 1465 556 l 2,48,49
 1433 556 1433 556 1410.5 578 c 128,-1,50
 1388 600 1388 600 1388 632 c 2,51,-1
 1388 701 l 2,52,53
 1388 733 1388 733 1410.5 755 c 128,-1,54
 1433 777 1433 777 1465 777 c 2,55,-1
 2251 777 l 2,56,57
 2283 777 2283 777 2305.5 754.5 c 128,-1,58
 2328 732 2328 732 2328 700 c 2,59,-1
 2328 77 l 2,60,61
 2328 45 2328 45 2306.5 22.5 c 128,-1,62
 2285 0 2285 0 2253 0 c 0,63,64
 2167 0 2167 0 2138 70 c 0,65,66
 2138 72 2138 72 2098.5 169.5 c 128,-1,67
 2059 267 2059 267 2058 271 c 0,68,69
 2054 285 2054 285 2043 285 c 0,70,71
 2035 285 2035 285 2028 275 c 0,72,73
 1978 193 1978 193 1895 132 c 128,-1,74
 1812 71 1812 71 1728.5 39 c 128,-1,75
 1645 7 1645 7 1544.5 -12 c 128,-1,76
 1444 -31 1444 -31 1375 -36 c 128,-1,77
 1306 -41 1306 -41 1235 -41 c 0,0,1
EndSplineSet
EndChar

StartChar: H
Encoding: 72 72 43
Width: 2391
GlyphClass: 2
Flags: W
LayerCount: 2
Fore
SplineSet
235 0 m 2,0,1
 203 0 203 0 181 22 c 128,-1,2
 159 44 159 44 159 76 c 2,3,-1
 159 1363 l 2,4,5
 159 1395 159 1395 181 1416.5 c 128,-1,6
 203 1438 203 1438 235 1438 c 2,7,-1
 731 1438 l 2,8,9
 763 1438 763 1438 784.5 1416.5 c 128,-1,10
 806 1395 806 1395 806 1363 c 2,11,-1
 806 939 l 2,12,13
 806 926 806 926 816.5 916 c 128,-1,14
 827 906 827 906 840 906 c 2,15,-1
 1535 906 l 2,16,17
 1548 906 1548 906 1558.5 916.5 c 128,-1,18
 1569 927 1569 927 1569 940 c 2,19,-1
 1569 1363 l 2,20,21
 1569 1395 1569 1395 1591 1416.5 c 128,-1,22
 1613 1438 1613 1438 1645 1438 c 2,23,-1
 2155 1438 l 2,24,25
 2187 1438 2187 1438 2209 1416.5 c 128,-1,26
 2231 1395 2231 1395 2231 1363 c 2,27,-1
 2231 76 l 2,28,29
 2231 44 2231 44 2209 22 c 128,-1,30
 2187 0 2187 0 2155 0 c 2,31,-1
 1643 0 l 2,32,33
 1611 0 1611 0 1589.5 22 c 128,-1,34
 1568 44 1568 44 1568 76 c 2,35,-1
 1568 537 l 2,36,37
 1568 550 1568 550 1557.5 560.5 c 128,-1,38
 1547 571 1547 571 1534 571 c 2,39,-1
 845 571 l 2,40,41
 832 571 832 571 821.5 561 c 128,-1,42
 811 551 811 551 811 538 c 2,43,-1
 811 76 l 2,44,45
 811 44 811 44 789.5 22 c 128,-1,46
 768 0 768 0 736 0 c 2,47,-1
 235 0 l 2,0,1
EndSplineSet
EndChar

StartChar: I
Encoding: 73 73 44
Width: 1001
GlyphClass: 2
Flags: W
LayerCount: 2
Fore
SplineSet
235 0 m 2,0,1
 203 0 203 0 181 22 c 128,-1,2
 159 44 159 44 159 76 c 2,3,-1
 159 1363 l 2,4,5
 159 1395 159 1395 181 1416.5 c 128,-1,6
 203 1438 203 1438 235 1438 c 2,7,-1
 766 1438 l 2,8,9
 798 1438 798 1438 819.5 1416.5 c 128,-1,10
 841 1395 841 1395 841 1363 c 2,11,-1
 841 76 l 2,12,13
 841 44 841 44 819.5 22 c 128,-1,14
 798 0 798 0 766 0 c 2,15,-1
 235 0 l 2,0,1
EndSplineSet
EndChar

StartChar: J
Encoding: 74 74 45
Width: 1401
GlyphClass: 2
Flags: W
LayerCount: 2
Fore
SplineSet
146 -174 m 0,0,1
 132 -174 132 -174 121 -162.5 c 128,-1,2
 110 -151 110 -151 110 -135 c 2,3,-1
 110 150 l 2,4,5
 110 168 110 168 120.5 179 c 128,-1,6
 131 190 131 190 146 191 c 0,7,8
 238 194 238 194 303.5 213 c 128,-1,9
 369 232 369 232 421.5 274 c 128,-1,10
 474 316 474 316 500.5 392 c 128,-1,11
 527 468 527 468 527 578 c 2,12,-1
 527 1397 l 2,13,14
 527 1414 527 1414 539 1426 c 128,-1,15
 551 1438 551 1438 568 1438 c 2,16,-1
 1201 1438 l 2,17,18
 1219 1438 1219 1438 1231 1426 c 128,-1,19
 1243 1414 1243 1414 1243 1397 c 2,20,-1
 1243 578 l 2,21,22
 1243 475 1243 475 1222 386 c 128,-1,23
 1201 297 1201 297 1163.5 228.5 c 128,-1,24
 1126 160 1126 160 1071 103.5 c 128,-1,25
 1016 47 1016 47 953 6 c 128,-1,26
 890 -35 890 -35 812.5 -66.5 c 128,-1,27
 735 -98 735 -98 657 -117.5 c 128,-1,28
 579 -137 579 -137 489.5 -150 c 128,-1,29
 400 -163 400 -163 318 -168 c 128,-1,30
 236 -173 236 -173 146 -174 c 0,0,1
EndSplineSet
EndChar

StartChar: K
Encoding: 75 75 46
Width: 2199
GlyphClass: 2
Flags: W
LayerCount: 2
Fore
SplineSet
235 0 m 2,0,1
 203 0 203 0 181 22 c 128,-1,2
 159 44 159 44 159 76 c 2,3,-1
 159 1363 l 2,4,5
 159 1395 159 1395 181 1416.5 c 128,-1,6
 203 1438 203 1438 235 1438 c 2,7,-1
 766 1438 l 2,8,9
 798 1438 798 1438 819.5 1416.5 c 128,-1,10
 841 1395 841 1395 841 1363 c 2,11,-1
 841 820 l 1,12,-1
 1321 1378 l 2,13,14
 1343 1404 1343 1404 1376 1421 c 128,-1,15
 1409 1438 1409 1438 1443 1438 c 2,16,-1
 1955 1438 l 2,17,18
 1971 1438 1971 1438 1982 1427.5 c 128,-1,19
 1993 1417 1993 1417 1993 1403 c 0,20,21
 1993 1388 1993 1388 1982 1377 c 2,22,-1
 1500 845 l 2,23,24
 1491 835 1491 835 1487.5 830.5 c 128,-1,25
 1484 826 1484 826 1480.5 820.5 c 128,-1,26
 1477 815 1477 815 1477 810 c 0,27,28
 1477 804 1477 804 1480 798 c 128,-1,29
 1483 792 1483 792 1490 784 c 2,30,-1
 2069 63 l 2,31,32
 2079 51 2079 51 2079 37 c 0,33,34
 2079 22 2079 22 2068 11 c 128,-1,35
 2057 0 2057 0 2040 0 c 2,36,-1
 1426 0 l 2,37,38
 1356 0 1356 0 1307 64 c 2,39,-1
 841 667 l 1,40,-1
 841 76 l 2,41,42
 841 44 841 44 819.5 22 c 128,-1,43
 798 0 798 0 766 0 c 2,44,-1
 235 0 l 2,0,1
EndSplineSet
EndChar

StartChar: L
Encoding: 76 76 47
Width: 1997
GlyphClass: 2
Flags: W
LayerCount: 2
Fore
SplineSet
235 0 m 2,0,1
 203 0 203 0 181 22 c 128,-1,2
 159 44 159 44 159 76 c 2,3,-1
 159 1363 l 2,4,5
 159 1395 159 1395 181 1416.5 c 128,-1,6
 203 1438 203 1438 235 1438 c 2,7,-1
 790 1438 l 2,8,9
 822 1438 822 1438 843.5 1416.5 c 128,-1,10
 865 1395 865 1395 865 1363 c 2,11,-1
 865 387 l 2,12,13
 865 372 865 372 876 361 c 128,-1,14
 887 350 887 350 902 350 c 2,15,-1
 1798 350 l 2,16,17
 1830 350 1830 350 1852 328 c 128,-1,18
 1874 306 1874 306 1874 274 c 2,19,-1
 1874 76 l 2,20,21
 1874 44 1874 44 1852 22 c 128,-1,22
 1830 0 1830 0 1798 0 c 2,23,-1
 235 0 l 2,0,1
EndSplineSet
EndChar

StartChar: M
Encoding: 77 77 48
Width: 2946
GlyphClass: 2
Flags: W
LayerCount: 2
Fore
SplineSet
223 0 m 2,0,1
 191 0 191 0 169 22 c 128,-1,2
 147 44 147 44 148 76 c 1,3,-1
 233 1363 l 1,4,5
 233 1394 233 1394 254.5 1416 c 128,-1,6
 276 1438 276 1438 308 1438 c 2,7,-1
 936 1438 l 2,8,9
 970 1438 970 1438 1000.5 1419.5 c 128,-1,10
 1031 1401 1031 1401 1048 1371 c 2,11,-1
 1454 646 l 2,12,13
 1461 633 1461 633 1471 633 c 256,14,15
 1481 633 1481 633 1488 646 c 2,16,-1
 1898 1371 l 2,17,18
 1915 1401 1915 1401 1945 1419.5 c 128,-1,19
 1975 1438 1975 1438 2010 1438 c 2,20,-1
 2638 1438 l 2,21,22
 2669 1438 2669 1438 2690.5 1416.5 c 128,-1,23
 2712 1395 2712 1395 2713 1363 c 1,24,-1
 2797 76 l 1,25,26
 2797 44 2797 44 2775.5 22 c 128,-1,27
 2754 0 2754 0 2722 0 c 2,28,-1
 2276 0 l 2,29,30
 2244 0 2244 0 2222 22 c 128,-1,31
 2200 44 2200 44 2199 76 c 1,32,-1
 2152 806 l 2,33,34
 2152 811 2152 811 2149.5 813.5 c 128,-1,35
 2147 816 2147 816 2144 816 c 0,36,37
 2138 816 2138 816 2135 810 c 2,38,-1
 1699 67 l 1,39,40
 1682 36 1682 36 1651.5 18 c 128,-1,41
 1621 0 1621 0 1586 0 c 2,42,-1
 1356 0 l 2,43,44
 1321 0 1321 0 1290.5 18 c 128,-1,45
 1260 36 1260 36 1243 67 c 2,46,-1
 810 808 l 2,47,48
 809 810 809 810 807.5 811 c 128,-1,49
 806 812 806 812 804.5 813 c 128,-1,50
 803 814 803 814 801 814 c 0,51,52
 798 814 798 814 795.5 811.5 c 128,-1,53
 793 809 793 809 793 804 c 2,54,-1
 745 76 l 1,55,56
 745 44 745 44 723 22 c 128,-1,57
 701 0 701 0 669 0 c 2,58,-1
 223 0 l 2,0,1
EndSplineSet
EndChar

StartChar: N
Encoding: 78 78 49
Width: 2542
GlyphClass: 2
Flags: W
LayerCount: 2
Fore
SplineSet
235 0 m 2,0,1
 203 0 203 0 181 22 c 128,-1,2
 159 44 159 44 159 76 c 2,3,-1
 159 1376 l 2,4,5
 159 1408 159 1408 181 1430 c 128,-1,6
 203 1452 203 1452 235 1452 c 2,7,-1
 931 1452 l 2,8,9
 994 1452 994 1452 1047 1406 c 1,10,-1
 1769 750 l 2,11,12
 1773 747 1773 747 1778 747 c 0,13,14
 1784 747 1784 747 1789 751.5 c 128,-1,15
 1794 756 1794 756 1794 763 c 2,16,-1
 1794 1361 l 2,17,18
 1794 1393 1794 1393 1816 1414.5 c 128,-1,19
 1838 1436 1838 1436 1870 1436 c 2,20,-1
 2307 1436 l 2,21,22
 2339 1436 2339 1436 2360.5 1414.5 c 128,-1,23
 2382 1393 2382 1393 2382 1361 c 2,24,-1
 2382 60 l 2,25,26
 2382 28 2382 28 2360.5 6.5 c 128,-1,27
 2339 -15 2339 -15 2307 -15 c 2,28,-1
 1784 -15 l 2,29,30
 1712 -15 1712 -15 1662 30 c 1,31,-1
 783 858 l 1,32,-1
 774 861 l 1,33,34
 768 861 768 861 762.5 856.5 c 128,-1,35
 757 852 757 852 757 845 c 2,36,-1
 757 76 l 2,37,38
 757 44 757 44 735 22 c 128,-1,39
 713 0 713 0 681 0 c 2,40,-1
 235 0 l 2,0,1
EndSplineSet
EndChar

StartChar: O
Encoding: 79 79 50
Width: 2667
GlyphClass: 2
Flags: W
LayerCount: 2
Fore
SplineSet
1333 -41 m 128,-1,1
 1213 -41 1213 -41 1102.5 -33 c 128,-1,2
 992 -25 992 -25 868.5 -2.5 c 128,-1,3
 745 20 745 20 642 56 c 128,-1,4
 539 92 539 92 443 151.5 c 128,-1,5
 347 211 347 211 280.5 288.5 c 128,-1,6
 214 366 214 366 174 477 c 128,-1,7
 134 588 134 588 134 722 c 0,8,9
 134 846 134 846 173.5 951.5 c 128,-1,10
 213 1057 213 1057 280.5 1133 c 128,-1,11
 348 1209 348 1209 442.5 1269 c 128,-1,12
 537 1329 537 1329 642 1367 c 128,-1,13
 747 1405 747 1405 868 1430 c 128,-1,14
 989 1455 989 1455 1102.5 1465 c 128,-1,15
 1216 1475 1216 1475 1333 1475 c 128,-1,16
 1450 1475 1450 1475 1563.5 1465 c 128,-1,17
 1677 1455 1677 1455 1798 1430 c 128,-1,18
 1919 1405 1919 1405 2024 1367 c 128,-1,19
 2129 1329 2129 1329 2223.5 1269 c 128,-1,20
 2318 1209 2318 1209 2385.5 1133 c 128,-1,21
 2453 1057 2453 1057 2492.5 951.5 c 128,-1,22
 2532 846 2532 846 2532 722 c 0,23,24
 2532 588 2532 588 2492 477 c 128,-1,25
 2452 366 2452 366 2385.5 288.5 c 128,-1,26
 2319 211 2319 211 2223 151.5 c 128,-1,27
 2127 92 2127 92 2024 56 c 128,-1,28
 1921 20 1921 20 1797.5 -2.5 c 128,-1,29
 1674 -25 1674 -25 1563.5 -33 c 128,-1,0
 1453 -41 1453 -41 1333 -41 c 128,-1,1
1333 322 m 0,30,31
 1435 322 1435 322 1510.5 340.5 c 128,-1,32
 1586 359 1586 359 1646 403 c 128,-1,33
 1706 447 1706 447 1737 527 c 128,-1,34
 1768 607 1768 607 1768 722 c 0,35,36
 1768 811 1768 811 1747.5 879.5 c 128,-1,37
 1727 948 1727 948 1690 992.5 c 128,-1,38
 1653 1037 1653 1037 1598 1065.5 c 128,-1,39
 1543 1094 1543 1094 1478.5 1106 c 128,-1,40
 1414 1118 1414 1118 1333 1118 c 0,41,42
 1231 1118 1231 1118 1154.5 1098.5 c 128,-1,43
 1078 1079 1078 1079 1018.5 1034.5 c 128,-1,44
 959 990 959 990 928.5 911.5 c 128,-1,45
 898 833 898 833 898 722 c 0,46,47
 898 629 898 629 919 559.5 c 128,-1,48
 940 490 940 490 976.5 445 c 128,-1,49
 1013 400 1013 400 1068.5 372 c 128,-1,50
 1124 344 1124 344 1188 333 c 128,-1,51
 1252 322 1252 322 1333 322 c 0,30,31
EndSplineSet
EndChar

StartChar: P
Encoding: 80 80 51
Width: 2376
GlyphClass: 2
Flags: W
LayerCount: 2
Fore
SplineSet
861 740 m 2,0,1
 1293 740 l 2,2,3
 1356 740 1356 740 1398.5 746.5 c 128,-1,4
 1441 753 1441 753 1479 771 c 128,-1,5
 1517 789 1517 789 1536 825.5 c 128,-1,6
 1555 862 1555 862 1555 919 c 0,7,8
 1555 964 1555 964 1539.5 996.5 c 128,-1,9
 1524 1029 1524 1029 1500 1047 c 128,-1,10
 1476 1065 1476 1065 1438 1075.5 c 128,-1,11
 1400 1086 1400 1086 1366 1088.5 c 128,-1,12
 1332 1091 1332 1091 1284 1091 c 2,13,-1
 861 1091 l 2,14,15
 848 1091 848 1091 837.5 1080.5 c 128,-1,16
 827 1070 827 1070 827 1057 c 2,17,-1
 827 775 l 2,18,19
 827 762 827 762 837.5 751 c 128,-1,20
 848 740 848 740 861 740 c 2,0,1
235 0 m 2,21,22
 203 0 203 0 181 22 c 128,-1,23
 159 44 159 44 159 76 c 2,24,-1
 159 1361 l 2,25,26
 159 1393 159 1393 181 1414.5 c 128,-1,27
 203 1436 203 1436 235 1436 c 0,28,29
 401 1436 401 1436 786 1437 c 128,-1,30
 1171 1438 1171 1438 1338 1438 c 0,31,32
 1463 1438 1463 1438 1557 1433.5 c 128,-1,33
 1651 1429 1651 1429 1749.5 1416 c 128,-1,34
 1848 1403 1848 1403 1918.5 1380.5 c 128,-1,35
 1989 1358 1989 1358 2053 1320 c 128,-1,36
 2117 1282 2117 1282 2156 1229.5 c 128,-1,37
 2195 1177 2195 1177 2218 1103 c 128,-1,38
 2241 1029 2241 1029 2241 935 c 0,39,40
 2241 845 2241 845 2217 773.5 c 128,-1,41
 2193 702 2193 702 2153.5 652.5 c 128,-1,42
 2114 603 2114 603 2048.5 567 c 128,-1,43
 1983 531 1983 531 1914.5 509.5 c 128,-1,44
 1846 488 1846 488 1748 475.5 c 128,-1,45
 1650 463 1650 463 1561.5 458.5 c 128,-1,46
 1473 454 1473 454 1353 453 c 0,47,48
 1289 452 1289 452 1110 452 c 128,-1,49
 931 452 931 452 861 452 c 0,50,51
 848 452 848 452 837.5 441 c 128,-1,52
 827 430 827 430 827 417 c 2,53,-1
 827 76 l 2,54,55
 827 44 827 44 805 22 c 128,-1,56
 783 0 783 0 751 0 c 2,57,-1
 235 0 l 2,21,22
EndSplineSet
EndChar

StartChar: Q
Encoding: 81 81 52
Width: 2667
GlyphClass: 2
Flags: W
LayerCount: 2
Fore
SplineSet
1333 324 m 0,0,1
 1435 324 1435 324 1510.5 342.5 c 128,-1,2
 1586 361 1586 361 1646 405 c 128,-1,3
 1706 449 1706 449 1737 528.5 c 128,-1,4
 1768 608 1768 608 1768 723 c 0,5,6
 1768 834 1768 834 1737.5 912.5 c 128,-1,7
 1707 991 1707 991 1647.5 1035.5 c 128,-1,8
 1588 1080 1588 1080 1511.5 1100 c 128,-1,9
 1435 1120 1435 1120 1333 1120 c 128,-1,10
 1231 1120 1231 1120 1154.5 1100 c 128,-1,11
 1078 1080 1078 1080 1018.5 1035.5 c 128,-1,12
 959 991 959 991 928.5 912.5 c 128,-1,13
 898 834 898 834 898 723 c 0,14,15
 898 631 898 631 919 561.5 c 128,-1,16
 940 492 940 492 976.5 447 c 128,-1,17
 1013 402 1013 402 1068.5 374 c 128,-1,18
 1124 346 1124 346 1188 335 c 128,-1,19
 1252 324 1252 324 1333 324 c 0,0,1
1645 -513 m 2,20,21
 1635 -518 1635 -518 1625.5 -520.5 c 128,-1,22
 1616 -523 1616 -523 1606 -523 c 0,23,24
 1564 -523 1564 -523 1541 -485 c 1,25,-1
 1295 -39 l 1,26,27
 1177 -38 1177 -38 1068.5 -28.5 c 128,-1,28
 960 -19 960 -19 840.5 5 c 128,-1,29
 721 29 721 29 621.5 65.5 c 128,-1,30
 522 102 522 102 429.5 161.5 c 128,-1,31
 337 221 337 221 273.5 298 c 128,-1,32
 210 375 210 375 172 483.5 c 128,-1,33
 134 592 134 592 134 723 c 0,34,35
 134 847 134 847 173.5 952.5 c 128,-1,36
 213 1058 213 1058 280.5 1134 c 128,-1,37
 348 1210 348 1210 442.5 1270.5 c 128,-1,38
 537 1331 537 1331 642 1369 c 128,-1,39
 747 1407 747 1407 868 1432 c 128,-1,40
 989 1457 989 1457 1102.5 1467 c 128,-1,41
 1216 1477 1216 1477 1333 1477 c 128,-1,42
 1450 1477 1450 1477 1563.5 1467 c 128,-1,43
 1677 1457 1677 1457 1798 1432 c 128,-1,44
 1919 1407 1919 1407 2024 1369 c 128,-1,45
 2129 1331 2129 1331 2223.5 1270.5 c 128,-1,46
 2318 1210 2318 1210 2385.5 1134 c 128,-1,47
 2453 1058 2453 1058 2492.5 952.5 c 128,-1,48
 2532 847 2532 847 2532 723 c 0,49,50
 2532 587 2532 587 2491 474.5 c 128,-1,51
 2450 362 2450 362 2381 284.5 c 128,-1,52
 2312 207 2312 207 2213 147.5 c 128,-1,53
 2114 88 2114 88 2008 53 c 128,-1,54
 1902 18 1902 18 1777 -4 c 1,55,-1
 1943 -305 l 2,56,57
 1954 -323 1954 -323 1954 -343 c 128,-1,58
 1954 -363 1954 -363 1943.5 -380 c 128,-1,59
 1933 -397 1933 -397 1914 -407 c 1,60,-1
 1645 -513 l 2,20,21
EndSplineSet
EndChar

StartChar: R
Encoding: 82 82 53
Width: 2405
GlyphClass: 2
Flags: W
LayerCount: 2
Fore
SplineSet
861 789 m 2,0,1
 1344 789 l 2,2,3
 1447 789 1447 789 1506.5 825.5 c 128,-1,4
 1566 862 1566 862 1566 938 c 0,5,6
 1566 973 1566 973 1553.5 999.5 c 128,-1,7
 1541 1026 1541 1026 1516 1042 c 128,-1,8
 1491 1058 1491 1058 1464.5 1068 c 128,-1,9
 1438 1078 1438 1078 1397.5 1082.5 c 128,-1,10
 1357 1087 1357 1087 1326.5 1088.5 c 128,-1,11
 1296 1090 1296 1090 1252 1090 c 2,12,-1
 861 1090 l 2,13,14
 848 1090 848 1090 837.5 1080 c 128,-1,15
 827 1070 827 1070 827 1057 c 2,16,-1
 827 822 l 2,17,18
 827 809 827 809 837.5 799 c 128,-1,19
 848 789 848 789 861 789 c 2,0,1
235 0 m 2,20,21
 203 0 203 0 181 22 c 128,-1,22
 159 44 159 44 159 76 c 2,23,-1
 159 1363 l 2,24,25
 159 1395 159 1395 181 1416.5 c 128,-1,26
 203 1438 203 1438 235 1438 c 2,27,-1
 1341 1438 l 2,28,29
 1439 1438 1439 1438 1491.5 1437.5 c 128,-1,30
 1544 1437 1544 1437 1630 1434.5 c 128,-1,31
 1716 1432 1716 1432 1763.5 1426 c 128,-1,32
 1811 1420 1811 1420 1880 1410 c 128,-1,33
 1949 1400 1949 1400 1988 1383.5 c 128,-1,34
 2027 1367 2027 1367 2076 1344.5 c 128,-1,35
 2125 1322 2125 1322 2151.5 1290.5 c 128,-1,36
 2178 1259 2178 1259 2204 1219 c 128,-1,37
 2230 1179 2230 1179 2240.5 1127 c 128,-1,38
 2251 1075 2251 1075 2251 1012 c 0,39,40
 2251 930 2251 930 2220.5 865.5 c 128,-1,41
 2190 801 2190 801 2134.5 758 c 128,-1,42
 2079 715 2079 715 2009.5 689 c 128,-1,43
 1940 663 1940 663 1855 652 c 1,44,45
 1850 650 1850 650 1850 647 c 0,46,47
 1850 643 1850 643 1855 643 c 0,48,49
 1938 628 1938 628 1997.5 594 c 128,-1,50
 2057 560 2057 560 2097.5 502 c 128,-1,51
 2138 444 2138 444 2163.5 376 c 128,-1,52
 2189 308 2189 308 2212 209 c 0,53,54
 2242 77 2242 77 2242 50 c 0,55,56
 2242 47 2242 47 2242 43 c 0,57,58
 2242 24 2242 24 2230.5 12 c 128,-1,59
 2219 0 2219 0 2198 0 c 2,60,-1
 1663 0 l 2,61,62
 1618 0 1618 0 1598 14.5 c 128,-1,63
 1578 29 1578 29 1569 68 c 0,64,65
 1568 72 1568 72 1560.5 114.5 c 128,-1,66
 1553 157 1553 157 1549 178 c 128,-1,67
 1545 199 1545 199 1535.5 241 c 128,-1,68
 1526 283 1526 283 1519 309 c 128,-1,69
 1512 335 1512 335 1502 364.5 c 128,-1,70
 1492 394 1492 394 1482 411 c 0,71,72
 1467 438 1467 438 1449 455.5 c 128,-1,73
 1431 473 1431 473 1415 482.5 c 128,-1,74
 1399 492 1399 492 1370 496.5 c 128,-1,75
 1341 501 1341 501 1321.5 501.5 c 128,-1,76
 1302 502 1302 502 1260 502 c 2,77,-1
 861 502 l 2,78,79
 848 502 848 502 837.5 491 c 128,-1,80
 827 480 827 480 827 467 c 2,81,-1
 827 76 l 2,82,83
 827 44 827 44 805 22 c 128,-1,84
 783 0 783 0 751 0 c 2,85,-1
 235 0 l 2,20,21
EndSplineSet
EndChar

StartChar: S
Encoding: 83 83 54
Width: 2427
GlyphClass: 2
Flags: W
LayerCount: 2
Fore
SplineSet
1182 -41 m 0,0,1
 601 -41 601 -41 197 105 c 0,2,3
 183 110 183 110 173 120 c 128,-1,4
 163 130 163 130 157.5 143.5 c 128,-1,5
 152 157 152 157 152 171 c 0,6,7
 152 177 152 177 153.5 183.5 c 128,-1,8
 155 190 155 190 157 196 c 0,9,10
 157 197 157 197 244 383 c 0,11,12
 255 406 255 406 275.5 419 c 128,-1,13
 296 432 296 432 321 432 c 0,14,15
 332 432 332 432 344 429 c 0,16,17
 568 364 568 364 792 332.5 c 128,-1,18
 1016 301 1016 301 1301 301 c 0,19,20
 1550 301 1550 301 1550 394 c 0,21,22
 1550 448 1550 448 1499.5 473.5 c 128,-1,23
 1449 499 1449 499 1347 504 c 0,24,25
 1306 507 1306 507 1222 511 c 1,26,27
 1123 517 1123 517 1044 522 c 128,-1,28
 965 527 965 527 871.5 535.5 c 128,-1,29
 778 544 778 544 705.5 555.5 c 128,-1,30
 633 567 633 567 555.5 585.5 c 128,-1,31
 478 604 478 604 420.5 628 c 128,-1,32
 363 652 363 652 310 686.5 c 128,-1,33
 257 721 257 721 223.5 764 c 128,-1,34
 190 807 190 807 170.5 864 c 128,-1,35
 151 921 151 921 151 989 c 0,36,37
 151 1081 151 1081 181 1154 c 128,-1,38
 211 1227 211 1227 260 1277 c 128,-1,39
 309 1327 309 1327 386 1364 c 128,-1,40
 463 1401 463 1401 543 1422 c 128,-1,41
 623 1443 623 1443 730.5 1455 c 128,-1,42
 838 1467 838 1467 932 1471 c 128,-1,43
 1026 1475 1026 1475 1145 1475 c 0,44,45
 1732 1475 1732 1475 2101 1331 c 0,46,47
 2114 1326 2114 1326 2124 1315.5 c 128,-1,48
 2134 1305 2134 1305 2139 1292 c 128,-1,49
 2144 1279 2144 1279 2144 1265 c 128,-1,50
 2144 1251 2144 1251 2139 1239 c 2,51,-1
 2098 1155 l 2,52,53
 2058 1071 2058 1071 2058 1070 c 0,54,55
 2046 1048 2046 1048 2025 1034.5 c 128,-1,56
 2004 1021 2004 1021 1979 1021 c 0,57,58
 1975 1021 1975 1021 1971 1021.5 c 128,-1,59
 1967 1022 1967 1022 1963 1022.5 c 128,-1,60
 1959 1023 1959 1023 1955 1024 c 0,61,62
 1777 1081 1777 1081 1567.5 1106.5 c 128,-1,63
 1358 1132 1358 1132 1194 1132 c 0,64,65
 858 1132 858 1132 858 1043 c 0,66,67
 858 1028 858 1028 862.5 1016.5 c 128,-1,68
 867 1005 867 1005 880.5 995 c 128,-1,69
 894 985 894 985 911.5 977.5 c 128,-1,70
 929 970 929 970 961 963.5 c 128,-1,71
 993 957 993 957 1027.5 952.5 c 128,-1,72
 1062 948 1062 948 1118 943 c 128,-1,73
 1174 938 1174 938 1230.5 934.5 c 128,-1,74
 1287 931 1287 931 1370 926 c 0,75,76
 1458 921 1458 921 1521 916 c 128,-1,77
 1584 911 1584 911 1667 901.5 c 128,-1,78
 1750 892 1750 892 1809.5 880 c 128,-1,79
 1869 868 1869 868 1938.5 849 c 128,-1,80
 2008 830 2008 830 2056.5 806 c 128,-1,81
 2105 782 2105 782 2152.5 747.5 c 128,-1,82
 2200 713 2200 713 2229 671.5 c 128,-1,83
 2258 630 2258 630 2275.5 575 c 128,-1,84
 2293 520 2293 520 2293 456 c 0,85,86
 2293 275 2293 275 2185.5 168 c 128,-1,87
 2078 61 2078 61 1836 10 c 128,-1,88
 1594 -41 1594 -41 1182 -41 c 0,0,1
EndSplineSet
EndChar

StartChar: T
Encoding: 84 84 55
Width: 2123
GlyphClass: 2
Flags: W
LayerCount: 2
Fore
SplineSet
810 0 m 2,0,1
 778 0 778 0 756 22 c 128,-1,2
 734 44 734 44 734 76 c 2,3,-1
 734 1069 l 2,4,5
 734 1084 734 1084 724 1094 c 128,-1,6
 714 1104 714 1104 699 1104 c 2,7,-1
 178 1104 l 2,8,9
 146 1104 146 1104 124.5 1126.5 c 128,-1,10
 103 1149 103 1149 103 1181 c 2,11,-1
 103 1361 l 2,12,13
 103 1393 103 1393 124.5 1415.5 c 128,-1,14
 146 1438 146 1438 178 1438 c 2,15,-1
 1939 1438 l 2,16,17
 1971 1438 1971 1438 1993 1415.5 c 128,-1,18
 2015 1393 2015 1393 2015 1361 c 2,19,-1
 2015 1181 l 2,20,21
 2015 1149 2015 1149 1993 1126.5 c 128,-1,22
 1971 1104 1971 1104 1939 1104 c 2,23,-1
 1422 1104 l 2,24,25
 1407 1104 1407 1104 1396.5 1094 c 128,-1,26
 1386 1084 1386 1084 1386 1069 c 2,27,-1
 1386 76 l 2,28,29
 1386 44 1386 44 1364.5 22 c 128,-1,30
 1343 0 1343 0 1311 0 c 2,31,-1
 810 0 l 2,0,1
EndSplineSet
EndChar

StartChar: U
Encoding: 85 85 56
Width: 2629
GlyphClass: 2
Flags: W
LayerCount: 2
Fore
SplineSet
1332 -41 m 0,0,1
 1212 -41 1212 -41 1104 -33.5 c 128,-1,2
 996 -26 996 -26 874 -4.5 c 128,-1,3
 752 17 752 17 651 51.5 c 128,-1,4
 550 86 550 86 454.5 144.5 c 128,-1,5
 359 203 359 203 294 279.5 c 128,-1,6
 229 356 229 356 189.5 466.5 c 128,-1,7
 150 577 150 577 150 711 c 2,8,-1
 150 1363 l 2,9,10
 150 1395 150 1395 172 1416.5 c 128,-1,11
 194 1438 194 1438 225 1438 c 2,12,-1
 838 1438 l 2,13,14
 872 1438 872 1438 892.5 1417 c 128,-1,15
 913 1396 913 1396 913 1363 c 2,16,-1
 913 711 l 2,17,18
 913 619 913 619 933 550 c 128,-1,19
 953 481 953 481 988.5 438 c 128,-1,20
 1024 395 1024 395 1078 368.5 c 128,-1,21
 1132 342 1132 342 1192.5 332 c 128,-1,22
 1253 322 1253 322 1332 322 c 0,23,24
 1431 322 1431 322 1502.5 339 c 128,-1,25
 1574 356 1574 356 1632 398 c 128,-1,26
 1690 440 1690 440 1719.5 518 c 128,-1,27
 1749 596 1749 596 1749 711 c 2,28,-1
 1749 1363 l 2,29,30
 1749 1395 1749 1395 1771 1416.5 c 128,-1,31
 1793 1438 1793 1438 1825 1438 c 2,32,-1
 2402 1438 l 2,33,34
 2434 1438 2434 1438 2456 1416.5 c 128,-1,35
 2478 1395 2478 1395 2478 1363 c 2,36,-1
 2478 711 l 2,37,38
 2478 577 2478 577 2440 466.5 c 128,-1,39
 2402 356 2402 356 2339 279.5 c 128,-1,40
 2276 203 2276 203 2183.5 144.5 c 128,-1,41
 2091 86 2091 86 1993 51.5 c 128,-1,42
 1895 17 1895 17 1776.5 -4.5 c 128,-1,43
 1658 -26 1658 -26 1553 -33.5 c 128,-1,44
 1448 -41 1448 -41 1332 -41 c 0,0,1
EndSplineSet
EndChar

StartChar: V
Encoding: 86 86 57
Width: 2340
GlyphClass: 2
Flags: W
LayerCount: 2
Fore
SplineSet
915 0 m 1,0,1
 880 1 880 1 849.5 19 c 128,-1,2
 819 37 819 37 803 67 c 2,3,-1
 79 1371 l 2,4,5
 76 1377 76 1377 74 1383 c 128,-1,6
 72 1389 72 1389 72 1396 c 0,7,8
 72 1413 72 1413 84.5 1425.5 c 128,-1,9
 97 1438 97 1438 117 1438 c 2,10,-1
 653 1438 l 2,11,12
 687 1438 687 1438 717.5 1420 c 128,-1,13
 748 1402 748 1402 765 1371 c 2,14,-1
 1208 550 l 1,15,-1
 1645 1371 l 2,16,17
 1661 1402 1661 1402 1691.5 1420 c 128,-1,18
 1722 1438 1722 1438 1757 1438 c 2,19,-1
 2220 1438 l 2,20,21
 2233 1438 2233 1438 2244 1432 c 128,-1,22
 2255 1426 2255 1426 2260.5 1416 c 128,-1,23
 2266 1406 2266 1406 2266 1394 c 128,-1,24
 2266 1382 2266 1382 2260 1371 c 2,25,-1
 1556 67 l 2,26,27
 1540 37 1540 37 1510.5 19 c 128,-1,28
 1481 1 1481 1 1446 0 c 1,29,-1
 915 0 l 1,0,1
EndSplineSet
EndChar

StartChar: W
Encoding: 87 87 58
Width: 3328
GlyphClass: 2
Flags: W
LayerCount: 2
Fore
SplineSet
776 0 m 1,0,1
 742 1 742 1 713 20 c 128,-1,2
 684 39 684 39 670 70 c 2,3,-1
 99 1369 l 2,4,5
 97 1373 97 1373 96 1376.5 c 128,-1,6
 95 1380 95 1380 94.5 1383.5 c 128,-1,7
 94 1387 94 1387 94 1391 c 0,8,9
 94 1400 94 1400 98 1409 c 128,-1,10
 102 1418 102 1418 108 1424 c 128,-1,11
 114 1430 114 1430 123.5 1434 c 128,-1,12
 133 1438 133 1438 144 1438 c 2,13,-1
 678 1438 l 2,14,15
 712 1438 712 1438 740.5 1418.5 c 128,-1,16
 769 1399 769 1399 783 1367 c 2,17,-1
 1068 666 l 1,18,-1
 1384 1369 l 2,19,20
 1398 1400 1398 1400 1427.5 1419 c 128,-1,21
 1457 1438 1457 1438 1491 1438 c 2,22,-1
 1909 1438 l 1,23,24
 1941 1437 1941 1437 1968 1417.5 c 128,-1,25
 1995 1398 1995 1398 2008 1368 c 2,26,-1
 2321 656 l 1,27,-1
 2626 1369 l 2,28,29
 2639 1400 2639 1400 2668 1419 c 128,-1,30
 2697 1438 2697 1438 2732 1438 c 2,31,-1
 3178 1438 l 2,32,33
 3189 1438 3189 1438 3198.5 1434 c 128,-1,34
 3208 1430 3208 1430 3214 1424 c 128,-1,35
 3220 1418 3220 1418 3224 1409 c 128,-1,36
 3228 1400 3228 1400 3228 1391 c 0,37,38
 3228 1388 3228 1388 3227.5 1385.5 c 128,-1,39
 3227 1383 3227 1383 3226.5 1380 c 128,-1,40
 3226 1377 3226 1377 3225 1374.5 c 128,-1,41
 3224 1372 3224 1372 3223 1369 c 2,42,-1
 2660 70 l 2,43,44
 2647 39 2647 39 2618.5 20 c 128,-1,45
 2590 1 2590 1 2556 0 c 1,46,-1
 2040 0 l 1,47,48
 2006 1 2006 1 1977.5 20 c 128,-1,49
 1949 39 1949 39 1936 70 c 2,50,-1
 1657 723 l 1,51,-1
 1362 70 l 2,52,53
 1348 39 1348 39 1321 19.5 c 128,-1,54
 1294 0 1294 0 1263 0 c 2,55,-1
 776 0 l 1,0,1
EndSplineSet
EndChar

StartChar: X
Encoding: 88 88 59
Width: 2403
GlyphClass: 2
Flags: W
LayerCount: 2
Fore
SplineSet
149 0 m 2,0,1
 136 0 136 0 127.5 8.5 c 128,-1,2
 119 17 119 17 119 29 c 128,-1,3
 119 41 119 41 131 53 c 2,4,-1
 832 683 l 1,5,-1
 144 1381 l 2,6,7
 132 1394 132 1394 132 1408 c 0,8,9
 132 1420 132 1420 141 1429 c 128,-1,10
 150 1438 150 1438 164 1438 c 2,11,-1
 877 1438 l 2,12,13
 952 1438 952 1438 1007 1381 c 2,14,-1
 1288 1089 l 1,15,-1
 1615 1385 l 2,16,17
 1675 1438 1675 1438 1748 1438 c 2,18,-1
 2186 1438 l 2,19,20
 2199 1438 2199 1438 2207.5 1429.5 c 128,-1,21
 2216 1421 2216 1421 2216 1410 c 0,22,23
 2216 1397 2216 1397 2204 1385 c 2,24,-1
 1559 808 l 1,25,-1
 2279 57 l 2,26,27
 2292 42 2292 42 2292 31 c 0,28,29
 2292 18 2292 18 2283 9 c 128,-1,30
 2274 0 2274 0 2259 0 c 2,31,-1
 1581 0 l 2,32,33
 1506 0 1506 0 1449 57 c 2,34,-1
 1106 405 l 1,35,-1
 715 53 l 2,36,37
 655 0 655 0 582 0 c 2,38,-1
 149 0 l 2,0,1
EndSplineSet
EndChar

StartChar: Y
Encoding: 89 89 60
Width: 2233
GlyphClass: 2
Flags: W
LayerCount: 2
Fore
SplineSet
856 0 m 2,0,1
 824 0 824 0 802 22 c 128,-1,2
 780 44 780 44 780 76 c 2,3,-1
 780 473 l 1,4,-1
 86 1376 l 2,5,6
 75 1390 75 1390 75 1403 c 0,7,8
 75 1417 75 1417 85.5 1427.5 c 128,-1,9
 96 1438 96 1438 113 1438 c 2,10,-1
 677 1438 l 2,11,12
 712 1438 712 1438 745 1421 c 128,-1,13
 778 1404 778 1404 800 1375 c 2,14,-1
 1167 889 l 1,15,-1
 1523 1374 l 2,16,17
 1571 1438 1571 1438 1645 1438 c 2,18,-1
 2113 1438 l 2,19,20
 2130 1438 2130 1438 2141.5 1427.5 c 128,-1,21
 2153 1417 2153 1417 2153 1402 c 0,22,23
 2153 1389 2153 1389 2142 1375 c 2,24,-1
 1462 476 l 1,25,-1
 1462 76 l 2,26,27
 1462 44 1462 44 1440.5 22 c 128,-1,28
 1419 0 1419 0 1387 0 c 2,29,-1
 856 0 l 2,0,1
EndSplineSet
EndChar

StartChar: Z
Encoding: 90 90 61
Width: 2067
GlyphClass: 2
Flags: W
LayerCount: 2
Fore
SplineSet
220 0 m 2,0,1
 188 0 188 0 166 22.5 c 128,-1,2
 144 45 144 45 144 77 c 2,3,-1
 144 244 l 2,4,5
 144 316 144 316 197 361 c 1,6,-1
 965 1062 l 2,7,8
 972 1069 972 1069 972 1075 c 0,9,10
 972 1090 972 1090 956 1090 c 2,11,-1
 250 1090 l 2,12,13
 218 1090 218 1090 196.5 1112.5 c 128,-1,14
 175 1135 175 1135 175 1167 c 2,15,-1
 175 1361 l 2,16,17
 175 1393 175 1393 196.5 1415.5 c 128,-1,18
 218 1438 218 1438 250 1438 c 2,19,-1
 1809 1438 l 2,20,21
 1841 1438 1841 1438 1863 1415.5 c 128,-1,22
 1885 1393 1885 1393 1885 1361 c 2,23,-1
 1885 1207 l 2,24,25
 1885 1133 1885 1133 1830 1083 c 2,26,-1
 1039 375 l 2,27,28
 1033 369 1033 369 1033 364 c 0,29,30
 1033 350 1033 350 1048 350 c 2,31,-1
 1849 350 l 2,32,33
 1881 350 1881 350 1902.5 327.5 c 128,-1,34
 1924 305 1924 305 1924 273 c 2,35,-1
 1924 77 l 2,36,37
 1924 45 1924 45 1902.5 22.5 c 128,-1,38
 1881 0 1881 0 1849 0 c 2,39,-1
 220 0 l 2,0,1
EndSplineSet
EndChar

StartChar: bracketleft
Encoding: 91 91 62
Width: 1384
GlyphClass: 2
Flags: W
LayerCount: 2
Fore
SplineSet
238 -174 m 2,0,1
 206 -174 206 -174 183.5 -151.5 c 128,-1,2
 161 -129 161 -129 161 -97 c 2,3,-1
 161 1561 l 2,4,5
 161 1593 161 1593 183.5 1615.5 c 128,-1,6
 206 1638 206 1638 238 1638 c 2,7,-1
 1179 1638 l 2,8,9
 1211 1638 1211 1638 1232.5 1617 c 128,-1,10
 1254 1596 1254 1596 1254 1564 c 2,11,-1
 1254 1360 l 2,12,13
 1254 1328 1254 1328 1232.5 1307 c 128,-1,14
 1211 1286 1211 1286 1179 1286 c 2,15,-1
 802 1286 l 2,16,17
 787 1286 787 1286 776.5 1276 c 128,-1,18
 766 1266 766 1266 766 1251 c 2,19,-1
 766 212 l 2,20,21
 766 197 766 197 776.5 186.5 c 128,-1,22
 787 176 787 176 802 176 c 2,23,-1
 1179 176 l 2,24,25
 1211 176 1211 176 1232.5 155 c 128,-1,26
 1254 134 1254 134 1254 102 c 2,27,-1
 1254 -100 l 2,28,29
 1254 -132 1254 -132 1232.5 -153 c 128,-1,30
 1211 -174 1211 -174 1179 -174 c 2,31,-1
 238 -174 l 2,0,1
EndSplineSet
EndChar

StartChar: backslash
Encoding: 92 92 63
Width: 1399
GlyphClass: 2
Flags: W
LayerCount: 2
Fore
SplineSet
807 -216 m 2,0,1
 770 -216 770 -216 757 -181 c 2,2,-1
 70 1603 l 1,3,-1
 68 1612 l 1,4,5
 68 1619 68 1619 71.5 1625 c 128,-1,6
 75 1631 75 1631 81 1634.5 c 128,-1,7
 87 1638 87 1638 94 1638 c 2,8,-1
 571 1638 l 2,9,10
 588 1638 588 1638 602 1628.5 c 128,-1,11
 616 1619 616 1619 621 1603 c 1,12,-1
 1309 -180 l 2,13,14
 1310 -182 1310 -182 1310.5 -184.5 c 128,-1,15
 1311 -187 1311 -187 1311 -189 c 0,16,17
 1311 -194 1311 -194 1309 -199 c 128,-1,18
 1307 -204 1307 -204 1303.5 -207.5 c 128,-1,19
 1300 -211 1300 -211 1295 -213 c 128,-1,20
 1290 -215 1290 -215 1285 -215 c 2,21,-1
 807 -216 l 2,0,1
EndSplineSet
EndChar

StartChar: bracketright
Encoding: 93 93 64
Width: 1385
GlyphClass: 2
Flags: W
LayerCount: 2
Fore
SplineSet
206 -174 m 2,0,1
 174 -174 174 -174 152 -153 c 128,-1,2
 130 -132 130 -132 130 -100 c 2,3,-1
 130 104 l 2,4,5
 130 136 130 136 152 157 c 128,-1,6
 174 178 174 178 206 178 c 2,7,-1
 583 178 l 2,8,9
 598 178 598 178 608 188 c 128,-1,10
 618 198 618 198 618 213 c 2,11,-1
 618 1252 l 2,12,13
 618 1267 618 1267 608 1277.5 c 128,-1,14
 598 1288 598 1288 583 1288 c 2,15,-1
 206 1288 l 2,16,17
 174 1288 174 1288 152 1309 c 128,-1,18
 130 1330 130 1330 130 1362 c 2,19,-1
 130 1564 l 2,20,21
 130 1596 130 1596 152 1617 c 128,-1,22
 174 1638 174 1638 206 1638 c 2,23,-1
 1147 1638 l 2,24,25
 1179 1638 1179 1638 1201.5 1615.5 c 128,-1,26
 1224 1593 1224 1593 1224 1561 c 2,27,-1
 1224 -97 l 2,28,29
 1224 -129 1224 -129 1201.5 -151.5 c 128,-1,30
 1179 -174 1179 -174 1147 -174 c 2,31,-1
 206 -174 l 2,0,1
EndSplineSet
EndChar

StartChar: asciicircum
Encoding: 94 94 65
Width: 1299
GlyphClass: 2
Flags: W
LayerCount: 2
Fore
SplineSet
-84 201 m 2,0,1
 -104 201 -104 201 -117 214.5 c 128,-1,2
 -130 228 -130 228 -130 246 c 0,3,4
 -130 257 -130 257 -124 268 c 2,5,-1
 351 1140 l 2,6,7
 368 1170 368 1170 397.5 1188.5 c 128,-1,8
 427 1207 427 1207 462 1207 c 2,9,-1
 830 1207 l 2,10,11
 865 1207 865 1207 894 1188.5 c 128,-1,12
 923 1170 923 1170 940 1139 c 2,13,-1
 1400 269 l 2,14,15
 1405 260 1405 260 1405 247 c 0,16,17
 1405 228 1405 228 1392 214.5 c 128,-1,18
 1379 201 1379 201 1359 201 c 2,19,-1
 998 201 l 2,20,21
 964 201 964 201 935 220 c 128,-1,22
 906 239 906 239 892 270 c 2,23,-1
 642 802 l 1,24,25
 636 812 636 812 626 812 c 0,26,27
 614 812 614 812 610 802 c 2,28,-1
 362 270 l 2,29,30
 347 239 347 239 318 220 c 128,-1,31
 289 201 289 201 255 201 c 2,32,-1
 -84 201 l 2,0,1
EndSplineSet
EndChar

StartChar: underscore
Encoding: 95 95 66
Width: 1164
GlyphClass: 2
Flags: W
LayerCount: 2
Fore
SplineSet
164 -277 m 2,0,1
 133 -277 133 -277 116.5 -257 c 128,-1,2
 100 -237 100 -237 100 -203 c 2,3,-1
 100 -73 l 2,4,5
 100 -40 100 -40 116.5 -20 c 128,-1,6
 133 0 133 0 164 0 c 2,7,-1
 996 0 l 2,8,9
 1027 0 1027 0 1043.5 -20 c 128,-1,10
 1060 -40 1060 -40 1060 -73 c 2,11,-1
 1060 -203 l 2,12,13
 1060 -237 1060 -237 1043.5 -257 c 128,-1,14
 1027 -277 1027 -277 996 -277 c 2,15,-1
 164 -277 l 2,0,1
EndSplineSet
EndChar

StartChar: grave
Encoding: 96 96 67
Width: 1745
GlyphClass: 2
Flags: W
LayerCount: 2
Fore
SplineSet
894 1172 m 2,0,1
 886 1172 886 1172 879.5 1173 c 128,-1,2
 873 1174 873 1174 868 1177 c 128,-1,3
 863 1180 863 1180 859.5 1182 c 128,-1,4
 856 1184 856 1184 852 1189 c 128,-1,5
 848 1194 848 1194 846.5 1196 c 128,-1,6
 845 1198 845 1198 841.5 1204 c 128,-1,7
 838 1210 838 1210 838 1211 c 2,8,-1
 650 1555 l 2,9,10
 647 1561 647 1561 644.5 1565.5 c 128,-1,11
 642 1570 642 1570 640.5 1575 c 128,-1,12
 639 1580 639 1580 639 1584 c 0,13,14
 639 1590 639 1590 642 1594 c 1,15,16
 642 1601 642 1601 651 1606.5 c 128,-1,17
 660 1612 660 1612 671.5 1615 c 128,-1,18
 683 1618 683 1618 692 1618 c 0,19,20
 934 1618 934 1618 936 1615 c 1,21,22
 965 1614 965 1614 979 1602.5 c 128,-1,23
 993 1591 993 1591 998 1563 c 2,24,-1
 1060 1234 l 2,25,26
 1061 1227 1061 1227 1062 1221.5 c 128,-1,27
 1063 1216 1063 1216 1063.5 1211 c 128,-1,28
 1064 1206 1064 1206 1064 1202 c 0,29,30
 1064 1195 1064 1195 1062.5 1189.5 c 128,-1,31
 1061 1184 1061 1184 1058.5 1181 c 128,-1,32
 1056 1178 1056 1178 1051.5 1176 c 128,-1,33
 1047 1174 1047 1174 1042 1173 c 128,-1,34
 1037 1172 1037 1172 1030 1172 c 0,35,36
 1028 1172 1028 1172 1026 1172 c 2,37,-1
 894 1172 l 2,0,1
EndSplineSet
EndChar

StartChar: a
Encoding: 97 97 68
Width: 1972
GlyphClass: 2
Flags: W
LayerCount: 2
Fore
SplineSet
843 174 m 0,0,1
 954 174 954 174 1050 207 c 128,-1,2
 1146 240 1146 240 1203 298 c 128,-1,3
 1260 356 1260 356 1260 424 c 0,4,5
 1260 434 1260 434 1259 439 c 128,-1,6
 1258 444 1258 444 1251.5 450 c 128,-1,7
 1245 456 1245 456 1232 456 c 0,8,9
 1204 456 1204 456 1194 454 c 0,10,11
 933 421 933 421 807 380.5 c 128,-1,12
 681 340 681 340 681 271 c 1,13,14
 683 174 683 174 843 174 c 0,0,1
736 -41 m 0,15,16
 474 -41 474 -41 314 27 c 0,17,18
 139 102 139 102 139 239 c 0,19,20
 140 469 140 469 607 562 c 0,21,22
 774 595 774 595 1102 618 c 0,23,24
 1248 629 1248 629 1248 639 c 2,25,-1
 1248 654 l 2,26,27
 1248 751 1248 751 1181.5 800 c 128,-1,28
 1115 849 1115 849 961 849 c 0,29,30
 884 849 884 849 796.5 827 c 128,-1,31
 709 805 709 805 657 758 c 0,32,33
 625 729 625 729 598 729 c 0,34,35
 594 729 594 729 576 731 c 2,36,-1
 200 765 l 2,37,38
 187 766 187 766 177.5 777.5 c 128,-1,39
 168 789 168 789 168 802 c 0,40,41
 168 817 168 817 179 846 c 1,42,43
 228 953 228 953 415 1003 c 128,-1,44
 602 1053 602 1053 957 1053 c 0,45,46
 1063 1053 1063 1053 1155 1047.5 c 128,-1,47
 1247 1042 1247 1042 1337 1028 c 128,-1,48
 1427 1014 1427 1014 1499 992.5 c 128,-1,49
 1571 971 1571 971 1633.5 937 c 128,-1,50
 1696 903 1696 903 1738 859 c 128,-1,51
 1780 815 1780 815 1803.5 755 c 128,-1,52
 1827 695 1827 695 1827 622 c 2,53,-1
 1827 68 l 2,54,55
 1827 39 1827 39 1809.5 19.5 c 128,-1,56
 1792 0 1792 0 1766 0 c 2,57,-1
 1647 0 l 2,58,59
 1616 0 1616 0 1589.5 17.5 c 128,-1,60
 1563 35 1563 35 1549 66 c 1,61,62
 1480 198 1480 198 1476 211 c 0,63,64
 1469 230 1469 230 1461 230 c 0,65,66
 1456 230 1456 230 1445 215 c 0,67,68
 1360 96 1360 96 1180.5 27.5 c 128,-1,69
 1001 -41 1001 -41 736 -41 c 0,15,16
EndSplineSet
EndChar

StartChar: b
Encoding: 98 98 69
Width: 2036
GlyphClass: 2
Flags: W
LayerCount: 2
Fore
SplineSet
1023 231 m 0,0,1
 1166 231 1166 231 1249.5 312.5 c 128,-1,2
 1333 394 1333 394 1333 513 c 0,3,4
 1333 633 1333 633 1249.5 713.5 c 128,-1,5
 1166 794 1166 794 1025 794 c 0,6,7
 877 794 877 794 791 712.5 c 128,-1,8
 705 631 705 631 705 513 c 0,9,10
 705 394 705 394 790.5 312.5 c 128,-1,11
 876 231 876 231 1023 231 c 0,0,1
1165 -41 m 0,12,13
 969 -41 969 -41 794.5 23 c 128,-1,14
 620 87 620 87 522 205 c 0,15,16
 516 213 516 213 506 213 c 0,17,18
 497 213 497 213 489 201 c 0,19,20
 459 150 459 150 410 75 c 1,21,22
 387 35 387 35 369 17.5 c 128,-1,23
 351 0 351 0 320 0 c 2,24,-1
 218 0 l 2,25,26
 159 0 159 0 159 67 c 2,27,-1
 159 1360 l 2,28,29
 159 1392 159 1392 181 1414 c 128,-1,30
 203 1436 203 1436 235 1436 c 2,31,-1
 630 1436 l 2,32,33
 662 1436 662 1436 683.5 1414 c 128,-1,34
 705 1392 705 1392 705 1360 c 2,35,-1
 705 929 l 2,36,37
 705 912 705 912 721 912 c 0,38,39
 726 912 726 912 731 916 c 0,40,41
 813 982 813 982 936 1017.5 c 128,-1,42
 1059 1053 1059 1053 1197 1053 c 0,43,44
 1302 1053 1302 1053 1401.5 1033.5 c 128,-1,45
 1501 1014 1501 1014 1593 970 c 128,-1,46
 1685 926 1685 926 1754 863 c 128,-1,47
 1823 800 1823 800 1864 706 c 128,-1,48
 1905 612 1905 612 1905 499 c 0,49,50
 1905 391 1905 391 1863 301 c 128,-1,51
 1821 211 1821 211 1749.5 148.5 c 128,-1,52
 1678 86 1678 86 1582.5 42.5 c 128,-1,53
 1487 -1 1487 -1 1381.5 -21 c 128,-1,54
 1276 -41 1276 -41 1165 -41 c 0,12,13
EndSplineSet
EndChar

StartChar: c
Encoding: 99 99 70
Width: 1798
GlyphClass: 2
Flags: W
LayerCount: 2
Fore
SplineSet
1007 -41 m 0,0,1
 895 -41 895 -41 791 -28.5 c 128,-1,2
 687 -16 687 -16 587 9.5 c 128,-1,3
 487 35 487 35 405.5 79 c 128,-1,4
 324 123 324 123 261.5 182.5 c 128,-1,5
 199 242 199 242 164.5 325.5 c 128,-1,6
 130 409 130 409 130 509 c 0,7,8
 130 625 130 625 180 719 c 128,-1,9
 230 813 230 813 313 874 c 128,-1,10
 396 935 396 935 509.5 976.5 c 128,-1,11
 623 1018 623 1018 743.5 1035.5 c 128,-1,12
 864 1053 864 1053 996 1053 c 0,13,14
 1159 1053 1159 1053 1317 1025 c 128,-1,15
 1475 997 1475 997 1593 949 c 0,16,17
 1615 940 1615 940 1628 919.5 c 128,-1,18
 1641 899 1641 899 1641 876 c 0,19,20
 1641 872 1641 872 1641 868 c 128,-1,21
 1641 864 1641 864 1640 860 c 128,-1,22
 1639 856 1639 856 1637 852 c 0,23,24
 1613 790 1613 790 1596 741 c 1,25,26
 1577 694 1577 694 1529 694 c 0,27,28
 1514 694 1514 694 1500 699 c 0,29,30
 1271 778 1271 778 1075 778 c 0,31,32
 998 778 998 778 933 764 c 128,-1,33
 868 750 868 750 814.5 719.5 c 128,-1,34
 761 689 761 689 730.5 635.5 c 128,-1,35
 700 582 700 582 700 509 c 0,36,37
 700 448 700 448 721.5 400 c 128,-1,38
 743 352 743 352 780 320.5 c 128,-1,39
 817 289 817 289 869 268.5 c 128,-1,40
 921 248 921 248 979 239.5 c 128,-1,41
 1037 231 1037 231 1104 231 c 0,42,43
 1293 231 1293 231 1510 297 c 0,44,45
 1515 298 1515 298 1519.5 299 c 128,-1,46
 1524 300 1524 300 1528 300.5 c 128,-1,47
 1532 301 1532 301 1536 301 c 0,48,49
 1552 301 1552 301 1565 295.5 c 128,-1,50
 1578 290 1578 290 1587.5 279 c 128,-1,51
 1597 268 1597 268 1602 253 c 0,52,53
 1604 249 1604 249 1622 196.5 c 128,-1,54
 1640 144 1640 144 1642 139 c 0,55,56
 1646 127 1646 127 1646 115 c 0,57,58
 1646 93 1646 93 1632.5 75 c 128,-1,59
 1619 57 1619 57 1596 49 c 0,60,61
 1474 7 1474 7 1317.5 -17 c 128,-1,62
 1161 -41 1161 -41 1007 -41 c 0,0,1
EndSplineSet
EndChar

StartChar: d
Encoding: 100 100 71
Width: 2038
GlyphClass: 2
Flags: W
LayerCount: 2
Fore
SplineSet
1014 231 m 0,0,1
 1161 231 1161 231 1246.5 312.5 c 128,-1,2
 1332 394 1332 394 1332 513 c 128,-1,3
 1332 632 1332 632 1246 713 c 128,-1,4
 1160 794 1160 794 1013 794 c 0,5,6
 871 794 871 794 787.5 713.5 c 128,-1,7
 704 633 704 633 704 513 c 0,8,9
 704 394 704 394 787.5 312.5 c 128,-1,10
 871 231 871 231 1014 231 c 0,0,1
872 -41 m 0,11,12
 760 -41 760 -41 654.5 -21 c 128,-1,13
 549 -1 549 -1 454 42.5 c 128,-1,14
 359 86 359 86 287.5 148.5 c 128,-1,15
 216 211 216 211 174 301 c 128,-1,16
 132 391 132 391 132 499 c 0,17,18
 132 612 132 612 173 706 c 128,-1,19
 214 800 214 800 282.5 863 c 128,-1,20
 351 926 351 926 443 970 c 128,-1,21
 535 1014 535 1014 634.5 1033.5 c 128,-1,22
 734 1053 734 1053 839 1053 c 0,23,24
 977 1053 977 1053 1100 1017.5 c 128,-1,25
 1223 982 1223 982 1306 916 c 0,26,27
 1309 914 1309 914 1317 911 c 1,28,29
 1323 911 1323 911 1327.5 916.5 c 128,-1,30
 1332 922 1332 922 1332 930 c 2,31,-1
 1332 1360 l 2,32,33
 1332 1392 1332 1392 1354 1414 c 128,-1,34
 1376 1436 1376 1436 1408 1436 c 2,35,-1
 1803 1436 l 2,36,37
 1835 1436 1835 1436 1856.5 1414 c 128,-1,38
 1878 1392 1878 1392 1878 1360 c 2,39,-1
 1878 76 l 2,40,41
 1878 43 1878 43 1857.5 21.5 c 128,-1,42
 1837 0 1837 0 1805 0 c 2,43,-1
 1724 0 l 2,44,45
 1693 0 1693 0 1673 16 c 128,-1,46
 1653 32 1653 32 1633 65 c 0,47,48
 1632 67 1632 67 1592.5 131 c 128,-1,49
 1553 195 1553 195 1552 198 c 0,50,51
 1543 211 1543 211 1531 212 c 1,52,53
 1520 210 1520 210 1511 201 c 1,54,55
 1413 85 1413 85 1239.5 22 c 128,-1,56
 1066 -41 1066 -41 872 -41 c 0,11,12
EndSplineSet
EndChar

StartChar: e
Encoding: 101 101 72
Width: 1900
GlyphClass: 2
Flags: W
LayerCount: 2
Fore
SplineSet
718 615 m 2,0,1
 1261 615 l 2,2,3
 1272 615 1272 615 1272 639 c 1,4,5
 1260 724 1260 724 1187 779.5 c 128,-1,6
 1114 835 1114 835 994 835 c 0,7,8
 880 835 880 835 797 780 c 128,-1,9
 714 725 714 725 707 644 c 1,10,11
 707 615 707 615 718 615 c 2,0,1
1041 -41 m 0,12,13
 950 -41 950 -41 867 -35 c 128,-1,14
 784 -29 784 -29 690.5 -13 c 128,-1,15
 597 3 597 3 518.5 28.5 c 128,-1,16
 440 54 440 54 367 96.5 c 128,-1,17
 294 139 294 139 243.5 194.5 c 128,-1,18
 193 250 193 250 162.5 329 c 128,-1,19
 132 408 132 408 132 504 c 0,20,21
 132 598 132 598 159.5 676 c 128,-1,22
 187 754 187 754 233.5 810 c 128,-1,23
 280 866 280 866 346.5 909 c 128,-1,24
 413 952 413 952 486.5 979 c 128,-1,25
 560 1006 560 1006 647.5 1023 c 128,-1,26
 735 1040 735 1040 816 1046.5 c 128,-1,27
 897 1053 897 1053 985 1053 c 0,28,29
 1099 1053 1099 1053 1206.5 1036.5 c 128,-1,30
 1314 1020 1314 1020 1416 980.5 c 128,-1,31
 1518 941 1518 941 1594.5 882.5 c 128,-1,32
 1671 824 1671 824 1718 734 c 128,-1,33
 1765 644 1765 644 1767 533 c 0,34,35
 1767 527 1767 527 1766.5 511 c 128,-1,36
 1766 495 1766 495 1766 490 c 0,37,38
 1764 473 1764 473 1750.5 461 c 128,-1,39
 1737 449 1737 449 1714 449 c 2,40,41
 729 449 l 2,42,43
 718 449 718 449 711.5 440 c 128,-1,44
 705 431 705 431 705 419 c 0,45,46
 705 363 705 363 739.5 321 c 128,-1,47
 774 279 774 279 833 255.5 c 128,-1,48
 892 232 892 232 961 221 c 128,-1,49
 1030 210 1030 210 1109 210 c 0,50,51
 1222 210 1222 210 1352 229.5 c 128,-1,52
 1482 249 1482 249 1567 275 c 0,53,54
 1574 277 1574 277 1580.5 278 c 128,-1,55
 1587 279 1587 279 1594 279 c 0,56,57
 1609 279 1609 279 1622 273.5 c 128,-1,58
 1635 268 1635 268 1644.5 257.5 c 128,-1,59
 1654 247 1654 247 1659 232 c 0,60,61
 1661 225 1661 225 1668 206 c 128,-1,62
 1675 187 1675 187 1679.5 174.5 c 128,-1,63
 1684 162 1684 162 1687.5 145 c 128,-1,64
 1691 128 1691 128 1691 114 c 0,65,66
 1691 65 1691 65 1644 50 c 0,67,68
 1535 15 1535 15 1343.5 -13 c 128,-1,69
 1152 -41 1152 -41 1041 -41 c 0,12,13
EndSplineSet
EndChar

StartChar: f
Encoding: 102 102 73
Width: 1585
GlyphClass: 2
Flags: W
LayerCount: 2
Fore
SplineSet
444 0 m 2,0,1
 412 0 412 0 389.5 22.5 c 128,-1,2
 367 45 367 45 367 77 c 2,3,-1
 367 762 l 2,4,5
 367 775 367 775 366.5 781 c 128,-1,6
 366 787 366 787 361 793 c 128,-1,7
 356 799 356 799 347 799 c 2,8,-1
 195 799 l 2,9,10
 160 799 160 799 144 810 c 128,-1,11
 128 821 128 821 128 851 c 2,12,-1
 128 945 l 2,13,14
 128 1006 128 1006 195 1006 c 2,15,-1
 345 1006 l 2,16,17
 355 1006 355 1006 360.5 1012 c 128,-1,18
 366 1018 366 1018 366.5 1023.5 c 128,-1,19
 367 1029 367 1029 368 1044 c 0,20,21
 374 1138 374 1138 413.5 1212.5 c 128,-1,22
 453 1287 453 1287 514.5 1335.5 c 128,-1,23
 576 1384 576 1384 660 1416 c 128,-1,24
 744 1448 744 1448 834.5 1461.5 c 128,-1,25
 925 1475 925 1475 1026 1475 c 0,26,27
 1183 1475 1183 1475 1399 1438 c 1,28,29
 1420 1433 1420 1433 1434.5 1415.5 c 128,-1,30
 1449 1398 1449 1398 1449 1377 c 2,31,-1
 1449 1230 l 2,32,33
 1449 1201 1449 1201 1441 1191 c 128,-1,34
 1433 1181 1433 1181 1408 1181 c 1,35,-1
 1370 1186 l 1,36,37
 1331 1190 1331 1190 1280.5 1194.5 c 128,-1,38
 1230 1199 1230 1199 1201 1199 c 0,39,40
 941 1199 941 1199 941 1062 c 2,41,-1
 941 1013 l 2,42,43
 941 1006 941 1006 948 1006 c 2,44,-1
 1358 1006 l 2,45,46
 1392 1006 1392 1006 1408.5 994 c 128,-1,47
 1425 982 1425 982 1425 951 c 2,48,-1
 1425 851 l 2,49,50
 1425 821 1425 821 1409 810 c 128,-1,51
 1393 799 1393 799 1358 799 c 2,52,-1
 964 799 l 2,53,54
 941 799 941 799 941 762 c 2,55,-1
 941 77 l 2,56,57
 941 45 941 45 918.5 22.5 c 128,-1,58
 896 0 896 0 864 0 c 2,59,-1
 444 0 l 2,0,1
EndSplineSet
EndChar

StartChar: g
Encoding: 103 103 74
Width: 1761
GlyphClass: 2
Flags: W
LayerCount: 2
Fore
SplineSet
844 518 m 0,0,1
 975 518 975 518 1036.5 560 c 128,-1,2
 1098 602 1098 602 1098 667 c 0,3,4
 1098 738 1098 738 1034 785 c 128,-1,5
 970 832 970 832 843 832 c 0,6,7
 715 832 715 832 653 788.5 c 128,-1,8
 591 745 591 745 591 679 c 0,9,10
 591 608 591 608 653.5 563 c 128,-1,11
 716 518 716 518 844 518 c 0,0,1
849 -437 m 0,12,13
 970 -437 970 -437 1055 -429.5 c 128,-1,14
 1140 -422 1140 -422 1185 -411.5 c 128,-1,15
 1230 -401 1230 -401 1254 -383 c 128,-1,16
 1278 -365 1278 -365 1283 -350.5 c 128,-1,17
 1288 -336 1288 -336 1288 -314 c 0,18,19
 1288 -272 1288 -272 1235 -238 c 128,-1,20
 1182 -204 1182 -204 1099 -204 c 2,21,-1
 674 -204 l 2,22,23
 652 -204 652 -204 595.5 -258.5 c 128,-1,24
 539 -313 539 -313 539 -340 c 0,25,26
 539 -380 539 -380 617.5 -408.5 c 128,-1,27
 696 -437 696 -437 849 -437 c 0,12,13
864 -732 m 0,28,29
 518 -732 518 -732 341 -660.5 c 128,-1,30
 164 -589 164 -589 164 -472 c 0,31,32
 164 -402 164 -402 215.5 -313 c 128,-1,33
 267 -224 267 -224 356 -169 c 1,34,35
 367 -164 367 -164 367 -154 c 0,36,37
 367 -145 367 -145 354 -138 c 1,38,39
 262 -98 262 -98 206.5 -32.5 c 128,-1,40
 151 33 151 33 151 105 c 0,41,42
 151 179 151 179 193.5 248 c 128,-1,43
 236 317 236 317 303 358 c 0,44,45
 317 366 317 366 317 379 c 0,46,47
 317 389 317 389 306 397 c 0,48,49
 230 455 230 455 186.5 528.5 c 128,-1,50
 143 602 143 602 143 675 c 0,51,52
 143 737 143 737 166 791.5 c 128,-1,53
 189 846 189 846 241.5 894.5 c 128,-1,54
 294 943 294 943 373.5 977.5 c 128,-1,55
 453 1012 453 1012 573 1032.5 c 128,-1,56
 693 1053 693 1053 844 1053 c 0,57,58
 869 1053 869 1053 1001 1039 c 0,59,60
 1016 1037 1016 1037 1029 1046.5 c 128,-1,61
 1042 1056 1042 1056 1045 1070 c 2,62,-1
 1100 1306 l 2,63,64
 1107 1338 1107 1338 1132.5 1359 c 128,-1,65
 1158 1380 1158 1380 1190 1380 c 2,66,-1
 1407 1380 l 2,67,68
 1425 1380 1425 1380 1437 1367.5 c 128,-1,69
 1449 1355 1449 1355 1449 1338 c 0,70,71
 1449 1326 1449 1326 1442 1316 c 2,72,-1
 1254 1021 l 2,73,74
 1247 1009 1247 1009 1251 995.5 c 128,-1,75
 1255 982 1255 982 1268 976 c 0,76,77
 1391 927 1391 927 1464 848 c 128,-1,78
 1537 769 1537 769 1537 675 c 0,79,80
 1537 609 1537 609 1518 552.5 c 128,-1,81
 1499 496 1499 496 1451.5 444 c 128,-1,82
 1404 392 1404 392 1331.5 355 c 128,-1,83
 1259 318 1259 318 1144.5 296.5 c 128,-1,84
 1030 275 1030 275 884 275 c 0,85,86
 700 275 700 275 566 304 c 0,87,88
 553 307 553 307 536 298.5 c 128,-1,89
 519 290 519 290 511 278 c 0,90,91
 502 266 502 266 495 242 c 128,-1,92
 488 218 488 218 488 204 c 0,93,94
 488 160 488 160 553 145 c 128,-1,95
 618 130 618 130 769 130 c 2,96,-1
 1073 130 l 2,97,98
 1204 130 1204 130 1306 107.5 c 128,-1,99
 1408 85 1408 85 1473 47 c 128,-1,100
 1538 9 1538 9 1579.5 -45 c 128,-1,101
 1621 -99 1621 -99 1638 -156.5 c 128,-1,102
 1655 -214 1655 -214 1655 -281 c 0,103,104
 1655 -362 1655 -362 1635 -425.5 c 128,-1,105
 1615 -489 1615 -489 1561.5 -548.5 c 128,-1,106
 1508 -608 1508 -608 1421 -647 c 128,-1,107
 1334 -686 1334 -686 1193 -709 c 128,-1,108
 1052 -732 1052 -732 864 -732 c 0,28,29
EndSplineSet
EndChar

StartChar: h
Encoding: 104 104 75
Width: 2022
GlyphClass: 2
Flags: W
LayerCount: 2
Fore
SplineSet
235 0 m 2,0,1
 203 0 203 0 181 22 c 128,-1,2
 159 44 159 44 159 76 c 2,3,-1
 159 1362 l 2,4,5
 159 1394 159 1394 181 1416 c 128,-1,6
 203 1438 203 1438 235 1438 c 2,7,-1
 633 1438 l 2,8,9
 665 1438 665 1438 687 1416 c 128,-1,10
 709 1394 709 1394 709 1362 c 2,11,-1
 709 923 l 2,12,13
 709 915 709 915 714 910.5 c 128,-1,14
 719 906 719 906 725 906 c 0,15,16
 728 906 728 906 730.5 906.5 c 128,-1,17
 733 907 733 907 736 909 c 0,18,19
 932 1053 932 1053 1213 1053 c 0,20,21
 1345 1053 1345 1053 1464 1018 c 128,-1,22
 1583 983 1583 983 1676 917.5 c 128,-1,23
 1769 852 1769 852 1824 748.5 c 128,-1,24
 1879 645 1879 645 1879 518 c 2,25,-1
 1879 76 l 2,26,27
 1879 44 1879 44 1857.5 22 c 128,-1,28
 1836 0 1836 0 1804 0 c 2,29,-1
 1391 0 l 2,30,31
 1359 0 1359 0 1337.5 22 c 128,-1,32
 1316 44 1316 44 1316 76 c 2,33,-1
 1316 513 l 2,34,35
 1316 627 1316 627 1238.5 704 c 128,-1,36
 1161 781 1161 781 1026 781 c 0,37,38
 885 781 885 781 797 700 c 128,-1,39
 709 619 709 619 709 513 c 2,40,-1
 709 76 l 2,41,42
 709 44 709 44 687 22 c 128,-1,43
 665 0 665 0 633 0 c 2,44,-1
 235 0 l 2,0,1
EndSplineSet
EndChar

StartChar: i
Encoding: 105 105 76
Width: 869
GlyphClass: 2
Flags: W
LayerCount: 2
Fore
SplineSet
236 1156 m 2,0,1
 204 1156 204 1156 182 1178 c 128,-1,2
 160 1200 160 1200 160 1232 c 2,3,-1
 160 1441 l 2,4,5
 160 1473 160 1473 182 1494.5 c 128,-1,6
 204 1516 204 1516 236 1516 c 2,7,-1
 634 1516 l 2,8,9
 666 1516 666 1516 687.5 1494.5 c 128,-1,10
 709 1473 709 1473 709 1441 c 2,11,-1
 709 1232 l 2,12,13
 709 1200 709 1200 687.5 1178 c 128,-1,14
 666 1156 666 1156 634 1156 c 2,15,-1
 236 1156 l 2,0,1
236 0 m 2,16,17
 204 0 204 0 182 22 c 128,-1,18
 160 44 160 44 160 76 c 2,19,-1
 160 931 l 2,20,21
 160 963 160 963 182 984.5 c 128,-1,22
 204 1006 204 1006 236 1006 c 2,23,-1
 634 1006 l 2,24,25
 666 1006 666 1006 687.5 984.5 c 128,-1,26
 709 963 709 963 709 931 c 2,27,-1
 709 76 l 2,28,29
 709 44 709 44 687.5 22 c 128,-1,30
 666 0 666 0 634 0 c 2,31,-1
 236 0 l 2,16,17
EndSplineSet
EndChar

StartChar: j
Encoding: 106 106 77
Width: 1180
GlyphClass: 2
Flags: W
LayerCount: 2
Fore
SplineSet
543 1156 m 2,0,1
 511 1156 511 1156 489.5 1178 c 128,-1,2
 468 1200 468 1200 468 1232 c 2,3,-1
 468 1441 l 2,4,5
 468 1473 468 1473 489.5 1494.5 c 128,-1,6
 511 1516 511 1516 543 1516 c 2,7,-1
 941 1516 l 2,8,9
 973 1516 973 1516 995 1494.5 c 128,-1,10
 1017 1473 1017 1473 1017 1441 c 2,11,-1
 1017 1232 l 2,12,13
 1017 1200 1017 1200 995 1178 c 128,-1,14
 973 1156 973 1156 941 1156 c 2,15,-1
 543 1156 l 2,0,1
1020 11 m 2,16,17
 1020 -89 1020 -89 984.5 -168.5 c 128,-1,18
 949 -248 949 -248 889 -299 c 128,-1,19
 829 -350 829 -350 744 -383.5 c 128,-1,20
 659 -417 659 -417 566 -431.5 c 128,-1,21
 473 -446 473 -446 366 -446 c 0,22,23
 261 -446 261 -446 134 -429 c 0,24,25
 102 -425 102 -425 81 -401 c 128,-1,26
 60 -377 60 -377 60 -344 c 2,27,-1
 60 -206 l 2,28,29
 60 -177 60 -177 78.5 -158 c 128,-1,30
 97 -139 97 -139 124 -139 c 0,31,32
 129 -139 129 -139 133 -140 c 0,33,34
 193 -146 193 -146 250 -146 c 0,35,36
 469 -146 469 -146 469 14 c 2,37,-1
 469 931 l 2,38,39
 469 963 469 963 491 984.5 c 128,-1,40
 513 1006 513 1006 545 1006 c 2,41,-1
 944 1006 l 2,42,43
 976 1006 976 1006 998 984.5 c 128,-1,44
 1020 963 1020 963 1020 931 c 2,45,-1
 1020 11 l 2,16,17
EndSplineSet
EndChar

StartChar: k
Encoding: 107 107 78
Width: 2006
GlyphClass: 2
Flags: W
LayerCount: 2
Fore
SplineSet
236 0 m 2,0,1
 204 0 204 0 182 22 c 128,-1,2
 160 44 160 44 160 76 c 2,3,-1
 160 1369 l 2,4,5
 160 1401 160 1401 182 1422.5 c 128,-1,6
 204 1444 204 1444 236 1444 c 2,7,-1
 634 1444 l 2,8,9
 666 1444 666 1444 687.5 1422.5 c 128,-1,10
 709 1401 709 1401 709 1369 c 2,11,-1
 709 717 l 2,12,13
 709 699 709 699 727 699 c 0,14,15
 729 699 729 699 737 703 c 1,16,-1
 1097 957 l 2,17,18
 1165 1006 1165 1006 1236 1006 c 2,19,-1
 1801 1006 l 2,20,21
 1813 1006 1813 1006 1820.5 999 c 128,-1,22
 1828 992 1828 992 1828 982 c 0,23,24
 1828 969 1828 969 1811 958 c 2,25,-1
 1327 613 l 1,26,27
 1315 606 1315 606 1315 590 c 0,28,29
 1315 579 1315 579 1324 570 c 2,30,-1
 1863 56 l 2,31,32
 1875 44 1875 44 1875 31 c 128,-1,33
 1875 18 1875 18 1866 9 c 128,-1,34
 1857 0 1857 0 1843 0 c 2,35,-1
 1336 0 l 2,36,37
 1314 0 1314 0 1295 8.5 c 128,-1,38
 1276 17 1276 17 1264.5 27 c 128,-1,39
 1253 37 1253 37 1231 59 c 2,40,-1
 918 374 l 1,41,42
 904 386 904 386 892 386 c 0,43,44
 878 386 878 386 868 377 c 0,45,46
 864 374 864 374 830.5 348.5 c 128,-1,47
 797 323 797 323 766.5 299 c 128,-1,48
 736 275 736 275 735 274 c 0,49,50
 709 253 709 253 709 219 c 2,51,-1
 709 76 l 2,52,53
 709 44 709 44 687.5 22 c 128,-1,54
 666 0 666 0 634 0 c 2,55,-1
 236 0 l 2,0,1
EndSplineSet
EndChar

StartChar: l
Encoding: 108 108 79
Width: 872
GlyphClass: 2
Flags: W
LayerCount: 2
Fore
SplineSet
236 0 m 2,0,1
 204 0 204 0 182.5 22 c 128,-1,2
 161 44 161 44 161 76 c 2,3,-1
 161 1369 l 2,4,5
 161 1401 161 1401 182.5 1422.5 c 128,-1,6
 204 1444 204 1444 236 1444 c 2,7,-1
 635 1444 l 2,8,9
 667 1444 667 1444 688.5 1422.5 c 128,-1,10
 710 1401 710 1401 710 1369 c 2,11,-1
 710 76 l 2,12,13
 710 44 710 44 688.5 22 c 128,-1,14
 667 0 667 0 635 0 c 2,15,-1
 236 0 l 2,0,1
EndSplineSet
EndChar

StartChar: m
Encoding: 109 109 80
Width: 2960
GlyphClass: 2
Flags: W
LayerCount: 2
Fore
SplineSet
229 0 m 2,0,1
 197 0 197 0 175 22 c 128,-1,2
 153 44 153 44 153 76 c 2,3,-1
 153 929 l 2,4,5
 153 962 153 962 174 984 c 128,-1,6
 195 1006 195 1006 227 1006 c 2,7,-1
 324 1006 l 2,8,9
 401 1006 401 1006 438 942 c 1,10,-1
 516 814 l 2,11,12
 524 802 524 802 536 802 c 128,-1,13
 548 802 548 802 556 813 c 0,14,15
 642 930 642 930 787.5 991.5 c 128,-1,16
 933 1053 933 1053 1101 1053 c 0,17,18
 1255 1053 1255 1053 1387 1007.5 c 128,-1,19
 1519 962 1519 962 1607 873 c 0,20,21
 1619 861 1619 861 1633 861 c 128,-1,22
 1647 861 1647 861 1660 874 c 0,23,24
 1751 961 1751 961 1882 1007 c 128,-1,25
 2013 1053 2013 1053 2158 1053 c 0,26,27
 2289 1053 2289 1053 2406.5 1019 c 128,-1,28
 2524 985 2524 985 2616.5 920.5 c 128,-1,29
 2709 856 2709 856 2763.5 752 c 128,-1,30
 2818 648 2818 648 2818 518 c 2,31,-1
 2818 76 l 2,32,33
 2818 44 2818 44 2796.5 22 c 128,-1,34
 2775 0 2775 0 2743 0 c 2,35,-1
 2330 0 l 2,36,37
 2298 0 2298 0 2276 22 c 128,-1,38
 2254 44 2254 44 2254 76 c 2,39,-1
 2254 513 l 2,40,41
 2254 654 2254 654 2194.5 717.5 c 128,-1,42
 2135 781 2135 781 2010 781 c 0,43,44
 1972 781 1972 781 1938.5 774 c 128,-1,45
 1905 767 1905 767 1870 747 c 128,-1,46
 1835 727 1835 727 1810.5 695 c 128,-1,47
 1786 663 1786 663 1770.5 609 c 128,-1,48
 1755 555 1755 555 1755 485 c 2,49,-1
 1755 76 l 2,50,51
 1755 44 1755 44 1733 22 c 128,-1,52
 1711 0 1711 0 1679 0 c 2,53,-1
 1278 0 l 2,54,55
 1246 0 1246 0 1224.5 22 c 128,-1,56
 1203 44 1203 44 1203 76 c 2,57,-1
 1203 513 l 2,58,59
 1203 626 1203 626 1139.5 703.5 c 128,-1,60
 1076 781 1076 781 967 781 c 0,61,62
 893 781 893 781 839.5 750.5 c 128,-1,63
 786 720 786 720 757 666.5 c 128,-1,64
 728 613 728 613 715 552 c 128,-1,65
 702 491 702 491 702 420 c 2,66,-1
 702 76 l 2,67,68
 702 44 702 44 680.5 22 c 128,-1,69
 659 0 659 0 627 0 c 2,70,-1
 229 0 l 2,0,1
EndSplineSet
EndChar

StartChar: n
Encoding: 110 110 81
Width: 2024
GlyphClass: 2
Flags: W
LayerCount: 2
Fore
SplineSet
229 0 m 2,0,1
 197 0 197 0 175 22 c 128,-1,2
 153 44 153 44 153 76 c 2,3,-1
 153 929 l 2,4,5
 153 962 153 962 174 984 c 128,-1,6
 195 1006 195 1006 227 1006 c 2,7,-1
 324 1006 l 2,8,9
 401 1006 401 1006 438 942 c 1,10,-1
 516 814 l 2,11,12
 524 801 524 801 536 801 c 128,-1,13
 548 801 548 801 557 812 c 0,14,15
 651 929 651 929 813.5 991 c 128,-1,16
 976 1053 976 1053 1161 1053 c 0,17,18
 1381 1053 1381 1053 1540 996 c 128,-1,19
 1699 939 1699 939 1790 817.5 c 128,-1,20
 1881 696 1881 696 1881 518 c 2,21,-1
 1881 76 l 2,22,23
 1881 44 1881 44 1859.5 22 c 128,-1,24
 1838 0 1838 0 1806 0 c 2,25,-1
 1396 0 l 2,26,27
 1364 0 1364 0 1342.5 22 c 128,-1,28
 1321 44 1321 44 1321 76 c 2,29,-1
 1321 513 l 2,30,31
 1321 625 1321 625 1238 703 c 128,-1,32
 1155 781 1155 781 1019 781 c 0,33,34
 878 781 878 781 790 700 c 128,-1,35
 702 619 702 619 702 513 c 2,36,-1
 702 76 l 2,37,38
 702 44 702 44 680.5 22 c 128,-1,39
 659 0 659 0 627 0 c 2,40,-1
 229 0 l 2,0,1
EndSplineSet
EndChar

StartChar: o
Encoding: 111 111 82
Width: 2002
GlyphClass: 2
Flags: W
LayerCount: 2
Fore
SplineSet
1001 -41 m 128,-1,1
 911 -41 911 -41 835 -36.5 c 128,-1,2
 759 -32 759 -32 667 -18 c 128,-1,3
 575 -4 575 -4 502 20 c 128,-1,4
 429 44 429 44 357.5 85.5 c 128,-1,5
 286 127 286 127 238.5 183.5 c 128,-1,6
 191 240 191 240 161.5 322.5 c 128,-1,7
 132 405 132 405 132 507 c 0,8,9
 132 1053 132 1053 1001 1053 c 128,-1,10
 1870 1053 1870 1053 1870 507 c 0,11,12
 1870 405 1870 405 1840.5 322.5 c 128,-1,13
 1811 240 1811 240 1763.5 183.5 c 128,-1,14
 1716 127 1716 127 1644.5 85.5 c 128,-1,15
 1573 44 1573 44 1500 20 c 128,-1,16
 1427 -4 1427 -4 1335 -18 c 128,-1,17
 1243 -32 1243 -32 1167 -36.5 c 128,-1,0
 1091 -41 1091 -41 1001 -41 c 128,-1,1
1001 215 m 128,-1,19
 1155 215 1155 215 1239.5 288 c 128,-1,20
 1324 361 1324 361 1324 507 c 0,21,22
 1324 639 1324 639 1237.5 718.5 c 128,-1,23
 1151 798 1151 798 1001 798 c 128,-1,24
 851 798 851 798 764.5 718.5 c 128,-1,25
 678 639 678 639 678 507 c 0,26,27
 678 361 678 361 762.5 288 c 128,-1,18
 847 215 847 215 1001 215 c 128,-1,19
EndSplineSet
EndChar

StartChar: p
Encoding: 112 112 83
Width: 2037
GlyphClass: 2
Flags: W
LayerCount: 2
Fore
SplineSet
1023 213 m 0,0,1
 1164 213 1164 213 1248 294.5 c 128,-1,2
 1332 376 1332 376 1332 498 c 0,3,4
 1332 616 1332 616 1248 698.5 c 128,-1,5
 1164 781 1164 781 1022 781 c 0,6,7
 874 781 874 781 788 699 c 128,-1,8
 702 617 702 617 702 498 c 0,9,10
 702 377 702 377 788.5 295 c 128,-1,11
 875 213 875 213 1023 213 c 0,0,1
223 -318 m 2,12,13
 191 -318 191 -318 172 -298 c 128,-1,14
 153 -278 153 -278 153 -246 c 2,15,-1
 153 924 l 2,16,17
 153 956 153 956 173.5 977.5 c 128,-1,18
 194 999 194 999 226 999 c 2,19,-1
 322 999 l 2,20,21
 395 999 395 999 437 932 c 0,22,23
 438 929 438 929 476 871 c 128,-1,24
 514 813 514 813 515 811 c 0,25,26
 527 792 527 792 535 792 c 0,27,28
 538 792 538 792 555 809 c 1,29,30
 648 927 648 927 812.5 990 c 128,-1,31
 977 1053 977 1053 1163 1053 c 0,32,33
 1276 1053 1276 1053 1382 1033 c 128,-1,34
 1488 1013 1488 1013 1583.5 969 c 128,-1,35
 1679 925 1679 925 1750 862.5 c 128,-1,36
 1821 800 1821 800 1863 709.5 c 128,-1,37
 1905 619 1905 619 1905 511 c 0,38,39
 1905 397 1905 397 1864 303.5 c 128,-1,40
 1823 210 1823 210 1754.5 147 c 128,-1,41
 1686 84 1686 84 1594 41 c 128,-1,42
 1502 -2 1502 -2 1402.5 -21.5 c 128,-1,43
 1303 -41 1303 -41 1197 -41 c 0,44,45
 1057 -41 1057 -41 935 -11.5 c 128,-1,46
 813 18 813 18 730 76 c 0,47,48
 724 80 724 80 719 80 c 0,49,50
 712 80 712 80 707 74.5 c 128,-1,51
 702 69 702 69 702 61 c 2,52,-1
 702 -246 l 2,53,54
 702 -278 702 -278 682 -298 c 128,-1,55
 662 -318 662 -318 630 -318 c 2,56,-1
 223 -318 l 2,12,13
EndSplineSet
EndChar

StartChar: q
Encoding: 113 113 84
Width: 2040
GlyphClass: 2
Flags: W
LayerCount: 2
Fore
SplineSet
1015 213 m 0,0,1
 1163 213 1163 213 1249.5 295.5 c 128,-1,2
 1336 378 1336 378 1336 498 c 0,3,4
 1336 617 1336 617 1250 699 c 128,-1,5
 1164 781 1164 781 1016 781 c 0,6,7
 874 781 874 781 790 698.5 c 128,-1,8
 706 616 706 616 706 498 c 0,9,10
 706 376 706 376 790 294.5 c 128,-1,11
 874 213 874 213 1015 213 c 0,0,1
1411 -318 m 2,12,13
 1379 -318 1379 -318 1357.5 -296.5 c 128,-1,14
 1336 -275 1336 -275 1336 -243 c 2,15,-1
 1336 61 l 2,16,17
 1336 69 1336 69 1331 74.5 c 128,-1,18
 1326 80 1326 80 1319 80 c 0,19,20
 1314 80 1314 80 1308 76 c 0,21,22
 1225 18 1225 18 1103 -11.5 c 128,-1,23
 981 -41 981 -41 841 -41 c 0,24,25
 735 -41 735 -41 635.5 -21.5 c 128,-1,26
 536 -2 536 -2 444 41 c 128,-1,27
 352 84 352 84 283 147 c 128,-1,28
 214 210 214 210 173 303.5 c 128,-1,29
 132 397 132 397 132 511 c 0,30,31
 132 619 132 619 174 709.5 c 128,-1,32
 216 800 216 800 287.5 862.5 c 128,-1,33
 359 925 359 925 454.5 969 c 128,-1,34
 550 1013 550 1013 656 1033 c 128,-1,35
 762 1053 762 1053 875 1053 c 0,36,37
 1061 1053 1061 1053 1225.5 990 c 128,-1,38
 1390 927 1390 927 1483 809 c 1,39,40
 1493 799 1493 799 1503 799 c 0,41,42
 1514 799 1514 799 1523 811 c 0,43,44
 1524 813 1524 813 1562.5 871.5 c 128,-1,45
 1601 930 1601 930 1602 933 c 0,46,47
 1643 999 1643 999 1716 999 c 2,48,-1
 1812 999 l 2,49,50
 1844 999 1844 999 1864.5 977.5 c 128,-1,51
 1885 956 1885 956 1885 924 c 2,52,-1
 1885 -243 l 2,53,54
 1885 -275 1885 -275 1863.5 -296.5 c 128,-1,55
 1842 -318 1842 -318 1810 -318 c 2,56,-1
 1411 -318 l 2,12,13
EndSplineSet
EndChar

StartChar: r
Encoding: 114 114 85
Width: 1362
GlyphClass: 2
Flags: W
LayerCount: 2
Fore
SplineSet
229 0 m 2,0,1
 197 0 197 0 175 22 c 128,-1,2
 153 44 153 44 153 76 c 2,3,-1
 153 929 l 2,4,5
 153 1006 153 1006 210 1006 c 2,6,-1
 350 1006 l 2,7,8
 383 1006 383 1006 400 991.5 c 128,-1,9
 417 977 417 977 438 942 c 2,10,-1
 516 814 l 2,11,12
 524 801 524 801 537 801 c 0,13,14
 548 801 548 801 558 813 c 0,15,16
 667 943 667 943 795 998 c 128,-1,17
 923 1053 923 1053 1083 1053 c 0,18,19
 1167 1053 1167 1053 1198 1036.5 c 128,-1,20
 1229 1020 1229 1020 1229 990 c 2,21,-1
 1229 807 l 2,22,23
 1229 742 1229 742 1181 742 c 2,24,-1
 997 742 l 2,25,26
 935 742 935 742 883.5 723.5 c 128,-1,27
 832 705 832 705 799 675.5 c 128,-1,28
 766 646 766 646 743.5 608.5 c 128,-1,29
 721 571 721 571 711.5 535.5 c 128,-1,30
 702 500 702 500 702 466 c 2,31,-1
 702 76 l 2,32,33
 702 44 702 44 680.5 22 c 128,-1,34
 659 0 659 0 627 0 c 2,35,-1
 229 0 l 2,0,1
EndSplineSet
EndChar

StartChar: s
Encoding: 115 115 86
Width: 1827
GlyphClass: 2
Flags: W
LayerCount: 2
Fore
SplineSet
900 -41 m 0,0,1
 720 -41 720 -41 527 -17.5 c 128,-1,2
 334 6 334 6 197 59 c 0,3,4
 184 64 184 64 174 75 c 128,-1,5
 164 86 164 86 158.5 100 c 128,-1,6
 153 114 153 114 153 128 c 256,7,8
 153 142 153 142 158 154 c 2,9,-1
 211 259 l 2,10,11
 223 283 223 283 243.5 296.5 c 128,-1,12
 264 310 264 310 289 310 c 0,13,14
 303 310 303 310 316 306 c 0,15,16
 603 218 603 218 993 218 c 0,17,18
 1113 218 1113 218 1165 235.5 c 128,-1,19
 1217 253 1217 253 1217 294 c 0,20,21
 1217 343 1217 343 1161 357.5 c 128,-1,22
 1105 372 1105 372 883 387 c 0,23,24
 878 387 878 387 867 388 c 0,25,26
 805 392 805 392 761 395.5 c 128,-1,27
 717 399 717 399 653 405.5 c 128,-1,28
 589 412 589 412 543 419.5 c 128,-1,29
 497 427 497 427 441 440 c 128,-1,30
 385 453 385 453 345.5 469 c 128,-1,31
 306 485 306 485 266.5 508 c 128,-1,32
 227 531 227 531 202.5 558.5 c 128,-1,33
 178 586 178 586 163 623 c 128,-1,34
 148 660 148 660 148 703 c 0,35,36
 148 761 148 761 169 809 c 128,-1,37
 190 857 190 857 228.5 891.5 c 128,-1,38
 267 926 267 926 314.5 953 c 128,-1,39
 362 980 362 980 422 997 c 128,-1,40
 482 1014 482 1014 539.5 1025.5 c 128,-1,41
 597 1037 597 1037 662.5 1043 c 128,-1,42
 728 1049 728 1049 778 1051 c 128,-1,43
 828 1053 828 1053 881 1053 c 0,44,45
 1101 1053 1101 1053 1252 1036.5 c 128,-1,46
 1403 1020 1403 1020 1548 964 c 0,47,48
 1567 956 1567 956 1578.5 937.5 c 128,-1,49
 1590 919 1590 919 1590 898 c 0,50,51
 1590 883 1590 883 1584 870 c 2,52,-1
 1539 776 l 2,53,54
 1528 755 1528 755 1508 743 c 128,-1,55
 1488 731 1488 731 1463 731 c 0,56,57
 1455 731 1455 731 1447.5 732 c 128,-1,58
 1440 733 1440 733 1432 736 c 0,59,60
 1329 771 1329 771 1211 787 c 128,-1,61
 1093 803 1093 803 918 803 c 0,62,63
 800 803 800 803 729.5 794 c 128,-1,64
 659 785 659 785 634 770 c 128,-1,65
 609 755 609 755 609 733 c 0,66,67
 609 730 609 730 610 727 c 0,68,69
 615 695 615 695 705 682 c 1,70,71
 741 678 741 678 998 662 c 0,72,73
 1009 661 1009 661 1032 660 c 0,74,75
 1087 657 1087 657 1127 654 c 128,-1,76
 1167 651 1167 651 1221.5 646 c 128,-1,77
 1276 641 1276 641 1316 634 c 128,-1,78
 1356 627 1356 627 1403.5 617 c 128,-1,79
 1451 607 1451 607 1486 593 c 128,-1,80
 1521 579 1521 579 1557.5 560.5 c 128,-1,81
 1594 542 1594 542 1619 517 c 128,-1,82
 1644 492 1644 492 1664.5 461.5 c 128,-1,83
 1685 431 1685 431 1695 392 c 128,-1,84
 1705 353 1705 353 1705 307 c 0,85,86
 1705 226 1705 226 1664 164.5 c 128,-1,87
 1623 103 1623 103 1552.5 64.5 c 128,-1,88
 1482 26 1482 26 1377.5 2 c 128,-1,89
 1273 -22 1273 -22 1158 -31.5 c 128,-1,90
 1043 -41 1043 -41 900 -41 c 0,0,1
EndSplineSet
EndChar

StartChar: t
Encoding: 116 116 87
Width: 1605
GlyphClass: 2
Flags: W
LayerCount: 2
Fore
SplineSet
1049 -41 m 0,0,1
 938 -41 938 -41 838 -25.5 c 128,-1,2
 738 -10 738 -10 644 28 c 128,-1,3
 550 66 550 66 482 124 c 128,-1,4
 414 182 414 182 373 272 c 128,-1,5
 332 362 332 362 332 475 c 2,6,-1
 332 762 l 2,7,8
 332 777 332 777 322 787 c 128,-1,9
 312 797 312 797 297 797 c 2,10,-1
 171 797 l 2,11,12
 139 797 139 797 117.5 819 c 128,-1,13
 96 841 96 841 96 873 c 2,14,-1
 96 931 l 2,15,16
 96 963 96 963 117.5 984.5 c 128,-1,17
 139 1006 139 1006 171 1006 c 2,18,-1
 297 1006 l 2,19,20
 325 1006 325 1006 332 1042 c 2,21,-1
 401 1374 l 1,22,23
 402 1407 402 1407 423 1428.5 c 128,-1,24
 444 1450 444 1450 476 1450 c 2,25,-1
 831 1450 l 2,26,27
 863 1450 863 1450 884.5 1428 c 128,-1,28
 906 1406 906 1406 906 1374 c 2,29,-1
 906 1042 l 2,30,31
 906 1027 906 1027 916.5 1016.5 c 128,-1,32
 927 1006 927 1006 942 1006 c 2,33,-1
 1314 1006 l 2,34,35
 1346 1006 1346 1006 1367.5 984.5 c 128,-1,36
 1389 963 1389 963 1389 931 c 2,37,-1
 1389 873 l 2,38,39
 1389 841 1389 841 1367.5 819 c 128,-1,40
 1346 797 1346 797 1314 797 c 2,41,-1
 942 797 l 2,42,43
 927 797 927 797 916.5 787 c 128,-1,44
 906 777 906 777 906 762 c 2,45,-1
 906 433 l 2,46,47
 906 254 906 254 1155 254 c 0,48,49
 1266 254 1266 254 1393 287 c 0,50,51
 1398 288 1398 288 1402.5 289 c 128,-1,52
 1407 290 1407 290 1411 290 c 0,53,54
 1418 290 1418 290 1424.5 288.5 c 128,-1,55
 1431 287 1431 287 1436 284 c 128,-1,56
 1441 281 1441 281 1446 277.5 c 128,-1,57
 1451 274 1451 274 1454.5 269 c 128,-1,58
 1458 264 1458 264 1460.5 258 c 128,-1,59
 1463 252 1463 252 1465 245.5 c 128,-1,60
 1467 239 1467 239 1467 232 c 2,61,-1
 1468 88 l 2,62,63
 1469 57 1469 57 1448.5 31.5 c 128,-1,64
 1428 6 1428 6 1397 -2 c 0,65,66
 1231 -41 1231 -41 1049 -41 c 0,0,1
EndSplineSet
EndChar

StartChar: u
Encoding: 117 117 88
Width: 2030
GlyphClass: 2
Flags: W
LayerCount: 2
Fore
SplineSet
867 -42 m 0,0,1
 725 -42 725 -42 597.5 -8.5 c 128,-1,2
 470 25 470 25 368 89 c 128,-1,3
 266 153 266 153 205.5 257.5 c 128,-1,4
 145 362 145 362 145 493 c 2,5,-1
 145 941 l 2,6,7
 145 973 145 973 167 994.5 c 128,-1,8
 189 1016 189 1016 221 1016 c 2,9,-1
 644 1016 l 2,10,11
 676 1016 676 1016 697.5 994.5 c 128,-1,12
 719 973 719 973 719 941 c 2,13,-1
 719 499 l 2,14,15
 719 385 719 385 797 308 c 128,-1,16
 875 231 875 231 1010 231 c 0,17,18
 1151 231 1151 231 1239.5 312 c 128,-1,19
 1328 393 1328 393 1328 499 c 2,20,-1
 1328 941 l 2,21,22
 1328 973 1328 973 1349.5 994.5 c 128,-1,23
 1371 1016 1371 1016 1403 1016 c 2,24,-1
 1801 1016 l 2,25,26
 1833 1016 1833 1016 1855 994.5 c 128,-1,27
 1877 973 1877 973 1877 941 c 2,28,-1
 1877 77 l 2,29,30
 1877 44 1877 44 1856 22 c 128,-1,31
 1835 0 1835 0 1803 0 c 2,32,-1
 1706 0 l 2,33,34
 1630 0 1630 0 1593 64 c 1,35,-1
 1513 197 l 2,36,37
 1505 210 1505 210 1493 210 c 0,38,39
 1482 210 1482 210 1472 198 c 0,40,41
 1378 82 1378 82 1215 20 c 128,-1,42
 1052 -42 1052 -42 867 -42 c 0,0,1
EndSplineSet
EndChar

StartChar: v
Encoding: 118 118 89
Width: 1938
GlyphClass: 2
Flags: W
LayerCount: 2
Fore
SplineSet
711 0 m 2,0,1
 677 0 677 0 647 18.5 c 128,-1,2
 617 37 617 37 600 68 c 2,3,-1
 121 938 l 2,4,5
 115 949 115 949 115 963 c 0,6,7
 115 981 115 981 127.5 993.5 c 128,-1,8
 140 1006 140 1006 160 1006 c 2,9,-1
 616 1006 l 2,10,11
 650 1006 650 1006 678 987.5 c 128,-1,12
 706 969 706 969 721 937 c 2,13,-1
 990 393 l 2,14,15
 996 383 996 383 1006 383 c 0,16,17
 1017 383 1017 383 1021 393 c 2,18,-1
 1276 937 l 2,19,20
 1292 969 1292 969 1321 987.5 c 128,-1,21
 1350 1006 1350 1006 1384 1006 c 2,22,-1
 1776 1006 l 2,23,24
 1796 1006 1796 1006 1808.5 993.5 c 128,-1,25
 1821 981 1821 981 1821 964 c 0,26,27
 1821 951 1821 951 1813 939 c 1,28,-1
 1334 67 l 2,29,30
 1317 37 1317 37 1286 18.5 c 128,-1,31
 1255 0 1255 0 1221 0 c 2,32,-1
 711 0 l 2,0,1
EndSplineSet
EndChar

StartChar: w
Encoding: 119 119 90
Width: 2682
GlyphClass: 2
Flags: W
LayerCount: 2
Fore
SplineSet
570 0 m 2,0,1
 537 0 537 0 509 19.5 c 128,-1,2
 481 39 481 39 468 71 c 2,3,-1
 125 935 l 2,4,5
 121 944 121 944 121 957 c 0,6,7
 121 977 121 977 135.5 991.5 c 128,-1,8
 150 1006 150 1006 172 1006 c 2,9,-1
 610 1006 l 2,10,11
 644 1006 644 1006 669 985.5 c 128,-1,12
 694 965 694 965 702 932 c 1,13,-1
 857 396 l 2,14,15
 860 387 860 387 867 387 c 0,16,17
 875 387 875 387 877 395 c 2,18,-1
 1060 934 l 1,19,20
 1070 967 1070 967 1097 986.5 c 128,-1,21
 1124 1006 1124 1006 1158 1006 c 2,22,-1
 1573 1006 l 2,23,24
 1605 1006 1605 1006 1631 986 c 128,-1,25
 1657 966 1657 966 1668 934 c 2,26,-1
 1855 395 l 1,27,28
 1856 388 1856 388 1865 388 c 128,-1,29
 1874 388 1874 388 1876 396 c 2,30,-1
 2035 933 l 2,31,32
 2045 966 2045 966 2071 986 c 128,-1,33
 2097 1006 2097 1006 2131 1006 c 2,34,-1
 2507 1006 l 2,35,36
 2528 1006 2528 1006 2542.5 992 c 128,-1,37
 2557 978 2557 978 2557 959 c 0,38,39
 2557 948 2557 948 2551 936 c 2,40,-1
 2188 70 l 2,41,42
 2175 39 2175 39 2145.5 19.5 c 128,-1,43
 2116 0 2116 0 2082 0 c 2,44,-1
 1570 0 l 2,45,46
 1537 0 1537 0 1510 20.5 c 128,-1,47
 1483 41 1483 41 1473 73 c 2,48,-1
 1338 480 l 2,49,50
 1335 488 1335 488 1328 488 c 0,51,52
 1320 488 1320 488 1318 480 c 2,53,-1
 1181 73 l 2,54,55
 1171 41 1171 41 1143 20.5 c 128,-1,56
 1115 0 1115 0 1082 0 c 2,57,-1
 570 0 l 2,0,1
EndSplineSet
EndChar

StartChar: x
Encoding: 120 120 91
Width: 2191
GlyphClass: 2
Flags: W
LayerCount: 2
Fore
SplineSet
184 0 m 2,0,1
 172 0 172 0 165 8 c 128,-1,2
 158 16 158 16 158 26 c 0,3,4
 158 37 158 37 168 46 c 0,5,6
 179 55 179 55 438.5 249.5 c 128,-1,7
 698 444 698 444 713 456 c 1,8,9
 724 463 724 463 724 476 c 0,10,11
 724 490 724 490 714 497 c 0,12,13
 690 516 690 516 423.5 732.5 c 128,-1,14
 157 949 157 949 147 958 c 1,15,16
 137 965 137 965 137 979 c 0,17,18
 137 990 137 990 145 998 c 128,-1,19
 153 1006 153 1006 165 1006 c 2,20,-1
 814 1006 l 2,21,22
 888 1006 888 1006 946 956 c 0,23,24
 951 953 951 953 986 923 c 128,-1,25
 1021 893 1021 893 1061.5 859 c 128,-1,26
 1102 825 1102 825 1115 815 c 0,27,28
 1126 806 1126 806 1141 806 c 0,29,30
 1155 806 1155 806 1166 814 c 0,31,32
 1183 828 1183 828 1262 892 c 128,-1,33
 1341 956 1341 956 1344 958 c 0,34,35
 1405 1006 1405 1006 1477 1006 c 2,36,37
 1941 1006 l 2,38,39
 1952 1006 1952 1006 1959.5 998.5 c 128,-1,40
 1967 991 1967 991 1967 981 c 0,41,42
 1967 968 1967 968 1956 960 c 0,43,44
 1948 954 1948 954 1709.5 775.5 c 128,-1,45
 1471 597 1471 597 1454 583 c 0,46,47
 1443 575 1443 575 1443 562 c 0,48,49
 1443 550 1443 550 1453 542 c 0,50,51
 1573 443 1573 443 2059 48 c 0,52,53
 2069 41 2069 41 2069 27 c 0,54,55
 2069 16 2069 16 2061 8 c 128,-1,56
 2053 0 2053 0 2041 0 c 2,57,-1
 1393 0 l 2,58,59
 1316 0 1316 0 1258 50 c 0,60,61
 1254 53 1254 53 1173 122 c 128,-1,62
 1092 191 1092 191 1077 203 c 0,63,64
 1064 214 1064 214 1049 214 c 0,65,66
 1035 214 1035 214 1022 204 c 0,67,68
 1004 189 1004 189 916.5 121.5 c 128,-1,69
 829 54 829 54 819 47 c 0,70,71
 759 0 759 0 681 0 c 2,72,-1
 184 0 l 2,0,1
EndSplineSet
EndChar

StartChar: y
Encoding: 121 121 92
Width: 1844
GlyphClass: 2
Flags: W
LayerCount: 2
Fore
SplineSet
610 -657 m 0,0,1
 424 -657 424 -657 311 -596 c 0,2,3
 280 -580 280 -580 280 -534 c 0,4,5
 280 -515 280 -515 287 -498 c 2,6,-1
 339 -375 l 2,7,8
 354 -340 354 -340 400 -340 c 0,9,10
 408 -340 408 -340 422 -344 c 0,11,12
 456 -355 456 -355 515.5 -363 c 128,-1,13
 575 -371 575 -371 604 -371 c 0,14,15
 781 -371 781 -371 795 -233 c 0,16,17
 795 -226 795 -226 791 -214.5 c 128,-1,18
 787 -203 787 -203 779.5 -188 c 128,-1,19
 772 -173 772 -173 766 -162.5 c 128,-1,20
 760 -152 760 -152 749.5 -134.5 c 128,-1,21
 739 -117 739 -117 737 -113 c 2,22,-1
 113 940 l 2,23,24
 106 951 106 951 106 964 c 0,25,26
 106 982 106 982 118.5 994 c 128,-1,27
 131 1006 131 1006 150 1006 c 2,28,-1
 606 1006 l 2,29,30
 640 1006 640 1006 668.5 987.5 c 128,-1,31
 697 969 697 969 712 937 c 1,32,-1
 995 387 l 1,33,34
 998 377 998 377 1010 377 c 0,35,36
 1020 377 1020 377 1026 390 c 0,37,38
 1029 397 1029 397 1239 934 c 0,39,40
 1252 968 1252 968 1279.5 987 c 128,-1,41
 1307 1006 1307 1006 1342 1006 c 2,42,-1
 1679 1006 l 2,43,44
 1700 1006 1700 1006 1714.5 991.5 c 128,-1,45
 1729 977 1729 977 1729 957 c 0,46,47
 1729 945 1729 945 1724 936 c 2,48,-1
 1162 -269 l 2,49,50
 1127 -345 1127 -345 1091.5 -401.5 c 128,-1,51
 1056 -458 1056 -458 1008.5 -508 c 128,-1,52
 961 -558 961 -558 905 -589.5 c 128,-1,53
 849 -621 849 -621 775 -639 c 128,-1,54
 701 -657 701 -657 610 -657 c 0,0,1
EndSplineSet
EndChar

StartChar: z
Encoding: 122 122 93
Width: 1665
GlyphClass: 2
Flags: W
LayerCount: 2
Fore
SplineSet
190 0 m 2,0,1
 175 0 175 0 162 11 c 128,-1,2
 149 22 149 22 149 37 c 2,3,-1
 149 220 l 2,4,5
 149 257 149 257 178 280 c 2,6,-1
 766 749 l 1,7,-1
 190 749 l 2,8,9
 175 749 175 749 164 760 c 128,-1,10
 153 771 153 771 153 786 c 2,11,-1
 153 969 l 2,12,13
 153 984 153 984 164 995 c 128,-1,14
 175 1006 175 1006 190 1006 c 2,15,-1
 1440 1006 l 2,16,17
 1455 1006 1455 1006 1468.5 995 c 128,-1,18
 1482 984 1482 984 1482 969 c 2,19,-1
 1482 783 l 2,20,21
 1482 746 1482 746 1453 722 c 2,22,-1
 884 257 l 1,23,-1
 1484 257 l 2,24,25
 1499 257 1499 257 1510 246 c 128,-1,26
 1521 235 1521 235 1521 220 c 2,27,-1
 1521 37 l 2,28,29
 1521 22 1521 22 1510 11 c 128,-1,30
 1499 0 1499 0 1484 0 c 2,31,-1
 190 0 l 2,0,1
EndSplineSet
EndChar

StartChar: braceleft
Encoding: 123 123 94
Width: 1172
GlyphClass: 2
Flags: W
LayerCount: 2
Fore
SplineSet
730 -123 m 2,0,1
 644 -123 644 -123 583.5 -99 c 128,-1,2
 523 -75 523 -75 487.5 -28 c 128,-1,3
 452 19 452 19 433.5 69.5 c 128,-1,4
 415 120 415 120 402 192 c 0,5,6
 400 203 400 203 397 225 c 0,7,8
 389 272 389 272 384 298 c 128,-1,9
 379 324 379 324 370.5 363 c 128,-1,10
 362 402 362 402 353 424.5 c 128,-1,11
 344 447 344 447 330 474.5 c 128,-1,12
 316 502 316 502 299 518 c 128,-1,13
 282 534 282 534 258 548 c 128,-1,14
 234 562 234 562 204 569 c 0,15,16
 162 579 162 579 144 612 c 128,-1,17
 126 645 126 645 126 710 c 0,18,19
 126 781 126 781 143.5 810.5 c 128,-1,20
 161 840 161 840 204 851 c 0,21,22
 300 874 300 874 345 975 c 1,23,24
 370 1034 370 1034 397 1195 c 0,25,26
 400 1217 400 1217 402 1228 c 0,27,28
 415 1300 415 1300 433.5 1350.5 c 128,-1,29
 452 1401 452 1401 487.5 1448 c 128,-1,30
 523 1495 523 1495 583.5 1519 c 128,-1,31
 644 1543 644 1543 730 1543 c 2,32,-1
 967 1543 l 2,33,34
 999 1543 999 1543 1021.5 1521.5 c 128,-1,35
 1044 1500 1044 1500 1044 1469 c 2,36,-1
 1044 1368 l 2,37,38
 1044 1292 1044 1292 968 1279 c 1,39,40
 872 1261 872 1261 847 1233 c 128,-1,41
 822 1205 822 1205 822 1110 c 2,42,-1
 822 1008 l 2,43,44
 822 911 822 911 776 831 c 128,-1,45
 730 751 730 751 631 725 c 0,46,47
 621 722 621 722 621 710 c 128,-1,48
 621 698 621 698 631 695 c 0,49,50
 727 666 727 666 774.5 585.5 c 128,-1,51
 822 505 822 505 822 412 c 2,52,-1
 822 310 l 2,53,54
 822 214 822 214 846.5 186.5 c 128,-1,55
 871 159 871 159 968 141 c 1,56,57
 1044 128 1044 128 1044 52 c 2,58,-1
 1044 -49 l 2,59,60
 1044 -80 1044 -80 1021.5 -101.5 c 128,-1,61
 999 -123 999 -123 967 -123 c 2,62,-1
 730 -123 l 2,0,1
EndSplineSet
EndChar

StartChar: bar
Encoding: 124 124 95
Width: 622
GlyphClass: 2
Flags: W
LayerCount: 2
Fore
SplineSet
238 -150 m 2,0,1
 205 -150 205 -150 183 -129 c 128,-1,2
 161 -108 161 -108 161 -76 c 2,3,-1
 161 1481 l 2,4,5
 161 1513 161 1513 183 1534 c 128,-1,6
 205 1555 205 1555 238 1555 c 2,7,-1
 384 1555 l 2,8,9
 417 1555 417 1555 439 1534 c 128,-1,10
 461 1513 461 1513 461 1481 c 2,11,-1
 461 -76 l 2,12,13
 461 -108 461 -108 439 -129 c 128,-1,14
 417 -150 417 -150 384 -150 c 2,15,-1
 238 -150 l 2,0,1
EndSplineSet
EndChar

StartChar: braceright
Encoding: 125 125 96
Width: 1175
GlyphClass: 2
Flags: W
LayerCount: 2
Fore
SplineSet
206 -123 m 2,0,1
 174 -123 174 -123 151.5 -101.5 c 128,-1,2
 129 -80 129 -80 129 -49 c 2,3,-1
 129 52 l 2,4,5
 129 128 129 128 205 141 c 1,6,7
 300 159 300 159 325 187 c 128,-1,8
 350 215 350 215 350 310 c 2,9,-1
 350 412 l 2,10,11
 350 509 350 509 396 589 c 128,-1,12
 442 669 442 669 541 695 c 0,13,14
 551 698 551 698 551 710 c 128,-1,15
 551 722 551 722 541 725 c 0,16,17
 445 754 445 754 397.5 834.5 c 128,-1,18
 350 915 350 915 350 1008 c 2,19,-1
 350 1110 l 2,20,21
 350 1206 350 1206 325.5 1233.5 c 128,-1,22
 301 1261 301 1261 205 1279 c 1,23,24
 129 1292 129 1292 129 1368 c 2,25,-1
 129 1469 l 2,26,27
 129 1500 129 1500 151.5 1521.5 c 128,-1,28
 174 1543 174 1543 206 1543 c 2,29,-1
 443 1543 l 2,30,31
 528 1543 528 1543 588.5 1519 c 128,-1,32
 649 1495 649 1495 684.5 1448 c 128,-1,33
 720 1401 720 1401 738.5 1350.5 c 128,-1,34
 757 1300 757 1300 770 1228 c 0,35,36
 772 1218 772 1218 775 1198 c 0,37,38
 784 1145 784 1145 788 1123.5 c 128,-1,39
 792 1102 792 1102 801.5 1059 c 128,-1,40
 811 1016 811 1016 819 996.5 c 128,-1,41
 827 977 827 977 842 947 c 128,-1,42
 857 917 857 917 873.5 902 c 128,-1,43
 890 887 890 887 914 872.5 c 128,-1,44
 938 858 938 858 968 851 c 0,45,46
 1010 841 1010 841 1028 808 c 128,-1,47
 1046 775 1046 775 1046 710 c 0,48,49
 1046 639 1046 639 1028.5 609.5 c 128,-1,50
 1011 580 1011 580 968 569 c 1,51,52
 871 547 871 547 827 445 c 0,53,54
 802 385 802 385 775 222 c 0,55,56
 772 202 772 202 770 192 c 0,57,58
 757 120 757 120 738.5 69.5 c 128,-1,59
 720 19 720 19 684.5 -28 c 128,-1,60
 649 -75 649 -75 588.5 -99 c 128,-1,61
 528 -123 528 -123 443 -123 c 2,62,-1
 206 -123 l 2,0,1
EndSplineSet
EndChar

StartChar: asciitilde
Encoding: 126 126 97
Width: 1583
GlyphClass: 2
Flags: W
LayerCount: 2
Fore
SplineSet
530 795 m 0,0,1
 356 795 356 795 162 928 c 1,2,3
 122 951 122 951 122 982 c 0,4,5
 122 993 122 993 131 1007 c 1,6,-1
 186 1107 l 1,7,8
 204 1143 204 1143 232 1143 c 0,9,10
 247 1143 247 1143 270 1129 c 0,11,12
 423 1036 423 1036 528 1036 c 0,13,14
 584 1036 584 1036 651 1054.5 c 128,-1,15
 718 1073 718 1073 771.5 1094.5 c 128,-1,16
 825 1116 825 1116 899.5 1134.5 c 128,-1,17
 974 1153 974 1153 1043 1153 c 0,18,19
 1208 1153 1208 1153 1411 1045 c 1,20,21
 1452 1026 1452 1026 1452 995 c 0,22,23
 1452 984 1452 984 1442 957.5 c 128,-1,24
 1432 931 1432 931 1419 902 c 2,25,-1
 1406 872 l 1,26,27
 1388 818 1388 818 1353 818 c 0,28,29
 1336 818 1336 818 1319 829 c 1,30,31
 1167 911 1167 911 1061 911 c 0,32,33
 984 911 984 911 892 882 c 128,-1,34
 800 853 800 853 706 824 c 128,-1,35
 612 795 612 795 530 795 c 0,0,1
EndSplineSet
EndChar

StartChar: cent
Encoding: 162 162 99
Width: 1765
GlyphClass: 2
Flags: W
LayerCount: 2
Fore
SplineSet
935 257 m 1,0,1
 935 749 l 1,2,3
 822 730 822 730 754.5 670.5 c 128,-1,4
 687 611 687 611 687 506 c 128,-1,5
 687 401 687 401 754 340 c 128,-1,6
 821 279 821 279 935 257 c 1,0,1
1002 -204 m 2,7,8
 968 -204 968 -204 951.5 -191 c 128,-1,9
 935 -178 935 -178 935 -147 c 2,10,-1
 935 -5 l 1,11,12
 807 -2 807 -2 694 16.5 c 128,-1,13
 581 35 581 35 476 74 c 128,-1,14
 371 113 371 113 295.5 170 c 128,-1,15
 220 227 220 227 175 313 c 128,-1,16
 130 399 130 399 130 506 c 0,17,18
 130 610 130 610 175.5 695 c 128,-1,19
 221 780 221 780 297.5 836.5 c 128,-1,20
 374 893 374 893 479 932.5 c 128,-1,21
 584 972 584 972 697 990.5 c 128,-1,22
 810 1009 810 1009 935 1012 c 1,23,-1
 935 1214 l 2,24,25
 935 1245 935 1245 951.5 1258 c 128,-1,26
 968 1271 968 1271 1002 1271 c 2,27,-1
 1055 1271 l 2,28,29
 1089 1271 1089 1271 1105.5 1258 c 128,-1,30
 1122 1245 1122 1245 1122 1214 c 2,31,-1
 1122 1007 l 1,32,33
 1380 988 1380 988 1562 916 c 0,34,35
 1583 907 1583 907 1596 888 c 128,-1,36
 1609 869 1609 869 1609 848 c 0,37,38
 1609 842 1609 842 1608 836 c 128,-1,39
 1607 830 1607 830 1605 825 c 0,40,41
 1601 815 1601 815 1564 723 c 0,42,43
 1546 679 1546 679 1498 679 c 0,44,45
 1484 679 1484 679 1470 683 c 0,46,47
 1292 744 1292 744 1122 756 c 1,48,-1
 1122 245 l 1,49,50
 1294 253 1294 253 1480 307 c 0,51,52
 1493 311 1493 311 1506 311 c 0,53,54
 1529 311 1529 311 1546.5 299 c 128,-1,55
 1564 287 1564 287 1572 266 c 1,56,57
 1586 223 1586 223 1609 162 c 0,58,59
 1611 157 1611 157 1612 151.5 c 128,-1,60
 1613 146 1613 146 1613 141 c 0,61,62
 1613 119 1613 119 1599.5 101 c 128,-1,63
 1586 83 1586 83 1563 77 c 1,64,65
 1361 13 1361 13 1122 -3 c 1,66,-1
 1122 -147 l 2,67,68
 1122 -178 1122 -178 1105.5 -191 c 128,-1,69
 1089 -204 1089 -204 1055 -204 c 2,70,-1
 1002 -204 l 2,7,8
EndSplineSet
EndChar

StartChar: sterling
Encoding: 163 163 100
Width: 2201
GlyphClass: 2
Flags: W
LayerCount: 2
Fore
SplineSet
220 0 m 2,0,1
 188 0 188 0 167 21.5 c 128,-1,2
 146 43 146 43 146 75 c 2,3,-1
 146 181 l 2,4,5
 146 213 146 213 167 234.5 c 128,-1,6
 188 256 188 256 220 256 c 2,7,-1
 338 256 l 2,8,9
 359 256 359 256 364.5 268 c 128,-1,10
 370 280 370 280 370 314 c 2,11,-1
 370 560 l 2,12,13
 370 603 370 603 338 603 c 2,14,-1
 220 603 l 2,15,16
 188 603 188 603 167 624.5 c 128,-1,17
 146 646 146 646 146 678 c 2,18,-1
 146 768 l 2,19,20
 146 800 146 800 167 821.5 c 128,-1,21
 188 843 188 843 220 843 c 2,22,-1
 354 843 l 1,23,24
 376 1006 376 1006 438.5 1120.5 c 128,-1,25
 501 1235 501 1235 620 1316.5 c 128,-1,26
 739 1398 739 1398 924.5 1436.5 c 128,-1,27
 1110 1475 1110 1475 1371 1475 c 0,28,29
 1535 1475 1535 1475 1721 1448.5 c 128,-1,30
 1907 1422 1907 1422 2006 1393 c 1,31,32
 2059 1379 2059 1379 2059 1336 c 0,33,34
 2059 1307 2059 1307 2055 1274 c 128,-1,35
 2051 1241 2051 1241 2044 1200.5 c 128,-1,36
 2037 1160 2037 1160 2034 1139 c 0,37,38
 2027 1095 2027 1095 1990 1095 c 0,39,40
 1980 1095 1980 1095 1967 1098 c 0,41,42
 1966 1098 1966 1098 1936.5 1103.5 c 128,-1,43
 1907 1109 1907 1109 1879 1114 c 128,-1,44
 1851 1119 1851 1119 1806 1126.5 c 128,-1,45
 1761 1134 1761 1134 1718 1140 c 128,-1,46
 1675 1146 1675 1146 1628 1152 c 128,-1,47
 1581 1158 1581 1158 1535 1161 c 128,-1,48
 1489 1164 1489 1164 1452 1164 c 0,49,50
 1367 1164 1367 1164 1311 1159 c 128,-1,51
 1255 1154 1255 1154 1203.5 1139 c 128,-1,52
 1152 1124 1152 1124 1123.5 1096 c 128,-1,53
 1095 1068 1095 1068 1078.5 1021 c 128,-1,54
 1062 974 1062 974 1062 906 c 2,55,-1
 1062 843 l 1,56,-1
 1462 843 l 2,57,58
 1494 843 1494 843 1515 821.5 c 128,-1,59
 1536 800 1536 800 1536 768 c 2,60,-1
 1536 678 l 2,61,62
 1536 646 1536 646 1515 624.5 c 128,-1,63
 1494 603 1494 603 1462 603 c 2,64,-1
 1060 603 l 1,65,-1
 1060 356 l 2,66,67
 1060 319 1060 319 1062 303.5 c 128,-1,68
 1064 288 1064 288 1076.5 274.5 c 128,-1,69
 1089 261 1089 261 1111 258.5 c 128,-1,70
 1133 256 1133 256 1178 256 c 2,71,-1
 1987 256 l 2,72,73
 2013 256 2013 256 2031 240.5 c 128,-1,74
 2049 225 2049 225 2049 195 c 2,75,-1
 2049 54 l 2,76,77
 2049 29 2049 29 2031 14.5 c 128,-1,78
 2013 0 2013 0 1987 0 c 2,79,-1
 220 0 l 2,0,1
EndSplineSet
EndChar

StartChar: currency
Encoding: 164 164 101
Width: 1362
GlyphClass: 2
Flags: W
LayerCount: 2
Fore
SplineSet
680 580 m 0,0,1
 755 580 755 580 816.5 601 c 128,-1,2
 878 622 878 622 918.5 656.5 c 128,-1,3
 959 691 959 691 986.5 737.5 c 128,-1,4
 1014 784 1014 784 1026 832.5 c 128,-1,5
 1038 881 1038 881 1038 931 c 0,6,7
 1038 998 1038 998 1018 1059 c 128,-1,8
 998 1120 998 1120 957 1171.5 c 128,-1,9
 916 1223 916 1223 844.5 1254 c 128,-1,10
 773 1285 773 1285 680 1285 c 0,11,12
 604 1285 604 1285 542.5 1264.5 c 128,-1,13
 481 1244 481 1244 440.5 1210 c 128,-1,14
 400 1176 400 1176 372.5 1129.5 c 128,-1,15
 345 1083 345 1083 333 1033.5 c 128,-1,16
 321 984 321 984 321 931 c 0,17,18
 321 867 321 867 341 807.5 c 128,-1,19
 361 748 361 748 402 695.5 c 128,-1,20
 443 643 443 643 514.5 611.5 c 128,-1,21
 586 580 586 580 680 580 c 0,0,1
680 426 m 0,22,23
 490 426 490 426 355 515 c 1,24,-1
 324 484 l 2,25,26
 285 445 285 445 267 445 c 0,27,28
 253 445 253 445 242 457 c 2,29,-1
 210 489 l 2,30,31
 196 503 196 503 196 518 c 0,32,33
 196 537 196 537 233 574 c 2,34,-1
 258 599 l 1,35,36
 140 734 140 734 140 931 c 0,37,38
 140 1130 140 1130 260 1268 c 1,39,-1
 233 1295 l 2,40,41
 194 1334 194 1334 194 1352 c 0,42,43
 194 1365 194 1365 207 1377 c 2,44,-1
 239 1409 l 2,45,46
 253 1423 253 1423 268 1423 c 0,47,48
 287 1423 287 1423 324 1386 c 2,49,-1
 358 1352 l 1,50,51
 494 1440 494 1440 680 1440 c 128,-1,52
 866 1440 866 1440 1002 1352 c 1,53,-1
 1035 1385 l 2,54,55
 1073 1423 1073 1423 1092 1423 c 0,56,57
 1106 1423 1106 1423 1120 1409 c 2,58,-1
 1153 1377 l 2,59,60
 1165 1364 1165 1364 1165 1352 c 0,61,62
 1165 1334 1165 1334 1126 1295 c 2,63,-1
 1099 1268 l 1,64,65
 1219 1130 1219 1130 1219 931 c 0,66,67
 1219 736 1219 736 1102 599 c 1,68,-1
 1126 575 l 2,69,70
 1164 537 1164 537 1164 518 c 0,71,72
 1164 504 1164 504 1150 490 c 2,73,-1
 1118 457 l 1,74,75
 1104 445 1104 445 1093 445 c 0,76,77
 1073 445 1073 445 1036 484 c 1,78,-1
 1005 515 l 1,79,80
 868 426 868 426 680 426 c 0,22,23
EndSplineSet
EndChar

StartChar: yen
Encoding: 165 165 102
Width: 2241
GlyphClass: 2
Flags: W
LayerCount: 2
Fore
SplineSet
860 0 m 2,0,1
 828 0 828 0 806 22 c 128,-1,2
 784 44 784 44 784 76 c 2,3,-1
 784 216 l 1,4,-1
 504 216 l 2,5,6
 484 216 484 216 473 226.5 c 128,-1,7
 462 237 462 237 459.5 251 c 128,-1,8
 457 265 457 265 457 290 c 2,9,-1
 457 321 l 2,10,11
 457 359 457 359 466 377 c 128,-1,12
 475 395 475 395 504 395 c 2,13,-1
 784 395 l 1,14,-1
 707 555 l 1,15,-1
 440 555 l 2,16,17
 420 555 420 555 409 565.5 c 128,-1,18
 398 576 398 576 395.5 590 c 128,-1,19
 393 604 393 604 393 629 c 2,20,-1
 393 660 l 2,21,22
 393 698 393 698 402 716 c 128,-1,23
 411 734 411 734 440 734 c 2,24,-1
 589 734 l 1,25,-1
 90 1376 l 2,26,27
 79 1390 79 1390 79 1403 c 0,28,29
 79 1417 79 1417 89.5 1427.5 c 128,-1,30
 100 1438 100 1438 117 1438 c 2,31,-1
 681 1438 l 2,32,33
 716 1438 716 1438 749.5 1421 c 128,-1,34
 783 1404 783 1404 805 1375 c 2,35,-1
 1171 889 l 1,36,-1
 1527 1374 l 2,37,38
 1575 1438 1575 1438 1649 1438 c 2,39,-1
 2117 1438 l 2,40,41
 2134 1438 2134 1438 2145.5 1427.5 c 128,-1,42
 2157 1417 2157 1417 2157 1402 c 0,43,44
 2157 1389 2157 1389 2146 1375 c 2,45,-1
 1655 734 l 1,46,-1
 1791 734 l 2,47,48
 1811 734 1811 734 1822 723.5 c 128,-1,49
 1833 713 1833 713 1835.5 699 c 128,-1,50
 1838 685 1838 685 1838 660 c 2,51,-1
 1838 629 l 2,52,53
 1838 591 1838 591 1829 573 c 128,-1,54
 1820 555 1820 555 1791 555 c 2,55,-1
 1540 555 l 1,56,-1
 1466 395 l 1,57,-1
 1759 395 l 2,58,59
 1779 395 1779 395 1790 384.5 c 128,-1,60
 1801 374 1801 374 1803.5 360 c 128,-1,61
 1806 346 1806 346 1806 321 c 2,62,-1
 1806 290 l 2,63,64
 1806 252 1806 252 1797 234 c 128,-1,65
 1788 216 1788 216 1759 216 c 2,66,-1
 1466 216 l 1,67,-1
 1466 76 l 2,68,69
 1466 44 1466 44 1444.5 22 c 128,-1,70
 1423 0 1423 0 1391 0 c 2,71,-1
 860 0 l 2,0,1
EndSplineSet
EndChar

StartChar: brokenbar
Encoding: 166 166 103
Width: 617
GlyphClass: 2
Flags: W
LayerCount: 2
Fore
SplineSet
234 819 m 2,0,1
 202 819 202 819 181 841 c 128,-1,2
 160 863 160 863 160 896 c 2,3,-1
 160 1478 l 2,4,5
 160 1511 160 1511 181 1533 c 128,-1,6
 202 1555 202 1555 234 1555 c 2,7,-1
 383 1555 l 2,8,9
 415 1555 415 1555 436 1533 c 128,-1,10
 457 1511 457 1511 457 1478 c 2,11,-1
 457 896 l 2,12,13
 457 863 457 863 436 841 c 128,-1,14
 415 819 415 819 383 819 c 2,15,-1
 234 819 l 2,0,1
234 -150 m 2,16,17
 202 -150 202 -150 181 -128 c 128,-1,18
 160 -106 160 -106 160 -73 c 2,19,-1
 160 509 l 2,20,21
 160 542 160 542 181 564 c 128,-1,22
 202 586 202 586 234 586 c 2,23,-1
 383 586 l 2,24,25
 415 586 415 586 436 564 c 128,-1,26
 457 542 457 542 457 509 c 2,27,-1
 457 -73 l 2,28,29
 457 -106 457 -106 436 -128 c 128,-1,30
 415 -150 415 -150 383 -150 c 2,31,-1
 234 -150 l 2,16,17
EndSplineSet
EndChar

StartChar: section
Encoding: 167 167 104
Width: 1860
GlyphClass: 2
Flags: W
LayerCount: 2
Fore
SplineSet
1302 639 m 1,0,1
 1310 650 l 2,2,3
 1318 660 1318 660 1326.5 679.5 c 128,-1,4
 1335 699 1335 699 1335 716 c 0,5,6
 1334 759 1334 759 1232 779 c 0,7,8
 1167 791 1167 791 890 809 c 0,9,10
 695 821 695 821 592 844 c 1,11,12
 557 803 557 803 557 760 c 0,13,14
 557 739 557 739 572.5 726.5 c 128,-1,15
 588 714 588 714 640 702.5 c 128,-1,16
 692 691 692 691 774 682.5 c 128,-1,17
 856 674 856 674 1006 662 c 0,18,19
 1029 660 1029 660 1139 653 c 128,-1,20
 1249 646 1249 646 1302 639 c 1,0,1
907 -41 m 0,21,22
 727 -41 727 -41 534 -17.5 c 128,-1,23
 341 6 341 6 204 59 c 0,24,25
 185 66 185 66 172.5 85.5 c 128,-1,26
 160 105 160 105 160 127 c 0,27,28
 160 130 160 130 160.5 133 c 128,-1,29
 161 136 161 136 161.5 138.5 c 128,-1,30
 162 141 162 141 162.5 143.5 c 128,-1,31
 163 146 163 146 164 149 c 128,-1,32
 165 152 165 152 166 154 c 2,33,-1
 218 259 l 2,34,35
 230 283 230 283 251 296.5 c 128,-1,36
 272 310 272 310 296 310 c 0,37,38
 310 310 310 310 323 306 c 0,39,40
 610 218 610 218 1000 218 c 0,41,42
 1120 218 1120 218 1172 235.5 c 128,-1,43
 1224 253 1224 253 1224 294 c 0,44,45
 1224 343 1224 343 1168 357.5 c 128,-1,46
 1112 372 1112 372 890 387 c 1,47,-1
 888 387 l 1,48,-1
 887 387 l 1,49,-1
 886 387 l 1,50,-1
 885 387 l 1,51,-1
 884 387 l 1,52,-1
 883 387 l 1,53,-1
 882 388 l 1,54,-1
 881 388 l 1,55,-1
 880 388 l 1,56,-1
 879 388 l 1,57,-1
 878 388 l 1,58,-1
 877 388 l 1,59,-1
 876 388 l 1,60,-1
 875 388 l 1,61,-1
 874 388 l 1,62,-1
 873 388 l 1,63,-1
 872 388 l 1,64,-1
 871 388 l 1,65,-1
 870 388 l 1,66,-1
 869 388 l 1,67,-1
 868 389 l 1,68,-1
 867 389 l 1,69,-1
 866 389 l 1,70,-1
 865 389 l 1,71,-1
 864 389 l 1,72,-1
 863 389 l 1,73,-1
 862 389 l 1,74,-1
 861 389 l 1,75,-1
 860 389 l 1,76,-1
 859 389 l 1,77,-1
 858 389 l 1,78,79
 567 409 567 409 432 444 c 0,80,81
 155 517 155 517 155 704 c 0,82,83
 155 839 155 839 279 926 c 1,84,85
 155 999 155 999 155 1126 c 0,86,87
 155 1192 155 1192 183 1245 c 128,-1,88
 211 1298 211 1298 256 1334 c 128,-1,89
 301 1370 301 1370 366 1396.5 c 128,-1,90
 431 1423 431 1423 494.5 1437.5 c 128,-1,91
 558 1452 558 1452 634.5 1461 c 128,-1,92
 711 1470 711 1470 768.5 1472.5 c 128,-1,93
 826 1475 826 1475 888 1475 c 0,94,95
 1108 1475 1108 1475 1259 1458.5 c 128,-1,96
 1410 1442 1410 1442 1555 1386 c 0,97,98
 1574 1378 1574 1378 1586 1360 c 128,-1,99
 1598 1342 1598 1342 1598 1321 c 0,100,101
 1598 1313 1598 1313 1596 1306 c 128,-1,102
 1594 1299 1594 1299 1591 1292 c 2,103,-1
 1546 1198 l 2,104,105
 1535 1177 1535 1177 1515 1165 c 128,-1,106
 1495 1153 1495 1153 1470 1153 c 0,107,108
 1466 1153 1466 1153 1462 1153.5 c 128,-1,109
 1458 1154 1458 1154 1454.5 1154.5 c 128,-1,110
 1451 1155 1451 1155 1447 1156 c 128,-1,111
 1443 1157 1443 1157 1439 1158 c 0,112,113
 1336 1193 1336 1193 1218 1209 c 128,-1,114
 1100 1225 1100 1225 925 1225 c 0,115,116
 807 1225 807 1225 736.5 1216 c 128,-1,117
 666 1207 666 1207 641 1192 c 128,-1,118
 616 1177 616 1177 616 1155 c 1,119,120
 622 1122 622 1122 713 1104 c 1,121,122
 748 1100 748 1100 1006 1084 c 0,123,124
 1017 1083 1017 1083 1040 1082 c 0,125,126
 1102 1078 1102 1078 1145.5 1075 c 128,-1,127
 1189 1072 1189 1072 1250 1065.5 c 128,-1,128
 1311 1059 1311 1059 1353.5 1051 c 128,-1,129
 1396 1043 1396 1043 1448 1029.5 c 128,-1,130
 1500 1016 1500 1016 1535 998.5 c 128,-1,131
 1570 981 1570 981 1606 955 c 128,-1,132
 1642 929 1642 929 1663.5 897 c 128,-1,133
 1685 865 1685 865 1698.5 822.5 c 128,-1,134
 1712 780 1712 780 1712 729 c 0,135,136
 1712 608 1712 608 1615 526 c 1,137,138
 1712 448 1712 448 1712 307 c 0,139,140
 1712 226 1712 226 1671 165 c 128,-1,141
 1630 104 1630 104 1559.5 65 c 128,-1,142
 1489 26 1489 26 1384.5 2 c 128,-1,143
 1280 -22 1280 -22 1165 -31.5 c 128,-1,144
 1050 -41 1050 -41 907 -41 c 0,21,22
EndSplineSet
EndChar

StartChar: dieresis
Encoding: 168 168 105
Width: 1265
GlyphClass: 2
Flags: W
LayerCount: 2
Fore
SplineSet
893 1200 m 2,0,1
 861 1200 861 1200 838.5 1222.5 c 128,-1,2
 816 1245 816 1245 816 1277 c 2,3,-1
 816 1407 l 2,4,5
 816 1439 816 1439 838.5 1461.5 c 128,-1,6
 861 1484 861 1484 893 1484 c 2,7,-1
 1037 1484 l 2,8,9
 1069 1484 1069 1484 1091.5 1461.5 c 128,-1,10
 1114 1439 1114 1439 1114 1407 c 2,11,-1
 1114 1277 l 2,12,13
 1114 1245 1114 1245 1091.5 1222.5 c 128,-1,14
 1069 1200 1069 1200 1037 1200 c 2,15,-1
 893 1200 l 2,0,1
228 1200 m 2,16,17
 196 1200 196 1200 173.5 1222.5 c 128,-1,18
 151 1245 151 1245 151 1277 c 2,19,-1
 151 1407 l 2,20,21
 151 1439 151 1439 173.5 1461.5 c 128,-1,22
 196 1484 196 1484 228 1484 c 2,23,-1
 372 1484 l 2,24,25
 404 1484 404 1484 426.5 1461.5 c 128,-1,26
 449 1439 449 1439 449 1407 c 2,27,-1
 449 1277 l 2,28,29
 449 1245 449 1245 426.5 1222.5 c 128,-1,30
 404 1200 404 1200 372 1200 c 2,31,-1
 228 1200 l 2,16,17
EndSplineSet
EndChar

StartChar: copyright
Encoding: 169 169 106
Width: 1906
GlyphClass: 2
Flags: W
LayerCount: 2
Fore
SplineSet
952 -41 m 128,-1,1
 754 -41 754 -41 596 21 c 128,-1,2
 438 83 438 83 339 189 c 128,-1,3
 240 295 240 295 188 430 c 128,-1,4
 136 565 136 565 136 717 c 128,-1,5
 136 869 136 869 188 1004 c 128,-1,6
 240 1139 240 1139 339 1245 c 128,-1,7
 438 1351 438 1351 596 1413 c 128,-1,8
 754 1475 754 1475 952 1475 c 128,-1,9
 1150 1475 1150 1475 1308 1413 c 128,-1,10
 1466 1351 1466 1351 1565 1245 c 128,-1,11
 1664 1139 1664 1139 1716 1004 c 128,-1,12
 1768 869 1768 869 1768 717 c 128,-1,13
 1768 565 1768 565 1716 430 c 128,-1,14
 1664 295 1664 295 1565 189 c 128,-1,15
 1466 83 1466 83 1308 21 c 128,-1,0
 1150 -41 1150 -41 952 -41 c 128,-1,1
955 124 m 128,-1,17
 1085 124 1085 124 1191 159.5 c 128,-1,18
 1297 195 1297 195 1366.5 252.5 c 128,-1,19
 1436 310 1436 310 1483.5 387.5 c 128,-1,20
 1531 465 1531 465 1551.5 546.5 c 128,-1,21
 1572 628 1572 628 1572 713 c 0,22,23
 1572 802 1572 802 1551.5 884.5 c 128,-1,24
 1531 967 1531 967 1483.5 1045 c 128,-1,25
 1436 1123 1436 1123 1366.5 1180.5 c 128,-1,26
 1297 1238 1297 1238 1191 1272.5 c 128,-1,27
 1085 1307 1085 1307 955 1307 c 128,-1,28
 825 1307 825 1307 718.5 1272.5 c 128,-1,29
 612 1238 612 1238 542.5 1180.5 c 128,-1,30
 473 1123 473 1123 425.5 1045 c 128,-1,31
 378 967 378 967 357.5 884.5 c 128,-1,32
 337 802 337 802 337 713 c 0,33,34
 337 628 337 628 357.5 546.5 c 128,-1,35
 378 465 378 465 425.5 387.5 c 128,-1,36
 473 310 473 310 542.5 252.5 c 128,-1,37
 612 195 612 195 718.5 159.5 c 128,-1,16
 825 124 825 124 955 124 c 128,-1,17
990 330 m 0,38,39
 896 330 896 330 815 351.5 c 128,-1,40
 734 373 734 373 666 418 c 128,-1,41
 598 463 598 463 558.5 543 c 128,-1,42
 519 623 519 623 519 731 c 0,43,44
 519 836 519 836 559 915 c 128,-1,45
 599 994 599 994 667 1039 c 128,-1,46
 735 1084 735 1084 814 1105.5 c 128,-1,47
 893 1127 893 1127 981 1127 c 0,48,49
 1167 1127 1167 1127 1303 1053 c 0,50,51
 1329 1039 1329 1039 1329 1003 c 0,52,53
 1329 983 1329 983 1318 942.5 c 128,-1,54
 1307 902 1307 902 1307 900 c 0,55,56
 1302 882 1302 882 1290.5 871.5 c 128,-1,57
 1279 861 1279 861 1266 861 c 0,58,59
 1259 861 1259 861 1253 864 c 0,60,61
 1133 920 1133 920 1027 920 c 0,62,63
 937 920 937 920 882 875 c 128,-1,64
 827 830 827 830 827 731 c 0,65,66
 827 626 827 626 886 580.5 c 128,-1,67
 945 535 945 535 1041 535 c 0,68,69
 1149 535 1149 535 1263 580 c 0,70,71
 1266 582 1266 582 1269.5 582.5 c 128,-1,72
 1273 583 1273 583 1276 583 c 0,73,74
 1288 583 1288 583 1297.5 573 c 128,-1,75
 1307 563 1307 563 1311 546 c 0,76,77
 1325 494 1325 494 1332 462 c 1,78,79
 1335 454 1335 454 1335 444 c 0,80,81
 1335 428 1335 428 1327.5 413.5 c 128,-1,82
 1320 399 1320 399 1308 394 c 0,83,84
 1161 330 1161 330 990 330 c 0,38,39
EndSplineSet
EndChar

StartChar: ordfeminine
Encoding: 170 170 107
Width: 2021
GlyphClass: 2
Flags: W
LayerCount: 2
Fore
SplineSet
616 718 m 0,0,1
 765 718 765 718 870 780.5 c 128,-1,2
 975 843 975 843 975 932 c 0,3,4
 975 960 975 960 951 960 c 0,5,6
 926 960 926 960 918 958 c 0,7,8
 693 930 693 930 585 895.5 c 128,-1,9
 477 861 477 861 477 802 c 0,10,11
 477 761 477 761 511.5 739.5 c 128,-1,12
 546 718 546 718 616 718 c 0,0,1
528 533 m 0,13,14
 373 533 373 533 256.5 561 c 128,-1,15
 140 589 140 589 75 643.5 c 128,-1,16
 10 698 10 698 10 774 c 0,17,18
 10 837 10 837 51 888 c 128,-1,19
 92 939 92 939 159 971.5 c 128,-1,20
 226 1004 226 1004 312 1028 c 128,-1,21
 398 1052 398 1052 487 1064.5 c 128,-1,22
 576 1077 576 1077 662 1086 c 128,-1,23
 748 1095 748 1095 815 1098.5 c 128,-1,24
 882 1102 882 1102 923 1107 c 128,-1,25
 964 1112 964 1112 964 1118 c 2,26,-1
 964 1130 l 2,27,28
 964 1214 964 1214 907 1256 c 128,-1,29
 850 1298 850 1298 718 1298 c 0,30,31
 652 1298 652 1298 576.5 1279 c 128,-1,32
 501 1260 501 1260 456 1220 c 1,33,34
 430 1195 430 1195 405 1195 c 0,35,36
 403 1195 403 1195 387 1197 c 2,37,-1
 63 1226 l 2,38,39
 52 1227 52 1227 43.5 1237 c 128,-1,40
 35 1247 35 1247 35 1258 c 0,41,42
 35 1274 35 1274 45 1296 c 0,43,44
 86 1388 86 1388 247 1431 c 128,-1,45
 408 1474 408 1474 713 1474 c 0,46,47
 843 1474 843 1474 949 1464.5 c 128,-1,48
 1055 1455 1055 1455 1153 1429 c 128,-1,49
 1251 1403 1251 1403 1317.5 1362.5 c 128,-1,50
 1384 1322 1384 1322 1423.5 1256 c 128,-1,51
 1463 1190 1463 1190 1463 1103 c 2,52,-1
 1463 626 l 2,53,54
 1463 601 1463 601 1448 584.5 c 128,-1,55
 1433 568 1433 568 1410 568 c 2,56,-1
 1307 568 l 2,57,58
 1281 568 1281 568 1258.5 583 c 128,-1,59
 1236 598 1236 598 1223 625 c 0,60,61
 1217 638 1217 638 1201 668 c 128,-1,62
 1185 698 1185 698 1174 719.5 c 128,-1,63
 1163 741 1163 741 1160 750 c 0,64,65
 1155 766 1155 766 1148 766 c 0,66,67
 1142 766 1142 766 1134 753 c 1,68,69
 1061 651 1061 651 906 592 c 128,-1,70
 751 533 751 533 528 533 c 0,13,14
EndSplineSet
EndChar

StartChar: guillemotleft
Encoding: 171 171 108
Width: 1460
GlyphClass: 2
Flags: W
LayerCount: 2
Fore
SplineSet
1255 29 m 128,-1,1
 1230 29 1230 29 1197 49 c 1,2,-1
 814 303 l 2,3,4
 761 339 761 339 739 372.5 c 128,-1,5
 717 406 717 406 717 453 c 2,6,-1
 717 606 l 2,7,8
 717 703 717 703 814 768 c 1,9,-1
 1196 1016 l 1,10,11
 1230 1036 1230 1036 1255 1036 c 128,-1,12
 1280 1036 1280 1036 1295 1020 c 128,-1,13
 1310 1004 1310 1004 1310 987 c 2,14,-1
 1310 888 l 2,15,16
 1310 838 1310 838 1299.5 810.5 c 128,-1,17
 1289 783 1289 783 1251 746 c 1,18,-1
 1002 568 l 1,19,20
 985 552 985 552 985 536 c 0,21,22
 985 518 985 518 1002 501 c 1,23,-1
 1251 323 l 1,24,25
 1289 286 1289 286 1299.5 259 c 128,-1,26
 1310 232 1310 232 1310 182 c 2,27,-1
 1310 80 l 2,28,29
 1310 62 1310 62 1295 45.5 c 128,-1,0
 1280 29 1280 29 1255 29 c 128,-1,1
671 29 m 128,-1,31
 646 29 646 29 613 49 c 1,32,-1
 230 303 l 2,33,34
 177 339 177 339 155 372.5 c 128,-1,35
 133 406 133 406 133 453 c 2,36,-1
 133 606 l 2,37,38
 133 703 133 703 230 768 c 1,39,-1
 613 1016 l 1,40,41
 646 1036 646 1036 671 1036 c 128,-1,42
 696 1036 696 1036 711 1020 c 128,-1,43
 726 1004 726 1004 726 987 c 2,44,-1
 726 888 l 2,45,46
 726 838 726 838 715.5 811 c 128,-1,47
 705 784 705 784 667 746 c 1,48,-1
 417 568 l 1,49,50
 401 552 401 552 401 536 c 0,51,52
 401 518 401 518 417 501 c 1,53,-1
 667 323 l 1,54,55
 705 286 705 286 715.5 259 c 128,-1,56
 726 232 726 232 726 182 c 2,57,-1
 726 80 l 2,58,59
 726 62 726 62 711 45.5 c 128,-1,30
 696 29 696 29 671 29 c 128,-1,31
EndSplineSet
EndChar

StartChar: logicalnot
Encoding: 172 172 109
Width: 1303
GlyphClass: 2
Flags: W
LayerCount: 2
Fore
SplineSet
923 129 m 2,0,1
 891 129 891 129 870 151 c 128,-1,2
 849 173 849 173 849 206 c 2,3,-1
 849 469 l 2,4,5
 849 484 849 484 838 495 c 128,-1,6
 827 506 827 506 812 506 c 2,7,-1
 202 506 l 2,8,9
 170 506 170 506 149 527 c 128,-1,10
 128 548 128 548 128 580 c 2,11,-1
 128 718 l 2,12,13
 128 750 128 750 149 771 c 128,-1,14
 170 792 170 792 202 792 c 2,15,-1
 1083 792 l 2,16,17
 1115 792 1115 792 1137.5 770.5 c 128,-1,18
 1160 749 1160 749 1160 717 c 2,19,-1
 1160 206 l 2,20,21
 1160 173 1160 173 1139 151 c 128,-1,22
 1118 129 1118 129 1086 129 c 2,23,-1
 923 129 l 2,0,1
EndSplineSet
EndChar

StartChar: uni00AD
Encoding: 173 173 110
Width: 1024
GlyphClass: 2
Flags: W
LayerCount: 2
Fore
SplineSet
177 449 m 2,0,1
 156 449 156 449 141.5 469.5 c 128,-1,2
 127 490 127 490 127 519 c 2,3,-1
 127 651 l 2,4,5
 127 675 127 675 141.5 692 c 128,-1,6
 156 709 156 709 177 709 c 2,7,-1
 846 709 l 2,8,9
 867 709 867 709 881.5 691 c 128,-1,10
 896 673 896 673 896 648 c 2,11,-1
 896 513 l 2,12,13
 896 487 896 487 881.5 468 c 128,-1,14
 867 449 867 449 846 449 c 2,15,-1
 177 449 l 2,0,1
EndSplineSet
EndChar

StartChar: registered
Encoding: 174 174 111
Width: 1906
GlyphClass: 2
Flags: W
LayerCount: 2
Fore
SplineSet
952 -41 m 128,-1,1
 754 -41 754 -41 596 21 c 128,-1,2
 438 83 438 83 339 189 c 128,-1,3
 240 295 240 295 188 430 c 128,-1,4
 136 565 136 565 136 717 c 128,-1,5
 136 869 136 869 188 1004 c 128,-1,6
 240 1139 240 1139 339 1245 c 128,-1,7
 438 1351 438 1351 596 1413 c 128,-1,8
 754 1475 754 1475 952 1475 c 128,-1,9
 1150 1475 1150 1475 1308 1413 c 128,-1,10
 1466 1351 1466 1351 1565 1245 c 128,-1,11
 1664 1139 1664 1139 1716 1004 c 128,-1,12
 1768 869 1768 869 1768 717 c 128,-1,13
 1768 565 1768 565 1716 430 c 128,-1,14
 1664 295 1664 295 1565 189 c 128,-1,15
 1466 83 1466 83 1308 21 c 128,-1,0
 1150 -41 1150 -41 952 -41 c 128,-1,1
955 124 m 128,-1,17
 1085 124 1085 124 1191 159.5 c 128,-1,18
 1297 195 1297 195 1366.5 252.5 c 128,-1,19
 1436 310 1436 310 1483.5 387.5 c 128,-1,20
 1531 465 1531 465 1551.5 546.5 c 128,-1,21
 1572 628 1572 628 1572 713 c 0,22,23
 1572 802 1572 802 1551.5 884.5 c 128,-1,24
 1531 967 1531 967 1483.5 1045 c 128,-1,25
 1436 1123 1436 1123 1366.5 1180.5 c 128,-1,26
 1297 1238 1297 1238 1191 1272.5 c 128,-1,27
 1085 1307 1085 1307 955 1307 c 128,-1,28
 825 1307 825 1307 718.5 1272.5 c 128,-1,29
 612 1238 612 1238 542.5 1180.5 c 128,-1,30
 473 1123 473 1123 425.5 1045 c 128,-1,31
 378 967 378 967 357.5 884.5 c 128,-1,32
 337 802 337 802 337 713 c 0,33,34
 337 628 337 628 357.5 546.5 c 128,-1,35
 378 465 378 465 425.5 387.5 c 128,-1,36
 473 310 473 310 542.5 252.5 c 128,-1,37
 612 195 612 195 718.5 159.5 c 128,-1,16
 825 124 825 124 955 124 c 128,-1,17
837 756 m 2,38,39
 1051 756 l 2,40,41
 1077 756 1077 756 1096 774 c 128,-1,42
 1115 792 1115 792 1115 818 c 0,43,44
 1115 840 1115 840 1105.5 854.5 c 128,-1,45
 1096 869 1096 869 1076.5 874.5 c 128,-1,46
 1057 880 1057 880 1042.5 881.5 c 128,-1,47
 1028 883 1028 883 1004 883 c 2,48,-1
 837 883 l 2,49,50
 831 883 831 883 826 878 c 128,-1,51
 821 873 821 873 821 866 c 2,52,-1
 821 773 l 2,53,54
 821 766 821 766 826 761 c 128,-1,55
 831 756 831 756 837 756 c 2,38,39
563 387 m 2,56,57
 550 387 550 387 540.5 397.5 c 128,-1,58
 531 408 531 408 531 422 c 2,59,-1
 531 1014 l 2,60,61
 531 1029 531 1029 540 1039 c 128,-1,62
 549 1049 549 1049 563 1049 c 2,63,-1
 1034 1049 l 2,64,65
 1092 1049 1092 1049 1122.5 1048.5 c 128,-1,66
 1153 1048 1153 1048 1200 1044 c 128,-1,67
 1247 1040 1247 1040 1272 1033 c 128,-1,68
 1297 1026 1297 1026 1328 1011.5 c 128,-1,69
 1359 997 1359 997 1374 976.5 c 128,-1,70
 1389 956 1389 956 1400 925 c 128,-1,71
 1411 894 1411 894 1411 853 c 0,72,73
 1411 783 1411 783 1365 743 c 128,-1,74
 1319 703 1319 703 1246 692 c 0,75,76
 1245 692 1245 692 1245 690 c 128,-1,77
 1245 688 1245 688 1246 688 c 0,78,79
 1320 674 1320 674 1354 620.5 c 128,-1,80
 1388 567 1388 567 1399 472 c 0,81,82
 1400 461 1400 461 1402 446.5 c 128,-1,83
 1404 432 1404 432 1405.5 422.5 c 128,-1,84
 1407 413 1407 413 1407 409 c 0,85,86
 1407 387 1407 387 1390 387 c 2,87,-1
 1155 387 l 2,88,89
 1135 387 1135 387 1126.5 393.5 c 128,-1,90
 1118 400 1118 400 1114 418 c 0,91,92
 1113 425 1113 425 1108.5 457 c 128,-1,93
 1104 489 1104 489 1101.5 507 c 128,-1,94
 1099 525 1099 525 1092.5 549 c 128,-1,95
 1086 573 1086 573 1078 587 c 0,96,97
 1071 599 1071 599 1065 606 c 128,-1,98
 1059 613 1059 613 1048.5 616 c 128,-1,99
 1038 619 1038 619 1028.5 619.5 c 128,-1,100
 1019 620 1019 620 997 620 c 2,101,-1
 837 620 l 2,102,103
 831 620 831 620 826 614.5 c 128,-1,104
 821 609 821 609 821 602 c 2,105,-1
 821 422 l 2,106,107
 821 408 821 408 811.5 397.5 c 128,-1,108
 802 387 802 387 789 387 c 2,109,-1
 563 387 l 2,56,57
EndSplineSet
EndChar

StartChar: macron
Encoding: 175 175 112
Width: 1067
GlyphClass: 2
Flags: W
LayerCount: 2
Fore
SplineSet
209 1242 m 2,0,1
 177 1242 177 1242 156 1264 c 128,-1,2
 135 1286 135 1286 135 1318 c 2,3,-1
 135 1410 l 2,4,5
 135 1442 135 1442 156 1464 c 128,-1,6
 177 1486 177 1486 209 1486 c 2,7,-1
 861 1486 l 2,8,9
 893 1486 893 1486 914 1464 c 128,-1,10
 935 1442 935 1442 935 1410 c 2,11,-1
 935 1318 l 2,12,13
 935 1286 935 1286 914 1264 c 128,-1,14
 893 1242 893 1242 861 1242 c 2,15,-1
 209 1242 l 2,0,1
EndSplineSet
EndChar

StartChar: degree
Encoding: 176 176 113
Width: 1352
GlyphClass: 2
Flags: W
LayerCount: 2
Fore
SplineSet
674 362 m 128,-1,1
 545 362 545 362 440.5 402.5 c 128,-1,2
 336 443 336 443 269.5 513.5 c 128,-1,3
 203 584 203 584 167.5 675 c 128,-1,4
 132 766 132 766 132 870 c 128,-1,5
 132 974 132 974 167.5 1066 c 128,-1,6
 203 1158 203 1158 269.5 1228.5 c 128,-1,7
 336 1299 336 1299 440.5 1340 c 128,-1,8
 545 1381 545 1381 674 1381 c 128,-1,9
 803 1381 803 1381 907.5 1340 c 128,-1,10
 1012 1299 1012 1299 1078.5 1228.5 c 128,-1,11
 1145 1158 1145 1158 1180.5 1066 c 128,-1,12
 1216 974 1216 974 1216 870 c 128,-1,13
 1216 766 1216 766 1180.5 675 c 128,-1,14
 1145 584 1145 584 1078.5 513.5 c 128,-1,15
 1012 443 1012 443 907.5 402.5 c 128,-1,0
 803 362 803 362 674 362 c 128,-1,1
674 519 m 0,16,17
 767 519 767 519 839 550.5 c 128,-1,18
 911 582 911 582 952 634 c 128,-1,19
 993 686 993 686 1013 746 c 128,-1,20
 1033 806 1033 806 1033 870 c 0,21,22
 1033 937 1033 937 1013 998 c 128,-1,23
 993 1059 993 1059 952 1110.5 c 128,-1,24
 911 1162 911 1162 839 1193 c 128,-1,25
 767 1224 767 1224 674 1224 c 0,26,27
 598 1224 598 1224 536.5 1203.5 c 128,-1,28
 475 1183 475 1183 435 1149 c 128,-1,29
 395 1115 395 1115 367.5 1068.5 c 128,-1,30
 340 1022 340 1022 328 972.5 c 128,-1,31
 316 923 316 923 316 870 c 0,32,33
 316 806 316 806 336 746 c 128,-1,34
 356 686 356 686 396.5 634 c 128,-1,35
 437 582 437 582 508.5 550.5 c 128,-1,36
 580 519 580 519 674 519 c 0,16,17
EndSplineSet
EndChar

StartChar: plusminus
Encoding: 177 177 114
Width: 1289
GlyphClass: 2
Flags: W
LayerCount: 2
Fore
SplineSet
200 -133 m 2,0,1
 168 -133 168 -133 146 -111.5 c 128,-1,2
 124 -90 124 -90 124 -58 c 2,3,-1
 124 78 l 2,4,5
 124 110 124 110 146 132 c 128,-1,6
 168 154 168 154 200 154 c 2,7,-1
 1085 154 l 2,8,9
 1117 154 1117 154 1138.5 132 c 128,-1,10
 1160 110 1160 110 1160 78 c 2,11,-1
 1160 -58 l 2,12,13
 1160 -90 1160 -90 1138.5 -111.5 c 128,-1,14
 1117 -133 1117 -133 1085 -133 c 2,15,-1
 200 -133 l 2,0,1
565 253 m 2,16,17
 533 253 533 253 512 274.5 c 128,-1,18
 491 296 491 296 491 328 c 2,19,-1
 491 600 l 2,20,21
 491 615 491 615 480.5 626 c 128,-1,22
 470 637 470 637 455 637 c 2,23,-1
 203 637 l 2,24,25
 171 637 171 637 150 658 c 128,-1,26
 129 679 129 679 129 711 c 2,27,-1
 129 852 l 2,28,29
 129 884 129 884 150 905 c 128,-1,30
 171 926 171 926 203 926 c 2,31,-1
 455 926 l 2,32,33
 470 926 470 926 480.5 937 c 128,-1,34
 491 948 491 948 491 963 c 2,35,-1
 491 1236 l 2,36,37
 491 1268 491 1268 512 1290 c 128,-1,38
 533 1312 533 1312 565 1312 c 2,39,-1
 723 1312 l 2,40,41
 755 1312 755 1312 776 1290 c 128,-1,42
 797 1268 797 1268 797 1236 c 2,43,-1
 797 963 l 2,44,45
 797 948 797 948 807 937 c 128,-1,46
 817 926 817 926 832 926 c 2,47,-1
 1081 926 l 2,48,49
 1113 926 1113 926 1134 905 c 128,-1,50
 1155 884 1155 884 1155 852 c 2,51,-1
 1155 711 l 2,52,53
 1155 679 1155 679 1134 658 c 128,-1,54
 1113 637 1113 637 1081 637 c 2,55,-1
 832 637 l 2,56,57
 817 637 817 637 807 626 c 128,-1,58
 797 615 797 615 797 600 c 2,59,-1
 797 328 l 2,60,61
 797 296 797 296 776 274.5 c 128,-1,62
 755 253 755 253 723 253 c 2,63,-1
 565 253 l 2,16,17
EndSplineSet
EndChar

StartChar: acute
Encoding: 180 180 117
Width: 1745
GlyphClass: 2
Flags: W
LayerCount: 2
Fore
SplineSet
809 1170 m 2,0,1
 788 1170 788 1170 779 1177.5 c 128,-1,2
 770 1185 770 1185 770 1203 c 0,3,4
 770 1205 770 1205 770.5 1207.5 c 128,-1,5
 771 1210 771 1210 771 1213 c 128,-1,6
 771 1216 771 1216 771.5 1218.5 c 128,-1,7
 772 1221 772 1221 772.5 1224 c 128,-1,8
 773 1227 773 1227 773.5 1230.5 c 128,-1,9
 774 1234 774 1234 775 1237 c 2,10,-1
 838 1563 l 2,11,12
 844 1595 844 1595 859 1606.5 c 128,-1,13
 874 1618 874 1618 908 1618 c 2,14,-1
 1168 1618 l 2,15,16
 1196 1618 1196 1618 1196 1590 c 0,17,18
 1196 1574 1196 1574 1184 1553 c 2,19,-1
 995 1209 l 2,20,21
 986 1194 986 1194 982.5 1189 c 128,-1,22
 979 1184 979 1184 967.5 1177 c 128,-1,23
 956 1170 956 1170 940 1170 c 2,24,-1
 809 1170 l 2,0,1
EndSplineSet
EndChar

StartChar: paragraph
Encoding: 182 182 118
Width: 1742
GlyphClass: 2
Flags: W
LayerCount: 2
Fore
SplineSet
863 -1 m 2,0,1
 831 -1 831 -1 810 21 c 128,-1,2
 789 43 789 43 789 76 c 2,3,-1
 789 554 l 1,4,-1
 751 554 l 2,5,6
 129 554 129 554 129 1013 c 0,7,8
 129 1113 129 1113 168 1188.5 c 128,-1,9
 207 1264 207 1264 272 1310.5 c 128,-1,10
 337 1357 337 1357 432 1386.5 c 128,-1,11
 527 1416 527 1416 627 1427 c 128,-1,12
 727 1438 727 1438 848 1438 c 0,13,14
 1154 1438 1154 1438 1507 1404 c 0,15,16
 1540 1401 1540 1401 1561.5 1380 c 128,-1,17
 1583 1359 1583 1359 1583 1327 c 2,18,19
 1583 76 l 2,20,21
 1583 43 1583 43 1562 21 c 128,-1,22
 1541 -1 1541 -1 1509 -1 c 2,23,-1
 1356 -1 l 2,24,25
 1324 -1 1324 -1 1303 21 c 128,-1,26
 1282 43 1282 43 1282 76 c 2,27,-1
 1282 533 l 2,28,29
 1282 542 1282 542 1276.5 548 c 128,-1,30
 1271 554 1271 554 1263 554 c 2,31,-1
 1090 554 l 1,32,-1
 1090 76 l 2,33,34
 1090 43 1090 43 1069 21 c 128,-1,35
 1048 -1 1048 -1 1016 -1 c 2,36,-1
 863 -1 l 2,0,1
EndSplineSet
EndChar

StartChar: periodcentered
Encoding: 183 183 119
Width: 625
GlyphClass: 2
Flags: W
LayerCount: 2
Fore
SplineSet
206 651 m 2,0,1
 174 651 174 651 151.5 673.5 c 128,-1,2
 129 696 129 696 129 728 c 2,3,-1
 129 916 l 2,4,5
 129 948 129 948 151.5 970.5 c 128,-1,6
 174 993 174 993 206 993 c 2,7,-1
 419 993 l 2,8,9
 451 993 451 993 473.5 970.5 c 128,-1,10
 496 948 496 948 496 916 c 2,11,-1
 496 728 l 2,12,13
 496 696 496 696 473.5 673.5 c 128,-1,14
 451 651 451 651 419 651 c 2,15,-1
 206 651 l 2,0,1
EndSplineSet
EndChar

StartChar: cedilla
Encoding: 184 184 120
Width: 716
GlyphClass: 2
Flags: W
LayerCount: 2
Fore
SplineSet
235 -373 m 2,0,1
 312 -373 l 2,2,3
 342 -373 342 -373 342 -404 c 0,4,5
 342 -410 342 -410 341 -419 c 128,-1,6
 340 -428 340 -428 339 -436.5 c 128,-1,7
 338 -445 338 -445 338 -451 c 0,8,9
 338 -485 338 -485 356.5 -508.5 c 128,-1,10
 375 -532 375 -532 410 -532 c 0,11,12
 447 -532 447 -532 465 -503 c 128,-1,13
 483 -474 483 -474 483 -407 c 0,14,15
 483 -347 483 -347 460.5 -300.5 c 128,-1,16
 438 -254 438 -254 402 -254 c 2,17,-1
 363 -254 l 1,18,-1
 359 -254 l 2,19,20
 355 -254 355 -254 351 -251.5 c 128,-1,21
 347 -249 347 -249 347 -244 c 2,22,-1
 347 -173 l 2,23,24
 347 -156 347 -156 363 -156 c 2,25,-1
 465 -156 l 2,26,27
 543 -156 543 -156 598.5 -230 c 128,-1,28
 654 -304 654 -304 654 -391 c 0,29,30
 654 -519 654 -519 586 -580.5 c 128,-1,31
 518 -642 518 -642 403 -642 c 0,32,33
 314 -642 314 -642 249.5 -592 c 128,-1,34
 185 -542 185 -542 185 -464 c 0,35,36
 185 -373 185 -373 235 -373 c 2,0,1
EndSplineSet
EndChar

StartChar: ordmasculine
Encoding: 186 186 122
Width: 1764
GlyphClass: 2
Flags: W
LayerCount: 2
Fore
SplineSet
882 545 m 128,-1,1
 806 545 806 545 741 548.5 c 128,-1,2
 676 552 676 552 598 564.5 c 128,-1,3
 520 577 520 577 458 597 c 128,-1,4
 396 617 396 617 335 652.5 c 128,-1,5
 274 688 274 688 233.5 735.5 c 128,-1,6
 193 783 193 783 168 853.5 c 128,-1,7
 143 924 143 924 143 1011 c 0,8,9
 143 1474 143 1474 882 1474 c 0,10,11
 1620 1474 1620 1474 1620 1011 c 0,12,13
 1620 924 1620 924 1595 853.5 c 128,-1,14
 1570 783 1570 783 1529.5 735.5 c 128,-1,15
 1489 688 1489 688 1428 652.5 c 128,-1,16
 1367 617 1367 617 1305 597 c 128,-1,17
 1243 577 1243 577 1165 564.5 c 128,-1,18
 1087 552 1087 552 1022.5 548.5 c 128,-1,0
 958 545 958 545 882 545 c 128,-1,1
882 762 m 0,19,20
 1012 762 1012 762 1084 824 c 128,-1,21
 1156 886 1156 886 1156 1011 c 0,22,23
 1156 1123 1156 1123 1082.5 1190.5 c 128,-1,24
 1009 1258 1009 1258 882 1258 c 0,25,26
 754 1258 754 1258 681 1190.5 c 128,-1,27
 608 1123 608 1123 608 1011 c 0,28,29
 608 886 608 886 679.5 824 c 128,-1,30
 751 762 751 762 882 762 c 0,19,20
EndSplineSet
EndChar

StartChar: guillemotright
Encoding: 187 187 123
Width: 1460
GlyphClass: 2
Flags: W
LayerCount: 2
Fore
SplineSet
790 29 m 0,0,1
 765 29 765 29 749.5 45.5 c 128,-1,2
 734 62 734 62 734 79 c 2,3,-1
 734 177 l 2,4,5
 734 227 734 227 745 254.5 c 128,-1,6
 756 282 756 282 794 320 c 1,7,-1
 1043 497 l 1,8,9
 1060 513 1060 513 1060 530 c 0,10,11
 1060 548 1060 548 1043 564 c 1,12,-1
 794 743 l 1,13,14
 756 780 756 780 745 807 c 128,-1,15
 734 834 734 834 734 883 c 2,16,17
 734 986 l 2,18,19
 734 1003 734 1003 749.5 1019.5 c 128,-1,20
 765 1036 765 1036 790 1036 c 0,21,22
 817 1036 817 1036 848 1016 c 2,23,-1
 1231 763 l 2,24,25
 1284 728 1284 728 1305.5 694.5 c 128,-1,26
 1327 661 1327 661 1327 613 c 2,27,-1
 1327 459 l 2,28,29
 1327 361 1327 361 1231 297 c 1,30,-1
 848 49 l 1,31,32
 813 29 813 29 790 29 c 0,0,1
205 29 m 0,33,34
 179 29 179 29 164 45.5 c 128,-1,35
 149 62 149 62 149 79 c 2,36,-1
 149 177 l 2,37,38
 149 227 149 227 160 254.5 c 128,-1,39
 171 282 171 282 209 320 c 1,40,-1
 458 497 l 1,41,42
 475 513 475 513 475 530 c 0,43,44
 475 548 475 548 458 564 c 1,45,-1
 209 743 l 1,46,47
 171 780 171 780 160 807 c 128,-1,48
 149 834 149 834 149 883 c 2,49,-1
 149 986 l 2,50,51
 149 1004 149 1004 164 1020 c 128,-1,52
 179 1036 179 1036 205 1036 c 0,53,54
 232 1036 232 1036 263 1016 c 2,55,-1
 646 763 l 2,56,57
 699 728 699 728 720.5 694.5 c 128,-1,58
 742 661 742 661 742 613 c 2,59,-1
 742 459 l 2,60,61
 742 361 742 361 646 297 c 1,62,-1
 263 49 l 1,63,64
 228 29 228 29 205 29 c 0,33,34
EndSplineSet
EndChar

StartChar: onequarter
Encoding: 188 188 124
Width: 3252
GlyphClass: 2
Flags: W
LayerCount: 2
Fore
SplineSet
1080 -207 m 0,0,1
 859 -207 859 -207 820 -204 c 0,2,3
 801 -203 801 -203 788.5 -194.5 c 128,-1,4
 776 -186 776 -186 781 -178 c 1,5,6
 778 -178 778 -178 998 271.5 c 128,-1,7
 1218 721 1218 721 1440.5 1170 c 128,-1,8
 1663 1619 1663 1619 1666 1619 c 1,9,10
 1671 1631 1671 1631 1692 1638.5 c 128,-1,11
 1713 1646 1713 1646 1730 1646 c 0,12,13
 1973 1646 1973 1646 1984 1645 c 0,14,15
 2004 1644 2004 1644 2019 1635.5 c 128,-1,16
 2034 1627 2034 1627 2030 1619 c 1,17,18
 2033 1619 2033 1619 1813 1169.5 c 128,-1,19
 1593 720 1593 720 1370.5 270.5 c 128,-1,20
 1148 -179 1148 -179 1145 -179 c 1,21,22
 1139 -191 1139 -191 1117.5 -199 c 128,-1,23
 1096 -207 1096 -207 1080 -207 c 0,0,1
414 449 m 0,24,25
 391 449 391 449 345 461.5 c 128,-1,26
 299 474 299 474 299 488 c 1,27,28
 293 488 293 488 288.5 686 c 128,-1,29
 284 884 284 884 284 937 c 0,30,31
 284 965 284 965 278 1067.5 c 128,-1,32
 272 1170 272 1170 266 1170 c 1,33,34
 266 1171 266 1171 250 1171 c 0,35,36
 237 1171 237 1171 215.5 1170.5 c 128,-1,37
 194 1170 194 1170 177.5 1169 c 128,-1,38
 161 1168 161 1168 160 1168 c 0,39,40
 138 1168 138 1168 105 1177.5 c 128,-1,41
 72 1187 72 1187 72 1201 c 1,42,43
 66 1201 66 1201 61.5 1256 c 128,-1,44
 57 1311 57 1311 57 1330 c 0,45,46
 57 1348 57 1348 69 1372 c 128,-1,47
 81 1396 81 1396 95 1396 c 1,48,49
 95 1402 95 1402 327.5 1427.5 c 128,-1,50
 560 1453 560 1453 576 1453 c 0,51,52
 591 1453 591 1453 615 1452 c 128,-1,53
 639 1451 639 1451 676 1449 c 128,-1,54
 713 1447 713 1447 738 1442 c 128,-1,55
 763 1437 763 1437 763 1429 c 1,56,57
 769 1429 769 1429 773.5 1140 c 128,-1,58
 778 851 778 851 778 776 c 0,59,60
 778 734 778 734 765.5 599 c 128,-1,61
 753 464 753 464 740 464 c 1,62,63
 740 458 740 458 597 453.5 c 128,-1,64
 454 449 454 449 414 449 c 0,24,25
2647 -106 m 2,65,66
 2624 -106 2624 -106 2609 -91 c 128,-1,67
 2594 -76 2594 -76 2594 -53 c 2,68,-1
 2594 120 l 1,69,-1
 1870 120 l 2,70,71
 1849 120 1849 120 1832.5 133 c 128,-1,72
 1816 146 1816 146 1816 164 c 0,73,74
 1816 166 1816 166 1816.5 169 c 128,-1,75
 1817 172 1817 172 1817 173 c 2,76,-1
 2044 954 l 1,77,78
 2057 1007 2057 1007 2097 1007 c 2,79,-1
 2412 1007 l 2,80,81
 2433 1007 2433 1007 2449.5 993.5 c 128,-1,82
 2466 980 2466 980 2466 961 c 0,83,84
 2466 960 2466 960 2465.5 957 c 128,-1,85
 2465 954 2465 954 2465 953 c 2,86,-1
 2340 397 l 1,87,-1
 2340 394 l 2,88,89
 2340 385 2340 385 2347.5 378.5 c 128,-1,90
 2355 372 2355 372 2365 372 c 2,91,-1
 2594 372 l 1,92,-1
 2594 954 l 2,93,94
 2594 976 2594 976 2609 991.5 c 128,-1,95
 2624 1007 2624 1007 2647 1007 c 2,96,-1
 2870 1007 l 2,97,98
 2892 1007 2892 1007 2907 992 c 128,-1,99
 2922 977 2922 977 2922 954 c 2,100,-1
 2922 372 l 1,101,-1
 3036 372 l 2,102,103
 3059 372 3059 372 3074 357 c 128,-1,104
 3089 342 3089 342 3089 319 c 2,105,-1
 3089 173 l 2,106,107
 3089 150 3089 150 3074 135 c 128,-1,108
 3059 120 3059 120 3036 120 c 2,109,-1
 2922 120 l 1,110,-1
 2922 -53 l 2,111,112
 2922 -76 2922 -76 2907 -90.5 c 128,-1,113
 2892 -105 2892 -105 2870 -105 c 2,114,-1
 2647 -106 l 2,65,66
EndSplineSet
EndChar

StartChar: onehalf
Encoding: 189 189 125
Width: 3666
GlyphClass: 2
Flags: W
LayerCount: 2
Fore
SplineSet
2145 1 m 2,0,1
 2130 1 2130 1 2117.5 5.5 c 128,-1,2
 2105 10 2105 10 2096.5 18 c 128,-1,3
 2088 26 2088 26 2083.5 38 c 128,-1,4
 2079 50 2079 50 2079 64 c 0,5,6
 2079 66 2079 66 2080 74 c 128,-1,7
 2081 82 2081 82 2082 92.5 c 128,-1,8
 2083 103 2083 103 2084 113.5 c 128,-1,9
 2085 124 2085 124 2086 132.5 c 128,-1,10
 2087 141 2087 141 2087 143 c 0,11,12
 2094 207 2094 207 2112.5 262.5 c 128,-1,13
 2131 318 2131 318 2154 359.5 c 128,-1,14
 2177 401 2177 401 2215 436 c 128,-1,15
 2253 471 2253 471 2284.5 495 c 128,-1,16
 2316 519 2316 519 2366.5 539 c 128,-1,17
 2417 559 2417 559 2451 570.5 c 128,-1,18
 2485 582 2485 582 2541 593 c 128,-1,19
 2597 604 2597 604 2626.5 608.5 c 128,-1,20
 2656 613 2656 613 2710 621 c 0,21,22
 2831 638 2831 638 2883.5 655.5 c 128,-1,23
 2936 673 2936 673 2936 715 c 0,24,25
 2936 732 2936 732 2933 743 c 128,-1,26
 2930 754 2930 754 2918 766.5 c 128,-1,27
 2906 779 2906 779 2883.5 786.5 c 128,-1,28
 2861 794 2861 794 2819 799 c 128,-1,29
 2777 804 2777 804 2718 804 c 0,30,31
 2627 804 2627 804 2507 785 c 128,-1,32
 2387 766 2387 766 2320 750 c 128,-1,33
 2253 734 2253 734 2234 727 c 0,34,35
 2213 720 2213 720 2203 720 c 0,36,37
 2169 720 2169 720 2165 741 c 1,38,39
 2154 762 2154 762 2143.5 795 c 128,-1,40
 2133 828 2133 828 2127.5 850 c 128,-1,41
 2122 872 2122 872 2122 874 c 0,42,43
 2122 911 2122 911 2147 922 c 1,44,45
 2219 957 2219 957 2373.5 987.5 c 128,-1,46
 2528 1018 2528 1018 2648 1018 c 0,47,48
 2723 1018 2723 1018 2782.5 1016 c 128,-1,49
 2842 1014 2842 1014 2904.5 1007.5 c 128,-1,50
 2967 1001 2967 1001 3015 989 c 128,-1,51
 3063 977 3063 977 3108.5 959.5 c 128,-1,52
 3154 942 3154 942 3186 916 c 128,-1,53
 3218 890 3218 890 3242.5 856 c 128,-1,54
 3267 822 3267 822 3279.5 776 c 128,-1,55
 3292 730 3292 730 3292 675 c 0,56,57
 3292 615 3292 615 3275 568 c 128,-1,58
 3258 521 3258 521 3227 490 c 128,-1,59
 3196 459 3196 459 3155.5 436.5 c 128,-1,60
 3115 414 3115 414 3065 400 c 128,-1,61
 3015 386 3015 386 2963 376 c 128,-1,62
 2911 366 2911 366 2854 357 c 128,-1,63
 2797 348 2797 348 2746 338.5 c 128,-1,64
 2695 329 2695 329 2643.5 313 c 128,-1,65
 2592 297 2592 297 2553 275 c 1,66,67
 2543 272 2543 272 2538.5 265.5 c 128,-1,68
 2534 259 2534 259 2534 242 c 0,69,70
 2534 211 2534 211 2570 211 c 2,71,-1
 3227 211 l 2,72,73
 3263 211 3263 211 3263 167 c 2,74,-1
 3263 48 l 2,75,76
 3263 22 3263 22 3254.5 11.5 c 128,-1,77
 3246 1 3246 1 3226 1 c 2,78,-1
 2145 1 l 2,0,1
1204 -206 m 0,79,80
 983 -206 983 -206 944 -203 c 0,81,82
 925 -202 925 -202 912.5 -193.5 c 128,-1,83
 900 -185 900 -185 905 -176 c 1,84,85
 902 -176 902 -176 1122.5 273 c 128,-1,86
 1343 722 1343 722 1565.5 1171 c 128,-1,87
 1788 1620 1788 1620 1790 1620 c 1,88,89
 1796 1632 1796 1632 1817.5 1640 c 128,-1,90
 1839 1648 1839 1648 1855 1648 c 0,91,92
 2089 1648 2089 1648 2115 1646 c 0,93,94
 2134 1645 2134 1645 2146.5 1637 c 128,-1,95
 2159 1629 2159 1629 2155 1620 c 1,96,97
 2157 1620 2157 1620 1937 1170.5 c 128,-1,98
 1717 721 1717 721 1495 271.5 c 128,-1,99
 1273 -178 1273 -178 1270 -178 c 1,100,101
 1264 -190 1264 -190 1242 -198 c 128,-1,102
 1220 -206 1220 -206 1204 -206 c 0,79,80
493 431 m 2,103,104
 470 431 470 431 455 446.5 c 128,-1,105
 440 462 440 462 440 484 c 2,106,-1
 440 1125 l 2,107,108
 440 1136 440 1136 432 1143.5 c 128,-1,109
 424 1151 424 1151 414 1151 c 1,110,-1
 266 1136 l 1,111,112
 244 1136 244 1136 228.5 1151 c 128,-1,113
 213 1166 213 1166 213 1189 c 2,114,-1
 213 1329 l 2,115,116
 213 1351 213 1351 228 1366 c 128,-1,117
 243 1381 243 1381 266 1381 c 1,118,-1
 881 1437 l 1,119,120
 904 1437 904 1437 919 1422 c 128,-1,121
 934 1407 934 1407 934 1384 c 2,122,-1
 934 484 l 2,123,124
 934 462 934 462 919 446.5 c 128,-1,125
 904 431 904 431 881 431 c 2,126,-1
 493 431 l 2,103,104
EndSplineSet
EndChar

StartChar: AE
Encoding: 198 198 134
Width: 3037
GlyphClass: 2
Flags: W
LayerCount: 2
Fore
SplineSet
956 534 m 2,0,1
 1214 534 l 1,2,-1
 1214 1150 l 1,3,-1
 1193 1150 l 2,4,5
 1184 1150 1184 1150 1181 1142 c 2,6,7
 935 563 l 2,8,9
 933 559 933 559 933 555 c 0,10,11
 933 547 933 547 939.5 540.5 c 128,-1,12
 946 534 946 534 956 534 c 2,0,1
153 0 m 2,13,14
 132 0 132 0 118.5 13.5 c 128,-1,15
 105 27 105 27 105 46 c 0,16,17
 105 59 105 59 111 69 c 2,18,-1
 752 1369 l 2,19,20
 768 1400 768 1400 797.5 1419 c 128,-1,21
 827 1438 827 1438 861 1438 c 2,22,-1
 2758 1438 l 2,23,24
 2790 1438 2790 1438 2811.5 1415.5 c 128,-1,25
 2833 1393 2833 1393 2833 1361 c 2,26,-1
 2833 1171 l 2,27,28
 2833 1139 2833 1139 2811.5 1116.5 c 128,-1,29
 2790 1094 2790 1094 2758 1094 c 2,30,-1
 1879 1094 l 2,31,32
 1847 1094 1847 1094 1847 1067 c 2,33,-1
 1847 890 l 2,34,35
 1847 878 1847 878 1855.5 870.5 c 128,-1,36
 1864 863 1864 863 1877 863 c 2,37,-1
 2669 863 l 2,38,39
 2701 863 2701 863 2723 840.5 c 128,-1,40
 2745 818 2745 818 2745 786 c 2,41,-1
 2745 675 l 2,42,43
 2745 643 2745 643 2723 620.5 c 128,-1,44
 2701 598 2701 598 2669 598 c 2,45,-1
 1878 598 l 2,46,47
 1847 598 1847 598 1847 572 c 2,48,-1
 1847 364 l 2,49,50
 1847 339 1847 339 1877 339 c 2,51,-1
 2820 339 l 2,52,53
 2852 339 2852 339 2873.5 316.5 c 128,-1,54
 2895 294 2895 294 2895 262 c 2,55,-1
 2895 77 l 2,56,57
 2895 45 2895 45 2873.5 22.5 c 128,-1,58
 2852 0 2852 0 2820 0 c 2,59,-1
 1290 0 l 2,60,61
 1258 0 1258 0 1236 22 c 128,-1,62
 1214 44 1214 44 1214 76 c 2,63,-1
 1214 209 l 1,64,-1
 813 209 l 2,65,66
 807 209 807 209 802.5 208.5 c 128,-1,67
 798 208 798 208 794.5 206 c 128,-1,68
 791 204 791 204 789 203 c 128,-1,69
 787 202 787 202 785 198.5 c 128,-1,70
 783 195 783 195 782 193 c 128,-1,71
 781 191 781 191 779 186.5 c 128,-1,72
 777 182 777 182 776 180 c 2,73,-1
 726 59 l 2,74,75
 701 0 701 0 628 0 c 2,76,-1
 153 0 l 2,13,14
EndSplineSet
EndChar

StartChar: Eth
Encoding: 208 208 144
Width: 2421
GlyphClass: 2
Flags: W
LayerCount: 2
Fore
SplineSet
235 0 m 2,0,1
 203 0 203 0 181 22 c 128,-1,2
 159 44 159 44 159 76 c 2,3,-1
 159 631 l 1,4,-1
 60 631 l 2,5,6
 0 631 0 631 0 707 c 2,7,-1
 0 757 l 2,8,9
 0 832 0 832 60 832 c 2,10,-1
 159 832 l 1,11,-1
 159 1361 l 2,12,13
 159 1393 159 1393 181 1415.5 c 128,-1,14
 203 1438 203 1438 235 1438 c 2,15,-1
 1321 1438 l 2,16,17
 1481 1438 1481 1438 1618 1416.5 c 128,-1,18
 1755 1395 1755 1395 1879.5 1343 c 128,-1,19
 2004 1291 2004 1291 2091.5 1212 c 128,-1,20
 2179 1133 2179 1133 2230.5 1010 c 128,-1,21
 2282 887 2282 887 2282 731 c 0,22,23
 2282 616 2282 616 2263.5 521.5 c 128,-1,24
 2245 427 2245 427 2215.5 356.5 c 128,-1,25
 2186 286 2186 286 2133.5 230.5 c 128,-1,26
 2081 175 2081 175 2029.5 138 c 128,-1,27
 1978 101 1978 101 1898.5 74.5 c 128,-1,28
 1819 48 1819 48 1751.5 34 c 128,-1,29
 1684 20 1684 20 1584.5 12 c 128,-1,30
 1485 4 1485 4 1408 2 c 128,-1,31
 1331 0 1331 0 1218 0 c 2,32,-1
 235 0 l 2,0,1
864 346 m 0,33,34
 879 346 879 346 902 346 c 128,-1,35
 925 346 925 346 955 346 c 0,36,37
 969 346 969 346 986 346 c 128,-1,38
 1003 346 1003 346 1019 346 c 128,-1,39
 1035 346 1035 346 1051 346 c 128,-1,40
 1067 346 1067 346 1081.5 346 c 128,-1,41
 1096 346 1096 346 1108.5 346 c 128,-1,42
 1121 346 1121 346 1132.5 346 c 128,-1,43
 1144 346 1144 346 1151 346 c 0,44,45
 1218 346 1218 346 1267 349 c 128,-1,46
 1316 352 1316 352 1368 361.5 c 128,-1,47
 1420 371 1420 371 1456 388 c 128,-1,48
 1492 405 1492 405 1525 433.5 c 128,-1,49
 1558 462 1558 462 1578 502 c 128,-1,50
 1598 542 1598 542 1609.5 598.5 c 128,-1,51
 1621 655 1621 655 1621 728 c 0,52,53
 1621 821 1621 821 1596 889 c 128,-1,54
 1571 957 1571 957 1531.5 996.5 c 128,-1,55
 1492 1036 1492 1036 1431.5 1060 c 128,-1,56
 1371 1084 1371 1084 1312 1091.5 c 128,-1,57
 1253 1099 1253 1099 1178 1099 c 0,58,59
 971 1099 971 1099 863 1097 c 0,60,61
 850 1097 850 1097 839 1086.5 c 128,-1,62
 828 1076 828 1076 828 1063 c 2,63,-1
 828 832 l 1,64,-1
 1015 832 l 2,65,66
 1075 832 1075 832 1075 757 c 2,67,-1
 1075 701 l 1,68,69
 1073 631 1073 631 1015 631 c 2,70,-1
 828 631 l 1,71,-1
 828 381 l 2,72,73
 828 368 828 368 839.5 357 c 128,-1,74
 851 346 851 346 864 346 c 0,33,34
EndSplineSet
EndChar

StartChar: multiply
Encoding: 215 215 151
Width: 1190
GlyphClass: 2
Flags: W
LayerCount: 2
Fore
SplineSet
331 193 m 0,0,1
 300 193 300 193 277 216 c 2,2,-1
 166 326 l 2,3,4
 144 349 144 349 144 381 c 128,-1,5
 144 413 144 413 166 435 c 0,6,7
 358 627 358 627 376 646 c 1,8,9
 171 851 171 851 165 855 c 1,10,11
 142 880 142 880 142 910 c 0,12,13
 142 941 142 941 165 964 c 2,14,-1
 275 1074 l 1,15,16
 300 1097 300 1097 330 1097 c 0,17,18
 362 1097 362 1097 384 1074 c 0,19,20
 385 1074 385 1074 595 864 c 1,21,22
 603 872 603 872 656 925 c 128,-1,23
 709 978 709 978 757.5 1026.5 c 128,-1,24
 806 1075 806 1075 806 1076 c 0,25,26
 829 1099 829 1099 861 1099 c 128,-1,27
 893 1099 893 1099 915 1076 c 2,28,-1
 1024 967 l 2,29,30
 1047 944 1047 944 1047 912 c 0,31,32
 1047 881 1047 881 1024 858 c 0,33,34
 852 686 852 686 814 646 c 1,35,-1
 1024 435 l 2,36,37
 1047 413 1047 413 1047 380 c 0,38,39
 1047 348 1047 348 1025 326 c 2,40,-1
 916 217 l 2,41,42
 894 195 894 195 861 195 c 0,43,44
 829 195 829 195 807 217 c 0,45,46
 635 389 635 389 595 427 c 1,47,48
 390 222 390 222 386 216 c 1,49,50
 361 193 361 193 331 193 c 0,0,1
EndSplineSet
EndChar

StartChar: Oslash
Encoding: 216 216 152
Width: 2667
GlyphClass: 2
Flags: W
LayerCount: 2
Fore
SplineSet
1333 322 m 0,0,1
 1435 322 1435 322 1510.5 340.5 c 128,-1,2
 1586 359 1586 359 1646 403 c 128,-1,3
 1706 447 1706 447 1737 527 c 128,-1,4
 1768 607 1768 607 1768 722 c 0,5,6
 1768 986 1768 986 1582 1073 c 1,7,-1
 1271 323 l 1,8,9
 1291 322 1291 322 1333 322 c 0,0,1
1085 367 m 1,10,11
 1397 1116 l 1,12,13
 1376 1118 1376 1118 1333 1118 c 0,14,15
 1231 1118 1231 1118 1154.5 1098.5 c 128,-1,16
 1078 1079 1078 1079 1018.5 1034.5 c 128,-1,17
 959 990 959 990 928.5 911.5 c 128,-1,18
 898 833 898 833 898 722 c 0,19,20
 898 451 898 451 1085 367 c 1,10,11
1022 -202 m 2,21,-1
 880 -200 l 2,22,23
 869 -200 869 -200 863.5 -189 c 128,-1,24
 858 -178 858 -178 863 -167 c 2,25,-1
 928 -13 l 1,26,27
 797 7 797 7 686.5 41 c 128,-1,28
 576 75 576 75 471.5 134.5 c 128,-1,29
 367 194 367 194 294.5 272.5 c 128,-1,30
 222 351 222 351 178 466 c 128,-1,31
 134 581 134 581 134 722 c 0,32,33
 134 846 134 846 173.5 951.5 c 128,-1,34
 213 1057 213 1057 280.5 1133 c 128,-1,35
 348 1209 348 1209 442.5 1269 c 128,-1,36
 537 1329 537 1329 642 1367 c 128,-1,37
 747 1405 747 1405 868 1430 c 128,-1,38
 989 1455 989 1455 1102.5 1465 c 128,-1,39
 1216 1475 1216 1475 1333 1475 c 0,40,41
 1451 1475 1451 1475 1542 1466 c 1,42,-1
 1598 1602 l 2,43,44
 1611 1635 1611 1635 1642 1635 c 2,45,46
 1784 1635 l 2,47,48
 1794 1635 1794 1635 1800 1624 c 128,-1,49
 1806 1613 1806 1613 1801 1602 c 2,50,-1
 1735 1441 l 1,51,52
 1864 1419 1864 1419 1976 1382.5 c 128,-1,53
 2088 1346 2088 1346 2192.5 1286 c 128,-1,54
 2297 1226 2297 1226 2370.5 1149 c 128,-1,55
 2444 1072 2444 1072 2488 962.5 c 128,-1,56
 2532 853 2532 853 2532 722 c 0,57,58
 2532 588 2532 588 2492 477 c 128,-1,59
 2452 366 2452 366 2385.5 288.5 c 128,-1,60
 2319 211 2319 211 2223 151.5 c 128,-1,61
 2127 92 2127 92 2024 56 c 128,-1,62
 1921 20 1921 20 1797.5 -2.5 c 128,-1,63
 1674 -25 1674 -25 1563.5 -33 c 128,-1,64
 1453 -41 1453 -41 1333 -41 c 0,65,66
 1223 -41 1223 -41 1124 -34 c 1,67,-1
 1067 -169 l 2,68,69
 1061 -184 1061 -184 1048.5 -193 c 128,-1,70
 1036 -202 1036 -202 1022 -202 c 2,21,-1
EndSplineSet
EndChar

StartChar: Thorn
Encoding: 222 222 158
Width: 2348
GlyphClass: 2
Flags: W
LayerCount: 2
Fore
SplineSet
861 614 m 2,0,1
 1254 614 l 2,2,3
 1303 614 1303 614 1340.5 617.5 c 128,-1,4
 1378 621 1378 621 1415 632 c 128,-1,5
 1452 643 1452 643 1476 661.5 c 128,-1,6
 1500 680 1500 680 1515 711.5 c 128,-1,7
 1530 743 1530 743 1530 787 c 0,8,9
 1530 818 1530 818 1521.5 843 c 128,-1,10
 1513 868 1513 868 1499.5 885.5 c 128,-1,11
 1486 903 1486 903 1464 915.5 c 128,-1,12
 1442 928 1442 928 1419.5 935 c 128,-1,13
 1397 942 1397 942 1367.5 946.5 c 128,-1,14
 1338 951 1338 951 1311.5 952 c 128,-1,15
 1285 953 1285 953 1252 953 c 0,16,17
 1243 953 1243 953 1232.5 953 c 128,-1,18
 1222 953 1222 953 1213.5 953 c 128,-1,19
 1205 953 1205 953 1194.5 952.5 c 128,-1,20
 1184 952 1184 952 1175.5 952 c 128,-1,21
 1167 952 1167 952 1157 952 c 128,-1,22
 1147 952 1147 952 1139 952 c 2,23,-1
 861 952 l 2,24,25
 848 952 848 952 837.5 941.5 c 128,-1,26
 827 931 827 931 827 918 c 2,27,-1
 827 649 l 2,28,29
 827 636 827 636 837.5 625 c 128,-1,30
 848 614 848 614 861 614 c 2,0,1
235 0 m 2,31,32
 203 0 203 0 181 22 c 128,-1,33
 159 44 159 44 159 76 c 2,34,-1
 159 1363 l 2,35,36
 159 1395 159 1395 181 1416.5 c 128,-1,37
 203 1438 203 1438 235 1438 c 2,38,-1
 751 1438 l 2,39,40
 783 1438 783 1438 805 1416.5 c 128,-1,41
 827 1395 827 1395 827 1363 c 2,42,-1
 827 1249 l 1,43,-1
 1298 1249 l 2,44,45
 1408 1249 1408 1249 1471.5 1248 c 128,-1,46
 1535 1247 1535 1247 1628 1243 c 128,-1,47
 1721 1239 1721 1239 1774.5 1231 c 128,-1,48
 1828 1223 1828 1223 1899 1207.5 c 128,-1,49
 1970 1192 1970 1192 2010 1169.5 c 128,-1,50
 2050 1147 2050 1147 2094.5 1113.5 c 128,-1,51
 2139 1080 2139 1080 2162 1036 c 128,-1,52
 2185 992 2185 992 2200 933.5 c 128,-1,53
 2215 875 2215 875 2215 803 c 0,54,55
 2215 734 2215 734 2200 675.5 c 128,-1,56
 2185 617 2185 617 2159.5 572.5 c 128,-1,57
 2134 528 2134 528 2092.5 492.5 c 128,-1,58
 2051 457 2051 457 2005 432 c 128,-1,59
 1959 407 1959 407 1896 388.5 c 128,-1,60
 1833 370 1833 370 1771.5 358.5 c 128,-1,61
 1710 347 1710 347 1629.5 340 c 128,-1,62
 1549 333 1549 333 1477.5 330.5 c 128,-1,63
 1406 328 1406 328 1314 327 c 0,64,65
 1250 326 1250 326 1090.5 326 c 128,-1,66
 931 326 931 326 861 325 c 0,67,68
 848 325 848 325 837.5 314 c 128,-1,69
 827 303 827 303 827 290 c 2,70,-1
 827 76 l 2,71,72
 827 44 827 44 805 22 c 128,-1,73
 783 0 783 0 751 0 c 2,74,-1
 235 0 l 2,31,32
EndSplineSet
EndChar

StartChar: germandbls
Encoding: 223 223 159
Width: 2042
GlyphClass: 2
Flags: W
LayerCount: 2
Fore
SplineSet
230 0 m 2,0,1
 198 0 198 0 177 22 c 128,-1,2
 156 44 156 44 156 77 c 2,3,-1
 156 969 l 2,4,5
 156 1030 156 1030 162 1078 c 128,-1,6
 168 1126 168 1126 186 1176.5 c 128,-1,7
 204 1227 204 1227 234 1264.5 c 128,-1,8
 264 1302 264 1302 314.5 1336 c 128,-1,9
 365 1370 365 1370 434.5 1391.5 c 128,-1,10
 504 1413 504 1413 602.5 1425.5 c 128,-1,11
 701 1438 701 1438 824 1438 c 2,12,-1
 1027 1438 l 2,13,14
 1194 1438 1194 1438 1326.5 1417.5 c 128,-1,15
 1459 1397 1459 1397 1564 1352 c 128,-1,16
 1669 1307 1669 1307 1726 1228 c 128,-1,17
 1783 1149 1783 1149 1783 1040 c 0,18,19
 1783 955 1783 955 1748 893 c 128,-1,20
 1713 831 1713 831 1635 787 c 0,21,22
 1625 781 1625 781 1626 771.5 c 128,-1,23
 1627 762 1627 762 1638 758 c 0,24,25
 1765 709 1765 709 1837.5 626 c 128,-1,26
 1910 543 1910 543 1910 424 c 0,27,28
 1910 0 1910 0 1009 0 c 2,29,-1
 944 0 l 2,30,31
 883 0 883 0 883 73 c 2,32,-1
 883 277 l 2,33,34
 883 298 883 298 897 316 c 128,-1,35
 911 334 911 334 941 334 c 0,36,37
 944 334 944 334 947 334 c 2,38,-1
 1016 334 l 2,39,40
 1092 334 1092 334 1143 337.5 c 128,-1,41
 1194 341 1194 341 1240 351 c 128,-1,42
 1286 361 1286 361 1311.5 379 c 128,-1,43
 1337 397 1337 397 1352 426 c 128,-1,44
 1367 455 1367 455 1367 497 c 0,45,46
 1367 588 1367 588 1295.5 617 c 128,-1,47
 1224 646 1224 646 1033 646 c 2,48,-1
 943 646 l 2,49,50
 916 646 916 646 902 659 c 128,-1,51
 888 672 888 672 888 689 c 2,52,-1
 888 811 l 2,53,54
 888 861 888 861 943 861 c 2,55,-1
 1049 861 l 1,56,57
 1194 864 1194 864 1252 893.5 c 128,-1,58
 1310 923 1310 923 1310 997 c 0,59,60
 1310 1031 1310 1031 1299.5 1056 c 128,-1,61
 1289 1081 1289 1081 1265.5 1097.5 c 128,-1,62
 1242 1114 1242 1114 1215.5 1124 c 128,-1,63
 1189 1134 1189 1134 1145 1139 c 128,-1,64
 1101 1144 1101 1144 1062 1145.5 c 128,-1,65
 1023 1147 1023 1147 963 1147 c 0,66,67
 827 1147 827 1147 766 1092.5 c 128,-1,68
 705 1038 705 1038 705 920 c 2,69,-1
 705 103 l 2,70,71
 705 0 705 0 615 0 c 2,72,-1
 230 0 l 2,0,1
EndSplineSet
EndChar

StartChar: ae
Encoding: 230 230 166
Width: 3007
GlyphClass: 2
Flags: W
LayerCount: 2
Fore
SplineSet
1824 611 m 2,0,1
 2367 611 l 2,2,3
 2378 611 2378 611 2378 636 c 1,4,5
 2366 721 2366 721 2293 778 c 128,-1,6
 2220 835 2220 835 2100 835 c 0,7,8
 1987 835 1987 835 1903.5 779 c 128,-1,9
 1820 723 1820 723 1813 641 c 1,10,11
 1813 611 1813 611 1824 611 c 2,0,1
842 174 m 0,12,13
 1012 174 1012 174 1136.5 248.5 c 128,-1,14
 1261 323 1261 323 1261 424 c 0,15,16
 1261 456 1261 456 1233 456 c 0,17,18
 1215 456 1215 456 1205 454 c 0,19,20
 941 421 941 421 811 380.5 c 128,-1,21
 681 340 681 340 681 271 c 0,22,23
 681 174 681 174 842 174 c 0,12,13
736 -41 m 0,24,25
 462 -41 462 -41 300.5 33 c 128,-1,26
 139 107 139 107 139 238 c 0,27,28
 139 312 139 312 186.5 371.5 c 128,-1,29
 234 431 234 431 312 468.5 c 128,-1,30
 390 506 390 506 490 534.5 c 128,-1,31
 590 563 590 563 693.5 577 c 128,-1,32
 797 591 797 591 897 601.5 c 128,-1,33
 997 612 997 612 1075 616.5 c 128,-1,34
 1153 621 1153 621 1200.5 626.5 c 128,-1,35
 1248 632 1248 632 1248 639 c 0,36,37
 1248 642 1248 642 1248.5 651 c 128,-1,38
 1249 660 1249 660 1249 661 c 0,39,40
 1249 751 1249 751 1183 800 c 128,-1,41
 1117 849 1117 849 961 849 c 0,42,43
 884 849 884 849 797.5 827 c 128,-1,44
 711 805 711 805 659 758 c 0,45,46
 627 729 627 729 600 729 c 0,47,48
 596 729 596 729 578 731 c 2,49,-1
 194 766 l 2,50,51
 182 768 182 768 174 779 c 128,-1,52
 166 790 166 790 166 802 c 0,53,54
 166 817 166 817 177 846 c 0,55,56
 221 953 221 953 410.5 1003 c 128,-1,57
 600 1053 600 1053 957 1053 c 0,58,59
 1335 1053 1335 1053 1520 906 c 1,60,61
 1640 976 1640 976 1792.5 1014.5 c 128,-1,62
 1945 1053 1945 1053 2091 1053 c 0,63,64
 2205 1053 2205 1053 2312.5 1036.5 c 128,-1,65
 2420 1020 2420 1020 2522 980.5 c 128,-1,66
 2624 941 2624 941 2700.5 882.5 c 128,-1,67
 2777 824 2777 824 2824.5 734 c 128,-1,68
 2872 644 2872 644 2874 533 c 0,69,70
 2874 493 2874 493 2864 473.5 c 128,-1,71
 2854 454 2854 454 2821 454 c 2,72,-1
 1835 454 l 2,73,74
 1812 454 1812 454 1812 426 c 0,75,76
 1812 370 1812 370 1853 326.5 c 128,-1,77
 1894 283 1894 283 1960.5 258.5 c 128,-1,78
 2027 234 2027 234 2102.5 221.5 c 128,-1,79
 2178 209 2178 209 2257 209 c 0,80,81
 2449 209 2449 209 2672 277 c 0,82,83
 2685 281 2685 281 2698 281 c 0,84,85
 2722 281 2722 281 2740 268 c 128,-1,86
 2758 255 2758 255 2765 233 c 0,87,88
 2772 213 2772 213 2782 181.5 c 128,-1,89
 2792 150 2792 150 2796 137 c 0,90,91
 2799 127 2799 127 2799 117 c 0,92,93
 2799 94 2799 94 2785.5 75 c 128,-1,94
 2772 56 2772 56 2749 49 c 0,95,96
 2641 14 2641 14 2449 -13.5 c 128,-1,97
 2257 -41 2257 -41 2149 -41 c 0,98,99
 1948 -41 1948 -41 1759.5 6 c 128,-1,100
 1571 53 1571 53 1446 156 c 1,101,102
 1437 162 1437 162 1419 176 c 1,103,104
 1202 -41 1202 -41 736 -41 c 0,24,25
EndSplineSet
EndChar

